<?xml version="1.0" encoding="UTF-8" standalone="no"?>
<!DOCTYPE svg PUBLIC "-//W3C//DTD SVG 1.0//EN"
 "http://www.w3.org/TR/2001/REC-SVG-20010904/DTD/svg10.dtd" [
 <!ATTLIST svg xmlns:xlink CDATA #FIXED "http://www.w3.org/1999/xlink">
]>
<!-- Generated by Graphviz version 2.20.2 (Tue Mar &#160;2 21:46:26 UTC 2010)
     For user: (joost) Joost Helberg,,, -->
<!-- Title: G Pages: 1 -->
<svg width="732pt" height="584pt"
 viewBox="0.00 0.00 732.00 584.00" xmlns="http://www.w3.org/2000/svg" xmlns:xlink="http://www.w3.org/1999/xlink">
<g id="graph0" class="graph" transform="scale(1 1) rotate(0) translate(4 580)">
<title>G</title>
<polygon style="fill:white;stroke:white;" points="-4,4 -4,-580 728,-580 728,4 -4,4"/>
<!-- External Machines Reachable -->
<g id="node1" class="node"><title>External Machines Reachable</title>
<polygon style="fill:none;stroke:black;" points="213,-540 213,-576 430,-576 430,-540 213,-540"/>
<text text-anchor="middle" x="321" y="-559.4" style="font-family:Times New Roman;font-size:14.00;">External Machines Reachable</text>
</g>
<!-- Target Down -->
<g id="node3" class="node"><title>Target Down</title>
<polygon style="fill:none;stroke:black;" points="186,-450 186,-486 291,-486 291,-450 186,-450"/>
<text text-anchor="middle" x="238" y="-469.4" style="font-family:Times New Roman;font-size:14.00;">Target Down</text>
</g>
<!-- External Machines Reachable&#45;&gt;Target Down -->
<g id="edge2" class="edge"><title>External Machines Reachable&#45;&gt;Target Down</title>
<path style="fill:none;stroke:black;" d="M304,-540C292,-526 275,-508 262,-493"/>
<polygon style="fill:black;stroke:black;" points="264.546,-490.596 255,-486 259.596,-495.546 264.546,-490.596"/>
<text text-anchor="middle" x="300" y="-508.9" style="font-family:Times New Roman;font-size:14.00;">Yes</text>
</g>
<!-- Firewall Reachable -->
<g id="node5" class="node"><title>Firewall Reachable</title>
<polygon style="fill:none;stroke:black;" points="308,-450 308,-486 452,-486 452,-450 308,-450"/>
<text text-anchor="middle" x="380" y="-469.4" style="font-family:Times New Roman;font-size:14.00;">Firewall Reachable</text>
</g>
<!-- External Machines Reachable&#45;&gt;Firewall Reachable -->
<g id="edge4" class="edge"><title>External Machines Reachable&#45;&gt;Firewall Reachable</title>
<path style="fill:none;stroke:black;" d="M333,-540C341,-527 353,-509 362,-495"/>
<polygon style="fill:black;stroke:black;" points="365.365,-496.262 368,-486 359.541,-492.379 365.365,-496.262"/>
<text text-anchor="middle" x="368" y="-508.9" style="font-family:Times New Roman;font-size:14.00;">No</text>
</g>
<!-- Hop Down -->
<g id="node7" class="node"><title>Hop Down</title>
<polygon style="fill:none;stroke:black;" points="111,-360 111,-396 200,-396 200,-360 111,-360"/>
<text text-anchor="middle" x="155" y="-379.4" style="font-family:Times New Roman;font-size:14.00;">Hop Down</text>
</g>
<!-- Target Down&#45;&gt;Hop Down -->
<g id="edge6" class="edge"><title>Target Down&#45;&gt;Hop Down</title>
<path style="fill:none;stroke:black;" d="M221,-450C209,-436 192,-418 179,-403"/>
<polygon style="fill:black;stroke:black;" points="181.546,-400.596 172,-396 176.596,-405.546 181.546,-400.596"/>
<text text-anchor="middle" x="215" y="-418.9" style="font-family:Times New Roman;font-size:14.00;">No</text>
</g>
<!-- Solved1 -->
<g id="node9" class="node"><title>Solved1</title>
<polygon style="fill:none;stroke:black;" points="217,-360 217,-396 279,-396 279,-360 217,-360"/>
<text text-anchor="middle" x="248" y="-379.4" style="font-family:Times New Roman;font-size:14.00;">Solved</text>
</g>
<!-- Target Down&#45;&gt;Solved1 -->
<g id="edge8" class="edge"><title>Target Down&#45;&gt;Solved1</title>
<path style="fill:none;stroke:black;" d="M240,-450C242,-437 243,-420 245,-406"/>
<polygon style="fill:black;stroke:black;" points="248.488,-406.299 246,-396 241.522,-405.602 248.488,-406.299"/>
<text text-anchor="middle" x="257" y="-418.9" style="font-family:Times New Roman;font-size:14.00;">Yes</text>
</g>
<!-- Inspect Firewall -->
<g id="node19" class="node"><title>Inspect Firewall</title>
<polygon style="fill:none;stroke:black;" points="308,-270 308,-306 432,-306 432,-270 308,-270"/>
<text text-anchor="middle" x="370" y="-289.4" style="font-family:Times New Roman;font-size:14.00;">Inspect Firewall</text>
</g>
<!-- Firewall Reachable&#45;&gt;Inspect Firewall -->
<g id="edge18" class="edge"><title>Firewall Reachable&#45;&gt;Inspect Firewall</title>
<path style="fill:none;stroke:black;" d="M375,-450C370,-435 365,-414 362,-396 359,-369 362,-338 365,-316"/>
<polygon style="fill:black;stroke:black;" points="368.471,-316.492 367,-306 361.607,-315.119 368.471,-316.492"/>
<text text-anchor="middle" x="377" y="-373.9" style="font-family:Times New Roman;font-size:14.00;">Yes</text>
</g>
<!-- Firewall Reachable by others -->
<g id="node21" class="node"><title>Firewall Reachable by others</title>
<polygon style="fill:none;stroke:black;" points="394,-360 394,-396 608,-396 608,-360 394,-360"/>
<text text-anchor="middle" x="501" y="-379.4" style="font-family:Times New Roman;font-size:14.00;">Firewall Reachable by others</text>
</g>
<!-- Firewall Reachable&#45;&gt;Firewall Reachable by others -->
<g id="edge20" class="edge"><title>Firewall Reachable&#45;&gt;Firewall Reachable by others</title>
<path style="fill:none;stroke:black;" d="M404,-450C422,-436 449,-417 469,-402"/>
<polygon style="fill:black;stroke:black;" points="471.1,-404.8 477,-396 466.9,-399.2 471.1,-404.8"/>
<text text-anchor="middle" x="463" y="-418.9" style="font-family:Times New Roman;font-size:14.00;">No</text>
</g>
<!-- Firewall Blocks Traffic -->
<g id="node11" class="node"><title>Firewall Blocks Traffic</title>
<polygon style="fill:none;stroke:black;" points="0,-270 0,-306 164,-306 164,-270 0,-270"/>
<text text-anchor="middle" x="82" y="-289.4" style="font-family:Times New Roman;font-size:14.00;">Firewall Blocks Traffic</text>
</g>
<!-- Hop Down&#45;&gt;Firewall Blocks Traffic -->
<g id="edge10" class="edge"><title>Hop Down&#45;&gt;Firewall Blocks Traffic</title>
<path style="fill:none;stroke:black;" d="M140,-360C130,-347 115,-329 103,-314"/>
<polygon style="fill:black;stroke:black;" points="105.8,-311.9 97,-306 100.2,-316.1 105.8,-311.9"/>
<text text-anchor="middle" x="136" y="-328.9" style="font-family:Times New Roman;font-size:14.00;">No</text>
</g>
<!-- Solved2 -->
<g id="node13" class="node"><title>Solved2</title>
<polygon style="fill:none;stroke:black;" points="182,-270 182,-306 244,-306 244,-270 182,-270"/>
<text text-anchor="middle" x="213" y="-289.4" style="font-family:Times New Roman;font-size:14.00;">Solved</text>
</g>
<!-- Hop Down&#45;&gt;Solved2 -->
<g id="edge12" class="edge"><title>Hop Down&#45;&gt;Solved2</title>
<path style="fill:none;stroke:black;" d="M167,-360C175,-347 186,-329 196,-315"/>
<polygon style="fill:black;stroke:black;" points="199.203,-316.441 201,-306 193.084,-313.042 199.203,-316.441"/>
<text text-anchor="middle" x="203" y="-328.9" style="font-family:Times New Roman;font-size:14.00;">yes</text>
</g>
<!-- ...1 -->
<g id="node15" class="node"><title>...1</title>
<polygon style="fill:none;stroke:black;" points="17,-180 17,-216 71,-216 71,-180 17,-180"/>
<text text-anchor="middle" x="44" y="-199.4" style="font-family:Times New Roman;font-size:14.00;">...</text>
</g>
<!-- Firewall Blocks Traffic&#45;&gt;...1 -->
<g id="edge14" class="edge"><title>Firewall Blocks Traffic&#45;&gt;...1</title>
<path style="fill:none;stroke:black;" d="M74,-270C68,-257 61,-240 56,-226"/>
<polygon style="fill:black;stroke:black;" points="58.9636,-223.985 52,-216 52.4643,-226.585 58.9636,-223.985"/>
<text text-anchor="middle" x="78" y="-238.9" style="font-family:Times New Roman;font-size:14.00;">No</text>
</g>
<!-- Solved -->
<g id="node17" class="node"><title>Solved</title>
<polygon style="fill:none;stroke:black;" points="89,-180 89,-216 151,-216 151,-180 89,-180"/>
<text text-anchor="middle" x="120" y="-199.4" style="font-family:Times New Roman;font-size:14.00;">Solved</text>
</g>
<!-- Firewall Blocks Traffic&#45;&gt;Solved -->
<g id="edge16" class="edge"><title>Firewall Blocks Traffic&#45;&gt;Solved</title>
<path style="fill:none;stroke:black;" d="M90,-270C96,-257 103,-240 108,-226"/>
<polygon style="fill:black;stroke:black;" points="111.536,-226.585 112,-216 105.036,-223.985 111.536,-226.585"/>
<text text-anchor="middle" x="118" y="-238.9" style="font-family:Times New Roman;font-size:14.00;">Yes</text>
</g>
<!-- Firewall Reachable by others&#45;&gt;Inspect Firewall -->
<g id="edge22" class="edge"><title>Firewall Reachable by others&#45;&gt;Inspect Firewall</title>
<path style="fill:none;stroke:black;" d="M474,-360C454,-346 426,-327 404,-312"/>
<polygon style="fill:black;stroke:black;" points="406.1,-309.2 396,-306 401.9,-314.8 406.1,-309.2"/>
<text text-anchor="middle" x="458" y="-328.9" style="font-family:Times New Roman;font-size:14.00;">No</text>
</g>
<!-- eth0 up -->
<g id="node24" class="node"><title>eth0 up</title>
<polygon style="fill:none;stroke:black;" points="466,-270 466,-306 536,-306 536,-270 466,-270"/>
<text text-anchor="middle" x="501" y="-289.4" style="font-family:Times New Roman;font-size:14.00;">eth0 up</text>
</g>
<!-- Firewall Reachable by others&#45;&gt;eth0 up -->
<g id="edge24" class="edge"><title>Firewall Reachable by others&#45;&gt;eth0 up</title>
<path style="fill:none;stroke:black;" d="M501,-360C501,-347 501,-331 501,-316"/>
<polygon style="fill:black;stroke:black;" points="504.5,-316 501,-306 497.5,-316 504.5,-316"/>
<text text-anchor="middle" x="513" y="-328.9" style="font-family:Times New Roman;font-size:14.00;">Yes</text>
</g>
<!-- Solved3 -->
<g id="node26" class="node"><title>Solved3</title>
<polygon style="fill:none;stroke:black;" points="432,-180 432,-216 494,-216 494,-180 432,-180"/>
<text text-anchor="middle" x="463" y="-199.4" style="font-family:Times New Roman;font-size:14.00;">Solved</text>
</g>
<!-- eth0 up&#45;&gt;Solved3 -->
<g id="edge26" class="edge"><title>eth0 up&#45;&gt;Solved3</title>
<path style="fill:none;stroke:black;" d="M493,-270C487,-257 480,-240 475,-226"/>
<polygon style="fill:black;stroke:black;" points="477.964,-223.985 471,-216 471.464,-226.585 477.964,-223.985"/>
<text text-anchor="middle" x="497" y="-238.9" style="font-family:Times New Roman;font-size:14.00;">No</text>
</g>
<!-- Route table ok -->
<g id="node28" class="node"><title>Route table ok</title>
<polygon style="fill:none;stroke:black;" points="512,-180 512,-216 629,-216 629,-180 512,-180"/>
<text text-anchor="middle" x="570" y="-199.4" style="font-family:Times New Roman;font-size:14.00;">Route table ok</text>
</g>
<!-- eth0 up&#45;&gt;Route table ok -->
<g id="edge28" class="edge"><title>eth0 up&#45;&gt;Route table ok</title>
<path style="fill:none;stroke:black;" d="M515,-270C525,-257 539,-239 550,-224"/>
<polygon style="fill:black;stroke:black;" points="552.8,-226.1 556,-216 547.2,-221.9 552.8,-226.1"/>
<text text-anchor="middle" x="555" y="-238.9" style="font-family:Times New Roman;font-size:14.00;">Yes</text>
</g>
<!-- Solved4 -->
<g id="node30" class="node"><title>Solved4</title>
<polygon style="fill:none;stroke:black;" points="472,-90 472,-126 534,-126 534,-90 472,-90"/>
<text text-anchor="middle" x="503" y="-109.4" style="font-family:Times New Roman;font-size:14.00;">Solved</text>
</g>
<!-- Route table ok&#45;&gt;Solved4 -->
<g id="edge30" class="edge"><title>Route table ok&#45;&gt;Solved4</title>
<path style="fill:none;stroke:black;" d="M556,-180C547,-167 533,-149 523,-134"/>
<polygon style="fill:black;stroke:black;" points="525.8,-131.9 517,-126 520.2,-136.1 525.8,-131.9"/>
<text text-anchor="middle" x="554" y="-148.9" style="font-family:Times New Roman;font-size:14.00;">No</text>
</g>
<!-- Physical Reason: Cable -->
<g id="node32" class="node"><title>Physical Reason: Cable</title>
<polygon style="fill:none;stroke:black;" points="552,-90 552,-126 725,-126 725,-90 552,-90"/>
<text text-anchor="middle" x="638" y="-109.4" style="font-family:Times New Roman;font-size:14.00;">Physical Reason: Cable</text>
</g>
<!-- Route table ok&#45;&gt;Physical Reason: Cable -->
<g id="edge32" class="edge"><title>Route table ok&#45;&gt;Physical Reason: Cable</title>
<path style="fill:none;stroke:black;" d="M584,-180C594,-167 608,-149 618,-134"/>
<polygon style="fill:black;stroke:black;" points="620.8,-136.1 624,-126 615.2,-131.9 620.8,-136.1"/>
<text text-anchor="middle" x="620" y="-148.9" style="font-family:Times New Roman;font-size:14.00;">Yes</text>
</g>
<!-- ...2 -->
<g id="node34" class="node"><title>...2</title>
<polygon style="fill:none;stroke:black;" points="573,-0 573,-36 627,-36 627,-0 573,-0"/>
<text text-anchor="middle" x="600" y="-19.4" style="font-family:Times New Roman;font-size:14.00;">...</text>
</g>
<!-- Physical Reason: Cable&#45;&gt;...2 -->
<g id="edge34" class="edge"><title>Physical Reason: Cable&#45;&gt;...2</title>
<path style="fill:none;stroke:black;" d="M630,-90C624,-77 617,-60 612,-46"/>
<polygon style="fill:black;stroke:black;" points="614.964,-43.9849 608,-36 608.464,-46.5847 614.964,-43.9849"/>
<text text-anchor="middle" x="630" y="-58.9" style="font-family:Times New Roman;font-size:14.00;">No</text>
</g>
<!-- Solved5 -->
<g id="node36" class="node"><title>Solved5</title>
<polygon style="fill:none;stroke:black;" points="645,-0 645,-36 707,-36 707,-0 645,-0"/>
<text text-anchor="middle" x="676" y="-19.4" style="font-family:Times New Roman;font-size:14.00;">Solved</text>
</g>
<!-- Physical Reason: Cable&#45;&gt;Solved5 -->
<g id="edge36" class="edge"><title>Physical Reason: Cable&#45;&gt;Solved5</title>
<path style="fill:none;stroke:black;" d="M646,-90C652,-77 659,-60 664,-46"/>
<polygon style="fill:black;stroke:black;" points="667.536,-46.5847 668,-36 661.036,-43.9849 667.536,-46.5847"/>
<text text-anchor="middle" x="670" y="-58.9" style="font-family:Times New Roman;font-size:14.00;">Yes</text>
</g>
</g>
</svg>
