<?xml version="1.0" encoding="UTF-8" standalone="no"?>
<!DOCTYPE svg PUBLIC "-//W3C//DTD SVG 1.0//EN"
 "http://www.w3.org/TR/2001/REC-SVG-20010904/DTD/svg10.dtd" [
 <!ATTLIST svg xmlns:xlink CDATA #FIXED "http://www.w3.org/1999/xlink">
]>
<!-- Generated by Graphviz version 2.20.2 (Tue Mar &#160;2 21:46:26 UTC 2010)
     For user: (joost) Joost Helberg,,, -->
<!-- Title: G Pages: 1 -->
<svg width="368pt" height="491pt"
 viewBox="0.00 0.00 368.00 491.00" xmlns="http://www.w3.org/2000/svg" xmlns:xlink="http://www.w3.org/1999/xlink">
<g id="graph0" class="graph" transform="scale(1 1) rotate(0) translate(4 487)">
<title>G</title>
<polygon style="fill:white;stroke:white;" points="-4,4 -4,-487 364,-487 364,4 -4,4"/>
<!-- node1 -->
<g id="node1" class="node"><title>node1</title>
<polygon style="fill:none;stroke:black;" points="6,-401 6,-476 171,-476 171,-401 6,-401"/>
<text text-anchor="middle" x="88" y="-458.9" style="font-family:Times New Roman;font-size:14.00;">192.168.11.0/24</text>
<polyline style="fill:none;stroke:black;" points="6,-451 171,-451 "/>
<text text-anchor="middle" x="88" y="-433.9" style="font-family:Times New Roman;font-size:14.00;">left gateway machine</text>
<polyline style="fill:none;stroke:black;" points="6,-426 171,-426 "/>
<text text-anchor="middle" x="88" y="-408.9" style="font-family:Times New Roman;font-size:14.00;">45.66.9.170</text>
</g>
<!-- node2 -->
<g id="node2" class="node"><title>node2</title>
<polygon style="fill:none;stroke:black;" points="15,-295 15,-370 162,-370 162,-295 15,-295"/>
<text text-anchor="middle" x="88" y="-352.9" style="font-family:Times New Roman;font-size:14.00;">45.66.11.254</text>
<polyline style="fill:none;stroke:black;" points="15,-345 162,-345 "/>
<text text-anchor="middle" x="88" y="-327.9" style="font-family:Times New Roman;font-size:14.00;">router</text>
<polyline style="fill:none;stroke:black;" points="15,-320 162,-320 "/>
<text text-anchor="middle" x="88" y="-302.9" style="font-family:Times New Roman;font-size:14.00;">unknown interface</text>
</g>
<!-- internet -->
<g id="node3" class="node"><title>internet</title>
<image xlink:href="icons/globe.png" width="54px" height="54px" preserveAspectRatio="xMinYMin meet" x="61" y="-269"/>
<text text-anchor="middle" x="88" y="-214.4" style="font-family:Times New Roman;font-size:14.00;">Internet</text>
</g>
<!-- node3 -->
<g id="node4" class="node"><title>node3</title>
<polygon style="fill:none;stroke:black;" points="15,-113 15,-188 162,-188 162,-113 15,-113"/>
<text text-anchor="middle" x="88" y="-170.9" style="font-family:Times New Roman;font-size:14.00;">unknown interface</text>
<polyline style="fill:none;stroke:black;" points="15,-163 162,-163 "/>
<text text-anchor="middle" x="88" y="-145.9" style="font-family:Times New Roman;font-size:14.00;">router</text>
<polyline style="fill:none;stroke:black;" points="15,-138 162,-138 "/>
<text text-anchor="middle" x="88" y="-120.9" style="font-family:Times New Roman;font-size:14.00;">17.120.138.1</text>
</g>
<!-- node4 -->
<g id="node5" class="node"><title>node4</title>
<polygon style="fill:none;stroke:black;" points="0,-8 0,-83 176,-83 176,-8 0,-8"/>
<text text-anchor="middle" x="88" y="-65.9" style="font-family:Times New Roman;font-size:14.00;">17.120.138.134</text>
<polyline style="fill:none;stroke:black;" points="0,-58 176,-58 "/>
<text text-anchor="middle" x="88" y="-40.9" style="font-family:Times New Roman;font-size:14.00;">right gateway machine</text>
<polyline style="fill:none;stroke:black;" points="0,-33 176,-33 "/>
<text text-anchor="middle" x="88" y="-15.9" style="font-family:Times New Roman;font-size:14.00;">192.168.0.0/24</text>
</g>
<!-- rightnexthop -->
<g id="node16" class="node"><title>rightnexthop</title>
<ellipse style="fill:none;stroke:black;" cx="286" cy="-126" rx="73.1565" ry="18"/>
<text text-anchor="middle" x="286" y="-121.9" style="font-family:Times New Roman;font-size:14.00;">rightnexthop</text>
</g>
<!-- node3&#45;&#45;rightnexthop -->
<g id="edge15" class="edge"><title>node3&#45;&#45;rightnexthop</title>
<path style="fill:none;stroke:black;" d="M162,-126C179,-126 196,-126 212,-126"/>
</g>
<!-- right -->
<g id="node18" class="node"><title>right</title>
<ellipse style="fill:none;stroke:black;" cx="286" cy="-72" rx="34.0492" ry="18"/>
<text text-anchor="middle" x="286" y="-67.9" style="font-family:Times New Roman;font-size:14.00;">right</text>
</g>
<!-- node4&#45;&#45;right -->
<g id="edge17" class="edge"><title>node4&#45;&#45;right</title>
<path style="fill:none;stroke:black;" d="M176,-71C203,-71 231,-71 252,-72"/>
</g>
<!-- rightsubnet -->
<g id="node20" class="node"><title>rightsubnet</title>
<ellipse style="fill:none;stroke:black;" cx="286" cy="-18" rx="66.2071" ry="18"/>
<text text-anchor="middle" x="286" y="-13.9" style="font-family:Times New Roman;font-size:14.00;">rightsubnet</text>
</g>
<!-- node4&#45;&#45;rightsubnet -->
<g id="edge19" class="edge"><title>node4&#45;&#45;rightsubnet</title>
<path style="fill:none;stroke:black;" d="M176,-20C191,-20 205,-19 219,-19"/>
</g>
<!-- leftsubnet -->
<g id="node9" class="node"><title>leftsubnet</title>
<ellipse style="fill:none;stroke:black;" cx="286" cy="-465" rx="59.7599" ry="18"/>
<text text-anchor="middle" x="286" y="-460.9" style="font-family:Times New Roman;font-size:14.00;">leftsubnet</text>
</g>
<!-- leftsubnet&#45;&#45;node1 -->
<g id="edge9" class="edge"><title>leftsubnet&#45;&#45;node1</title>
<path style="fill:none;stroke:black;" d="M226,-464C209,-464 189,-464 171,-464"/>
</g>
<!-- left -->
<g id="node11" class="node"><title>left</title>
<ellipse style="fill:none;stroke:black;" cx="286" cy="-411" rx="27.1004" ry="18"/>
<text text-anchor="middle" x="286" y="-406.9" style="font-family:Times New Roman;font-size:14.00;">left</text>
</g>
<!-- left&#45;&#45;node1 -->
<g id="edge11" class="edge"><title>left&#45;&#45;node1</title>
<path style="fill:none;stroke:black;" d="M259,-411C236,-412 202,-412 171,-413"/>
</g>
<!-- leftnexthop -->
<g id="node13" class="node"><title>leftnexthop</title>
<ellipse style="fill:none;stroke:black;" cx="286" cy="-357" rx="66.2071" ry="18"/>
<text text-anchor="middle" x="286" y="-352.9" style="font-family:Times New Roman;font-size:14.00;">leftnexthop</text>
</g>
<!-- leftnexthop&#45;&#45;node2 -->
<g id="edge13" class="edge"><title>leftnexthop&#45;&#45;node2</title>
<path style="fill:none;stroke:black;" d="M219,-357C201,-357 181,-357 162,-357"/>
</g>
</g>
</svg>
