<?xml version="1.0" encoding="UTF-8" standalone="no"?>
<!DOCTYPE svg PUBLIC "-//W3C//DTD SVG 1.0//EN"
 "http://www.w3.org/TR/2001/REC-SVG-20010904/DTD/svg10.dtd" [
 <!ATTLIST svg xmlns:xlink CDATA #FIXED "http://www.w3.org/1999/xlink">
]>
<!-- Generated by Graphviz version 2.20.2 (Tue Mar &#160;2 21:46:26 UTC 2010)
     For user: (joost) Joost Helberg,,, -->
<!-- Title: G Pages: 1 -->
<svg width="254pt" height="224pt"
 viewBox="0.00 0.00 254.00 224.00" xmlns="http://www.w3.org/2000/svg" xmlns:xlink="http://www.w3.org/1999/xlink">
<g id="graph0" class="graph" transform="scale(1 1) rotate(0) translate(4 220)">
<title>G</title>
<polygon style="fill:white;stroke:white;" points="-4,4 -4,-220 250,-220 250,4 -4,4"/>
<!-- romeo -->
<g id="node2" class="node"><title>romeo</title>
<polygon style="fill:none;stroke:black;" points="159,-72 159,-108 219,-108 219,-72 159,-72"/>
<text text-anchor="middle" x="189" y="-91.4" style="font-family:Times New Roman;font-size:14.00;">romeo</text>
</g>
<!-- 172.16.1.0/24 -->
<g id="node7" class="node"><title>172.16.1.0/24</title>
<polygon style="fill:none;stroke:black;" points="132,-0 132,-36 247,-36 247,-0 132,-0"/>
<text text-anchor="middle" x="189" y="-19.4" style="font-family:Times New Roman;font-size:14.00;">172.16.1.0/24</text>
</g>
<!-- romeo&#45;&gt;172.16.1.0/24 -->
<g id="edge5" class="edge"><title>romeo&#45;&gt;172.16.1.0/24</title>
<path style="fill:none;stroke:black;" d="M189,-72C189,-61 189,-47 189,-36"/>
</g>
<!-- juliet -->
<g id="node3" class="node"><title>juliet</title>
<polygon style="fill:none;stroke:black;" points="30,-72 30,-108 84,-108 84,-72 30,-72"/>
<text text-anchor="middle" x="57" y="-91.4" style="font-family:Times New Roman;font-size:14.00;">juliet</text>
</g>
<!-- juliet&#45;&gt;romeo -->
<g id="edge7" class="edge"><title>juliet&#45;&gt;romeo</title>
<path style="fill:none;stroke:black;" d="M84,-90C109,-90 134,-90 159,-90"/>
</g>
<!-- 172.16.3.0/24 -->
<g id="node10" class="node"><title>172.16.3.0/24</title>
<polygon style="fill:none;stroke:black;" points="0,-0 0,-36 115,-36 115,-0 0,-0"/>
<text text-anchor="middle" x="57" y="-19.4" style="font-family:Times New Roman;font-size:14.00;">172.16.3.0/24</text>
</g>
<!-- juliet&#45;&gt;172.16.3.0/24 -->
<g id="edge9" class="edge"><title>juliet&#45;&gt;172.16.3.0/24</title>
<path style="fill:none;stroke:black;" d="M57,-72C57,-61 57,-47 57,-36"/>
</g>
<!-- internet -->
<g id="node4" class="node"><title>internet</title>
<image xlink:href="icons/globe.png" width="54px" height="54px" preserveAspectRatio="xMinYMin meet" x="162" y="-207"/>
<text text-anchor="middle" x="189" y="-152.4" style="font-family:Times New Roman;font-size:14.00;">Internet</text>
</g>
<!-- internet&#45;&gt;romeo -->
<g id="edge3" class="edge"><title>internet&#45;&gt;romeo</title>
<path style="fill:none;stroke:black;" d="M189,-144C189,-132 189,-118 189,-108"/>
</g>
</g>
</svg>
