<?xml version="1.0" encoding="UTF-8" standalone="no"?>
<!DOCTYPE svg PUBLIC "-//W3C//DTD SVG 1.1//EN"
 "http://www.w3.org/Graphics/SVG/1.1/DTD/svg11.dtd">
<!-- Generated by graphviz version 2.40.1 (20161225.0304)
 -->
<!-- Title: G Pages: 1 -->
<svg width="522pt" height="315pt"
 viewBox="0.00 0.00 522.00 315.00" xmlns="http://www.w3.org/2000/svg" xmlns:xlink="http://www.w3.org/1999/xlink">
<g id="graph0" class="graph" transform="scale(1 1) rotate(0) translate(4 311)">
<title>G</title>
<polygon fill="#ffffff" stroke="transparent" points="-4,4 -4,-311 518,-311 518,4 -4,4"/>
<!-- liongate -->
<g id="node1" class="node">
<title>liongate</title>
<polygon fill="none" stroke="#000000" points="90,-142 90,-211 192,-211 192,-142 90,-142"/>
<text text-anchor="middle" x="141" y="-195.8" font-family="Times,serif" font-size="14.00" fill="#000000">224.123.240.10</text>
<polyline fill="none" stroke="#000000" points="90,-188 192,-188 "/>
<text text-anchor="middle" x="141" y="-172.8" font-family="Times,serif" font-size="14.00" fill="#000000">liongate</text>
<polyline fill="none" stroke="#000000" points="90,-165 192,-165 "/>
<text text-anchor="middle" x="141" y="-149.8" font-family="Times,serif" font-size="14.00" fill="#000000">192.168.72.1</text>
</g>
<!-- LAN -->
<g id="node7" class="node">
<title>LAN</title>
<polygon fill="none" stroke="#000000" points="228,-130.5 228,-176.5 334,-176.5 334,-130.5 228,-130.5"/>
<text text-anchor="middle" x="281" y="-161.3" font-family="Times,serif" font-size="14.00" fill="#000000">LAN</text>
<polyline fill="none" stroke="#000000" points="228,-153.5 334,-153.5 "/>
<text text-anchor="middle" x="281" y="-138.3" font-family="Times,serif" font-size="14.00" fill="#000000">192.168.72.0/24</text>
</g>
<!-- liongate&#45;&gt;LAN -->
<g id="edge2" class="edge">
<title>liongate:f2&#45;&gt;LAN</title>
<path fill="none" stroke="#000000" d="M192,-153.5C203.5885,-153.5 216.0259,-153.5 227.82,-153.5"/>
</g>
<!-- laptop1 -->
<g id="node2" class="node">
<title>laptop1</title>
<polygon fill="none" stroke="#000000" points="370,-260.5 370,-306.5 514,-306.5 514,-260.5 370,-260.5"/>
<text text-anchor="middle" x="442" y="-291.3" font-family="Times,serif" font-size="14.00" fill="#000000">laptop_1</text>
<polyline fill="none" stroke="#000000" points="370,-283.5 514,-283.5 "/>
<text text-anchor="middle" x="442" y="-268.3" font-family="Times,serif" font-size="14.00" fill="#000000">192.168.72.128</text>
</g>
<!-- laptop2 -->
<g id="node3" class="node">
<title>laptop2</title>
<polygon fill="none" stroke="#000000" points="370,-195.5 370,-241.5 514,-241.5 514,-195.5 370,-195.5"/>
<text text-anchor="middle" x="442" y="-226.3" font-family="Times,serif" font-size="14.00" fill="#000000">laptop_2</text>
<polyline fill="none" stroke="#000000" points="370,-218.5 514,-218.5 "/>
<text text-anchor="middle" x="442" y="-203.3" font-family="Times,serif" font-size="14.00" fill="#000000">192.168.72.129</text>
</g>
<!-- develop -->
<g id="node4" class="node">
<title>develop</title>
<polygon fill="none" stroke="#000000" points="370,-130.5 370,-176.5 514,-176.5 514,-130.5 370,-130.5"/>
<text text-anchor="middle" x="442" y="-161.3" font-family="Times,serif" font-size="14.00" fill="#000000">develop</text>
<polyline fill="none" stroke="#000000" points="370,-153.5 514,-153.5 "/>
<text text-anchor="middle" x="442" y="-138.3" font-family="Times,serif" font-size="14.00" fill="#000000">192.168.72.3</text>
</g>
<!-- unstable -->
<g id="node5" class="node">
<title>unstable</title>
<polygon fill="none" stroke="#000000" points="370,-65.5 370,-111.5 514,-111.5 514,-65.5 370,-65.5"/>
<text text-anchor="middle" x="442" y="-96.3" font-family="Times,serif" font-size="14.00" fill="#000000">unstable</text>
<polyline fill="none" stroke="#000000" points="370,-88.5 514,-88.5 "/>
<text text-anchor="middle" x="442" y="-73.3" font-family="Times,serif" font-size="14.00" fill="#000000">192.168.72.4</text>
</g>
<!-- privdns -->
<g id="node6" class="node">
<title>privdns</title>
<polygon fill="none" stroke="#000000" points="370,-.5 370,-46.5 514,-46.5 514,-.5 370,-.5"/>
<text text-anchor="middle" x="442" y="-31.3" font-family="Times,serif" font-size="14.00" fill="#000000">privdns</text>
<polyline fill="none" stroke="#000000" points="370,-23.5 514,-23.5 "/>
<text text-anchor="middle" x="442" y="-8.3" font-family="Times,serif" font-size="14.00" fill="#000000">192.168.72.2</text>
</g>
<!-- LAN&#45;&gt;laptop1 -->
<g id="edge3" class="edge">
<title>LAN&#45;&gt;laptop1</title>
<path fill="none" stroke="#000000" d="M297.5152,-176.6492C313.9074,-198.2925 340.7559,-230.3627 370,-251.5 374.4345,-254.7052 379.241,-257.69 384.1951,-260.4451"/>
</g>
<!-- LAN&#45;&gt;laptop2 -->
<g id="edge4" class="edge">
<title>LAN&#45;&gt;laptop2</title>
<path fill="none" stroke="#000000" d="M334.1636,-174.9636C350.4672,-181.5458 368.4683,-188.8133 385.0162,-195.4941"/>
</g>
<!-- LAN&#45;&gt;develop -->
<g id="edge5" class="edge">
<title>LAN&#45;&gt;develop</title>
<path fill="none" stroke="#000000" d="M334.1636,-153.5C345.6128,-153.5 357.8991,-153.5 369.9313,-153.5"/>
</g>
<!-- LAN&#45;&gt;unstable -->
<g id="edge6" class="edge">
<title>LAN&#45;&gt;unstable</title>
<path fill="none" stroke="#000000" d="M334.1636,-132.0364C350.4672,-125.4542 368.4683,-118.1867 385.0162,-111.5059"/>
</g>
<!-- LAN&#45;&gt;privdns -->
<g id="edge7" class="edge">
<title>LAN&#45;&gt;privdns</title>
<path fill="none" stroke="#000000" d="M297.5152,-130.3508C313.9074,-108.7075 340.7559,-76.6373 370,-55.5 374.4345,-52.2948 379.241,-49.31 384.1951,-46.5549"/>
</g>
<!-- internet -->
<g id="node8" class="node">
<title>internet</title>
<image xlink:href="icons/globe.png" width="54px" height="54px" preserveAspectRatio="xMinYMin meet" x="0" y="-226.5"/>
<text text-anchor="middle" x="27" y="-167.3" font-family="Times,serif" font-size="14.00" fill="#000000">Internet</text>
</g>
<!-- internet&#45;&gt;liongate -->
<g id="edge1" class="edge">
<title>internet&#45;&gt;liongate:f0</title>
<path fill="none" stroke="#000000" d="M54.2887,-199.5C65.3709,-199.5 78.2969,-199.5 90,-199.5"/>
</g>
</g>
</svg>
