<?xml version="1.0" encoding="UTF-8" standalone="no"?>
<!DOCTYPE svg PUBLIC "-//W3C//DTD SVG 1.0//EN"
 "http://www.w3.org/TR/2001/REC-SVG-20010904/DTD/svg10.dtd" [
 <!ATTLIST svg xmlns:xlink CDATA #FIXED "http://www.w3.org/1999/xlink">
]>
<!-- Generated by Graphviz version 2.20.2 (Tue Mar &#160;2 21:46:26 UTC 2010)
     For user: (joost) Joost Helberg,,, -->
<!-- Title: G Pages: 1 -->
<svg width="1046pt" height="173pt"
 viewBox="0.00 0.00 1046.00 173.00" xmlns="http://www.w3.org/2000/svg" xmlns:xlink="http://www.w3.org/1999/xlink">
<g id="graph0" class="graph" transform="scale(1 1) rotate(0) translate(4 169)">
<title>G</title>
<polygon style="fill:white;stroke:white;" points="-4,4 -4,-169 1042,-169 1042,4 -4,4"/>
<g id="cluster2" class="cluster"><title>cluster_0</title>
<polygon style="fill:none;stroke:black;" points="171,-16 171,-157 455,-157 455,-16 171,-16"/>
<text text-anchor="middle" x="313" y="-140.9" style="font-family:Times New Roman;font-size:14.00;">Client</text>
</g>
<g id="cluster3" class="cluster"><title>cluster_1</title>
<polygon style="fill:none;stroke:black;" points="475,-16 475,-157 867,-157 867,-16 475,-16"/>
<text text-anchor="middle" x="671" y="-140.9" style="font-family:Times New Roman;font-size:14.00;">Server (Apache with mod_ssl)</text>
</g>
<!-- client -->
<g id="node2" class="node"><title>client</title>
<polygon style="fill:none;stroke:black;" points="179,-24 179,-124 447,-124 447,-24 179,-24"/>
<text text-anchor="middle" x="313" y="-106.9" style="font-family:Times New Roman;font-size:14.00;">ask for public key</text>
<polyline style="fill:none;stroke:black;" points="179,-99 447,-99 "/>
<text text-anchor="middle" x="313" y="-81.9" style="font-family:Times New Roman;font-size:14.00;">receive key				</text>
<polyline style="fill:none;stroke:black;" points="179,-74 447,-74 "/>
<text text-anchor="middle" x="313" y="-56.9" style="font-family:Times New Roman;font-size:14.00;">verify if key is signed by CA		</text>
<polyline style="fill:none;stroke:black;" points="179,-49 447,-49 "/>
<text text-anchor="middle" x="313" y="-31.9" style="font-family:Times New Roman;font-size:14.00;">encrypt message with public key</text>
</g>
<!-- client&#45;&gt;client -->
<g id="edge10" class="edge"><title>client&#45;&gt;client</title>
<path style="fill:none;stroke:black;" d="M179,-86C120,-95 0,-95 0,-74 0,-54 107,-53 169,-61"/>
<polygon style="fill:black;stroke:black;" points="168.701,-64.4875 179,-62 169.398,-57.5222 168.701,-64.4875"/>
</g>
<!-- client&#45;&gt;client -->
<g id="edge11" class="edge"><title>client&#45;&gt;client</title>
<path style="fill:none;stroke:black;" d="M179,-62C120,-71 0,-71 0,-50 0,-29 107,-28 169,-36"/>
<polygon style="fill:black;stroke:black;" points="168.701,-39.4875 179,-37 169.398,-32.5222 168.701,-39.4875"/>
</g>
<!-- server -->
<g id="node4" class="node"><title>server</title>
<polygon style="fill:none;stroke:black;" points="483,-24 483,-124 859,-124 859,-24 483,-24"/>
<text text-anchor="middle" x="671" y="-106.9" style="font-family:Times New Roman;font-size:14.00;">listens			</text>
<polyline style="fill:none;stroke:black;" points="483,-99 859,-99 "/>
<text text-anchor="middle" x="671" y="-81.9" style="font-family:Times New Roman;font-size:14.00;">send (signed) public key	</text>
<polyline style="fill:none;stroke:black;" points="483,-74 859,-74 "/>
<text text-anchor="middle" x="671" y="-56.9" style="font-family:Times New Roman;font-size:14.00;">										</text>
<polyline style="fill:none;stroke:black;" points="483,-49 859,-49 "/>
<text text-anchor="middle" x="671" y="-31.9" style="font-family:Times New Roman;font-size:14.00;">decrypt message with private key</text>
</g>
<!-- client&#45;&gt;server -->
<g id="edge4" class="edge"><title>client&#45;&gt;server</title>
<path style="fill:none;stroke:black;" d="M447,-111C456,-111 464,-111 473,-111"/>
<polygon style="fill:black;stroke:black;" points="473,-114.5 483,-111 473,-107.5 473,-114.5"/>
</g>
<!-- client&#45;&gt;server -->
<g id="edge13" class="edge"><title>client&#45;&gt;server</title>
<path style="fill:none;stroke:black;" d="M447,-37C456,-37 464,-37 473,-37"/>
<polygon style="fill:black;stroke:black;" points="473,-40.5001 483,-37 473,-33.5001 473,-40.5001"/>
</g>
<!-- server&#45;&gt;client -->
<g id="edge8" class="edge"><title>server&#45;&gt;client</title>
<path style="fill:none;stroke:black;" d="M483,-86C474,-86 466,-86 457,-86"/>
<polygon style="fill:black;stroke:black;" points="457,-82.5001 447,-86 457,-89.5001 457,-82.5001"/>
</g>
<!-- server&#45;&gt;server -->
<g id="edge6" class="edge"><title>server&#45;&gt;server</title>
<path style="fill:none;stroke:black;" d="M859,-111C918,-120 1038,-120 1038,-98 1038,-78 931,-77 869,-85"/>
<polygon style="fill:black;stroke:black;" points="868.602,-81.5222 859,-86 869.299,-88.4875 868.602,-81.5222"/>
</g>
</g>
</svg>
