<?xml version="1.0" encoding="UTF-8" standalone="no"?>
<!DOCTYPE svg PUBLIC "-//W3C//DTD SVG 1.1//EN"
 "http://www.w3.org/Graphics/SVG/1.1/DTD/svg11.dtd">
<!-- Generated by graphviz version 2.40.1 (20161225.0304)
 -->
<!-- Title: G Pages: 1 -->
<svg width="643pt" height="264pt"
 viewBox="0.00 0.00 642.50 264.00" xmlns="http://www.w3.org/2000/svg" xmlns:xlink="http://www.w3.org/1999/xlink">
<g id="graph0" class="graph" transform="scale(1 1) rotate(0) translate(4 260)">
<title>G</title>
<polygon fill="#ffffff" stroke="transparent" points="-4,4 -4,-260 638.5,-260 638.5,4 -4,4"/>
<!-- sambaclient -->
<g id="node1" class="node">
<title>sambaclient</title>
<polygon fill="none" stroke="#000000" points="347.5,-219.5 347.5,-255.5 429.5,-255.5 429.5,-219.5 347.5,-219.5"/>
<text text-anchor="middle" x="388.5" y="-233.8" font-family="Times,serif" font-size="14.00" fill="#000000">sambaclient</text>
</g>
<!-- lan -->
<g id="node2" class="node">
<title>lan</title>
<polygon fill="none" stroke="#000000" points="317,-146.5 317,-182.5 460,-182.5 460,-146.5 317,-146.5"/>
<text text-anchor="middle" x="339" y="-160.8" font-family="Times,serif" font-size="14.00" fill="#000000">LAN</text>
<polyline fill="none" stroke="#000000" points="361,-146.5 361,-182.5 "/>
<text text-anchor="middle" x="410.5" y="-160.8" font-family="Times,serif" font-size="14.00" fill="#000000">192.168.2.0/24</text>
</g>
<!-- sambaclient&#45;&gt;lan -->
<g id="edge1" class="edge">
<title>sambaclient&#45;&gt;lan</title>
<path fill="none" stroke="#000000" d="M388.5,-219.4551C388.5,-208.2241 388.5,-193.8298 388.5,-182.5904"/>
</g>
<!-- sambaserver -->
<g id="node3" class="node">
<title>sambaserver</title>
<polygon fill="none" stroke="#000000" points="227,-73.5 227,-109.5 312,-109.5 312,-73.5 227,-73.5"/>
<text text-anchor="middle" x="269.5" y="-87.8" font-family="Times,serif" font-size="14.00" fill="#000000">sambaserver</text>
</g>
<!-- lan&#45;&gt;sambaserver -->
<g id="edge2" class="edge">
<title>lan&#45;&gt;sambaserver</title>
<path fill="none" stroke="#000000" d="M359.0843,-146.4551C340.7763,-135.2241 317.3116,-120.8298 298.9898,-109.5904"/>
</g>
<!-- windows -->
<g id="node4" class="node">
<title>windows</title>
<polygon fill="none" stroke="#000000" points="476,-73.5 476,-109.5 541,-109.5 541,-73.5 476,-73.5"/>
<text text-anchor="middle" x="508.5" y="-87.8" font-family="Times,serif" font-size="14.00" fill="#000000">windows</text>
</g>
<!-- lan&#45;&gt;windows -->
<g id="edge3" class="edge">
<title>lan&#45;&gt;windows</title>
<path fill="none" stroke="#000000" d="M418.1629,-146.4551C436.6247,-135.2241 460.2867,-120.8298 478.7624,-109.5904"/>
</g>
<!-- Printer_1 -->
<g id="node5" class="node">
<title>Printer_1</title>
<polygon fill="none" stroke="#000000" points="0,-.5 0,-36.5 67,-36.5 67,-.5 0,-.5"/>
<text text-anchor="middle" x="33.5" y="-14.8" font-family="Times,serif" font-size="14.00" fill="#000000">Printer_1</text>
</g>
<!-- sambaserver&#45;&gt;Printer_1 -->
<g id="edge4" class="edge">
<title>sambaserver&#45;&gt;Printer_1</title>
<path fill="none" stroke="#000000" d="M226.9542,-81.3885C187.2835,-71.5292 126.7064,-55.3668 75.5,-37 72.8001,-36.0316 70.0289,-34.9697 67.26,-33.8598"/>
</g>
<!-- Printer_2 -->
<g id="node6" class="node">
<title>Printer_2</title>
<polygon fill="none" stroke="#000000" points="85,-.5 85,-36.5 152,-36.5 152,-.5 85,-.5"/>
<text text-anchor="middle" x="118.5" y="-14.8" font-family="Times,serif" font-size="14.00" fill="#000000">Printer_2</text>
</g>
<!-- sambaserver&#45;&gt;Printer_2 -->
<g id="edge5" class="edge">
<title>sambaserver&#45;&gt;Printer_2</title>
<path fill="none" stroke="#000000" d="M232.1741,-73.4551C207.6331,-61.5908 175.7896,-46.1963 152.0513,-34.7202"/>
</g>
<!-- share1 -->
<g id="node7" class="node">
<title>share1</title>
<polygon fill="none" stroke="#000000" points="170.5,-.5 170.5,-36.5 224.5,-36.5 224.5,-.5 170.5,-.5"/>
<text text-anchor="middle" x="197.5" y="-14.8" font-family="Times,serif" font-size="14.00" fill="#000000">share1</text>
</g>
<!-- sambaserver&#45;&gt;share1 -->
<g id="edge6" class="edge">
<title>sambaserver&#45;&gt;share1</title>
<path fill="none" stroke="#000000" d="M251.7022,-73.4551C240.6252,-62.2241 226.428,-47.8298 215.3425,-36.5904"/>
</g>
<!-- share2 -->
<g id="node8" class="node">
<title>share2</title>
<polygon fill="none" stroke="#000000" points="242.5,-.5 242.5,-36.5 296.5,-36.5 296.5,-.5 242.5,-.5"/>
<text text-anchor="middle" x="269.5" y="-14.8" font-family="Times,serif" font-size="14.00" fill="#000000">share2</text>
</g>
<!-- sambaserver&#45;&gt;share2 -->
<g id="edge7" class="edge">
<title>sambaserver&#45;&gt;share2</title>
<path fill="none" stroke="#000000" d="M269.5,-73.4551C269.5,-62.2241 269.5,-47.8298 269.5,-36.5904"/>
</g>
<!-- public -->
<g id="node9" class="node">
<title>public</title>
<polygon fill="none" stroke="#000000" points="314.5,-.5 314.5,-36.5 368.5,-36.5 368.5,-.5 314.5,-.5"/>
<text text-anchor="middle" x="341.5" y="-14.8" font-family="Times,serif" font-size="14.00" fill="#000000">public</text>
</g>
<!-- sambaserver&#45;&gt;public -->
<g id="edge8" class="edge">
<title>sambaserver&#45;&gt;public</title>
<path fill="none" stroke="#000000" d="M287.2978,-73.4551C298.3748,-62.2241 312.572,-47.8298 323.6575,-36.5904"/>
</g>
<!-- homedirs -->
<g id="node10" class="node">
<title>homedirs</title>
<polygon fill="none" stroke="#000000" points="386.5,-.5 386.5,-36.5 454.5,-36.5 454.5,-.5 386.5,-.5"/>
<text text-anchor="middle" x="420.5" y="-14.8" font-family="Times,serif" font-size="14.00" fill="#000000">homedirs</text>
</g>
<!-- sambaserver&#45;&gt;homedirs -->
<g id="edge9" class="edge">
<title>sambaserver&#45;&gt;homedirs</title>
<path fill="none" stroke="#000000" d="M306.8259,-73.4551C331.1923,-61.6753 362.7575,-46.4153 386.4406,-34.9658"/>
</g>
<!-- winshare1 -->
<g id="node11" class="node">
<title>winshare1</title>
<polygon fill="none" stroke="#000000" points="472.5,-.5 472.5,-36.5 544.5,-36.5 544.5,-.5 472.5,-.5"/>
<text text-anchor="middle" x="508.5" y="-14.8" font-family="Times,serif" font-size="14.00" fill="#000000">winshare1</text>
</g>
<!-- windows&#45;&gt;winshare1 -->
<g id="edge10" class="edge">
<title>windows&#45;&gt;winshare1</title>
<path fill="none" stroke="#000000" d="M508.5,-73.4551C508.5,-62.2241 508.5,-47.8298 508.5,-36.5904"/>
</g>
<!-- winshare2 -->
<g id="node12" class="node">
<title>winshare2</title>
<polygon fill="none" stroke="#000000" points="562.5,-.5 562.5,-36.5 634.5,-36.5 634.5,-.5 562.5,-.5"/>
<text text-anchor="middle" x="598.5" y="-14.8" font-family="Times,serif" font-size="14.00" fill="#000000">winshare2</text>
</g>
<!-- windows&#45;&gt;winshare2 -->
<g id="edge11" class="edge">
<title>windows&#45;&gt;winshare2</title>
<path fill="none" stroke="#000000" d="M530.7472,-73.4551C544.5935,-62.2241 562.34,-47.8298 576.1968,-36.5904"/>
</g>
</g>
</svg>
