<?xml version="1.0" encoding="UTF-8" standalone="no"?>
<!DOCTYPE svg PUBLIC "-//W3C//DTD SVG 1.0//EN"
 "http://www.w3.org/TR/2001/REC-SVG-20010904/DTD/svg10.dtd" [
 <!ATTLIST svg xmlns:xlink CDATA #FIXED "http://www.w3.org/1999/xlink">
]>
<!-- Generated by Graphviz version 2.20.2 (Tue Mar &#160;2 21:46:26 UTC 2010)
     For user: (joost) Joost Helberg,,, -->
<!-- Title: G Pages: 1 -->
<svg width="742pt" height="260pt"
 viewBox="0.00 0.00 742.00 260.00" xmlns="http://www.w3.org/2000/svg" xmlns:xlink="http://www.w3.org/1999/xlink">
<g id="graph0" class="graph" transform="scale(1 1) rotate(0) translate(4 256)">
<title>G</title>
<polygon style="fill:white;stroke:white;" points="-4,4 -4,-256 738,-256 738,4 -4,4"/>
<!-- MegaFix -->
<g id="node1" class="node"><title>MegaFix</title>
<polygon style="fill:none;stroke:black;" points="397,-252 325,-252 325,-216 397,-216 397,-252"/>
<text text-anchor="middle" x="361" y="-229.9" style="font-family:Times New Roman;font-size:14.00;">MegaFix</text>
</g>
<!-- Sales -->
<g id="node3" class="node"><title>Sales</title>
<polygon style="fill:none;stroke:black;" points="294,-180 240,-180 240,-144 294,-144 294,-180"/>
<text text-anchor="middle" x="267" y="-157.9" style="font-family:Times New Roman;font-size:14.00;">Sales</text>
</g>
<!-- MegaFix&#45;&gt;Sales -->
<g id="edge2" class="edge"><title>MegaFix&#45;&gt;Sales</title>
<path style="fill:none;stroke:black;" d="M337,-216C323,-205 304,-191 290,-180"/>
</g>
<!-- Engineering -->
<g id="node5" class="node"><title>Engineering</title>
<polygon style="fill:none;stroke:black;" points="410,-180 312,-180 312,-144 410,-144 410,-180"/>
<text text-anchor="middle" x="361" y="-157.9" style="font-family:Times New Roman;font-size:14.00;">Engineering</text>
</g>
<!-- MegaFix&#45;&gt;Engineering -->
<g id="edge4" class="edge"><title>MegaFix&#45;&gt;Engineering</title>
<path style="fill:none;stroke:black;" d="M361,-216C361,-205 361,-191 361,-180"/>
</g>
<!-- Administration -->
<g id="node7" class="node"><title>Administration</title>
<polygon style="fill:none;stroke:black;" points="544,-180 428,-180 428,-144 544,-144 544,-180"/>
<text text-anchor="middle" x="486" y="-157.9" style="font-family:Times New Roman;font-size:14.00;">Administration</text>
</g>
<!-- MegaFix&#45;&gt;Administration -->
<g id="edge6" class="edge"><title>MegaFix&#45;&gt;Administration</title>
<path style="fill:none;stroke:black;" d="M393,-216C412,-205 436,-191 455,-180"/>
</g>
<!-- London -->
<g id="node9" class="node"><title>London</title>
<polygon style="fill:none;stroke:black;" points="196,-108 130,-108 130,-72 196,-72 196,-108"/>
<text text-anchor="middle" x="163" y="-85.9" style="font-family:Times New Roman;font-size:14.00;">London</text>
</g>
<!-- Engineering&#45;&gt;London -->
<g id="edge8" class="edge"><title>Engineering&#45;&gt;London</title>
<path style="fill:none;stroke:black;" d="M312,-144C276,-131 228,-114 196,-102"/>
</g>
<!-- Paris -->
<g id="node11" class="node"><title>Paris</title>
<polygon style="fill:none;stroke:black;" points="336,-108 282,-108 282,-72 336,-72 336,-108"/>
<text text-anchor="middle" x="309" y="-85.9" style="font-family:Times New Roman;font-size:14.00;">Paris</text>
</g>
<!-- Engineering&#45;&gt;Paris -->
<g id="edge10" class="edge"><title>Engineering&#45;&gt;Paris</title>
<path style="fill:none;stroke:black;" d="M348,-144C340,-133 330,-119 322,-108"/>
</g>
<!-- Rome -->
<g id="node13" class="node"><title>Rome</title>
<polygon style="fill:none;stroke:black;" points="440,-108 386,-108 386,-72 440,-72 440,-108"/>
<text text-anchor="middle" x="413" y="-85.9" style="font-family:Times New Roman;font-size:14.00;">Rome</text>
</g>
<!-- Engineering&#45;&gt;Rome -->
<g id="edge12" class="edge"><title>Engineering&#45;&gt;Rome</title>
<path style="fill:none;stroke:black;" d="M374,-144C382,-133 392,-119 400,-108"/>
</g>
<!-- Amsterdam -->
<g id="node15" class="node"><title>Amsterdam</title>
<polygon style="fill:none;stroke:black;" points="597,-108 503,-108 503,-72 597,-72 597,-108"/>
<text text-anchor="middle" x="550" y="-85.9" style="font-family:Times New Roman;font-size:14.00;">Amsterdam</text>
</g>
<!-- Engineering&#45;&gt;Amsterdam -->
<g id="edge14" class="edge"><title>Engineering&#45;&gt;Amsterdam</title>
<path style="fill:none;stroke:black;" d="M409,-144C438,-133 474,-119 503,-108"/>
</g>
<!-- John Huges -->
<g id="node17" class="node"><title>John Huges</title>
<polygon style="fill:none;stroke:black;" points="94,-36 2.13163e-14,-36 7.10543e-15,-1.06581e-14 94,-0 94,-36"/>
<text text-anchor="middle" x="47" y="-13.9" style="font-family:Times New Roman;font-size:14.00;">John Huges</text>
</g>
<!-- London&#45;&gt;John Huges -->
<g id="edge16" class="edge"><title>London&#45;&gt;John Huges</title>
<path style="fill:none;stroke:black;" d="M134,-72C116,-61 93,-47 76,-36"/>
</g>
<!-- Peter Baines -->
<g id="node19" class="node"><title>Peter Baines</title>
<polygon style="fill:none;stroke:black;" points="214,-36 112,-36 112,-1.06581e-14 214,-0 214,-36"/>
<text text-anchor="middle" x="163" y="-13.9" style="font-family:Times New Roman;font-size:14.00;">Peter Baines</text>
</g>
<!-- London&#45;&gt;Peter Baines -->
<g id="edge18" class="edge"><title>London&#45;&gt;Peter Baines</title>
<path style="fill:none;stroke:black;" d="M163,-72C163,-61 163,-47 163,-36"/>
</g>
<!-- Linda Charteris -->
<g id="node21" class="node"><title>Linda Charteris</title>
<polygon style="fill:none;stroke:black;" points="354,-36 232,-36 232,-1.06581e-14 354,-0 354,-36"/>
<text text-anchor="middle" x="293" y="-13.9" style="font-family:Times New Roman;font-size:14.00;">Linda Charteris</text>
</g>
<!-- Paris&#45;&gt;Linda Charteris -->
<g id="edge20" class="edge"><title>Paris&#45;&gt;Linda Charteris</title>
<path style="fill:none;stroke:black;" d="M305,-72C302,-61 299,-47 297,-36"/>
</g>
<!-- Marcello Conti -->
<g id="node23" class="node"><title>Marcello Conti</title>
<polygon style="fill:none;stroke:black;" points="486,-36 372,-36 372,-1.06581e-14 486,-0 486,-36"/>
<text text-anchor="middle" x="429" y="-13.9" style="font-family:Times New Roman;font-size:14.00;">Marcello Conti</text>
</g>
<!-- Rome&#45;&gt;Marcello Conti -->
<g id="edge22" class="edge"><title>Rome&#45;&gt;Marcello Conti</title>
<path style="fill:none;stroke:black;" d="M417,-72C420,-61 423,-47 425,-36"/>
</g>
<!-- Piet Jansen -->
<g id="node25" class="node"><title>Piet Jansen</title>
<polygon style="fill:none;stroke:black;" points="596,-36 504,-36 504,-1.06581e-14 596,-0 596,-36"/>
<text text-anchor="middle" x="550" y="-13.9" style="font-family:Times New Roman;font-size:14.00;">Piet Jansen</text>
</g>
<!-- Amsterdam&#45;&gt;Piet Jansen -->
<g id="edge24" class="edge"><title>Amsterdam&#45;&gt;Piet Jansen</title>
<path style="fill:none;stroke:black;" d="M550,-72C550,-61 550,-47 550,-36"/>
</g>
<!-- Johan Klaassen -->
<g id="node27" class="node"><title>Johan Klaassen</title>
<polygon style="fill:none;stroke:black;" points="734,-36 614,-36 614,-1.06581e-14 734,-0 734,-36"/>
<text text-anchor="middle" x="674" y="-13.9" style="font-family:Times New Roman;font-size:14.00;">Johan Klaassen</text>
</g>
<!-- Amsterdam&#45;&gt;Johan Klaassen -->
<g id="edge26" class="edge"><title>Amsterdam&#45;&gt;Johan Klaassen</title>
<path style="fill:none;stroke:black;" d="M581,-72C600,-61 624,-47 643,-36"/>
</g>
</g>
</svg>
