<?xml version="1.0" encoding="UTF-8" standalone="no"?>
<!DOCTYPE svg PUBLIC "-//W3C//DTD SVG 1.1//EN"
 "http://www.w3.org/Graphics/SVG/1.1/DTD/svg11.dtd">
<!-- Generated by graphviz version 2.40.1 (20161225.0304)
 -->
<!-- Title: G Pages: 1 -->
<svg width="562pt" height="582pt"
 viewBox="0.00 0.00 562.00 581.89" xmlns="http://www.w3.org/2000/svg" xmlns:xlink="http://www.w3.org/1999/xlink">
<g id="graph0" class="graph" transform="scale(.8646 .8646) rotate(0) translate(4 669)">
<title>G</title>
<polygon fill="#ffffff" stroke="transparent" points="-4,4 -4,-669 646,-669 646,4 -4,4"/>
<g id="clust1" class="cluster">
<title>cluster_0</title>
<polygon fill="none" stroke="#000000" points="408,-245 408,-489 568,-489 568,-245 408,-245"/>
<text text-anchor="middle" x="488" y="-473.8" font-family="Times,serif" font-size="14.00" fill="#000000">PREROUTING</text>
</g>
<g id="clust2" class="cluster">
<title>cluster_1</title>
<polygon fill="none" stroke="#000000" points="408,-77 408,-153 568,-153 568,-77 408,-77"/>
<text text-anchor="middle" x="488" y="-137.8" font-family="Times,serif" font-size="14.00" fill="#000000">INPUT</text>
</g>
<g id="clust3" class="cluster">
<title>cluster_2</title>
<polygon fill="none" stroke="#000000" points="208,-497 208,-657 368,-657 368,-497 208,-497"/>
<text text-anchor="middle" x="288" y="-641.8" font-family="Times,serif" font-size="14.00" fill="#000000">FORWARD</text>
</g>
<g id="clust4" class="cluster">
<title>cluster_3</title>
<polygon fill="none" stroke="#000000" points="8,-329 8,-657 168,-657 168,-329 8,-329"/>
<text text-anchor="middle" x="88" y="-641.8" font-family="Times,serif" font-size="14.00" fill="#000000">OUTPUT</text>
</g>
<g id="clust5" class="cluster">
<title>cluster_4</title>
<polygon fill="none" stroke="#000000" points="208,-329 208,-489 368,-489 368,-329 208,-329"/>
<text text-anchor="middle" x="288" y="-473.8" font-family="Times,serif" font-size="14.00" fill="#000000">POSTROUTING</text>
</g>
<!-- CONNTRACK -->
<g id="node1" class="node">
<title>CONNTRACK</title>
<polygon fill="none" stroke="#000000" points="416,-421.5 416,-457.5 560,-457.5 560,-421.5 416,-421.5"/>
<text text-anchor="middle" x="488" y="-435.8" font-family="Times,serif" font-size="14.00" fill="#000000">CONNTRACK</text>
</g>
<!-- MANGLE -->
<g id="node2" class="node">
<title>MANGLE</title>
<polygon fill="none" stroke="#000000" points="416,-337.5 416,-373.5 560,-373.5 560,-337.5 416,-337.5"/>
<text text-anchor="middle" x="488" y="-351.8" font-family="Times,serif" font-size="14.00" fill="#000000">MANGLE</text>
</g>
<!-- CONNTRACK&#45;&gt;MANGLE -->
<g id="edge1" class="edge">
<title>CONNTRACK&#45;&gt;MANGLE</title>
<path fill="none" stroke="#000000" d="M488,-421.2733C488,-410.3758 488,-396.2946 488,-383.9587"/>
<polygon fill="#000000" stroke="#000000" points="491.5001,-383.6911 488,-373.6912 484.5001,-383.6912 491.5001,-383.6911"/>
</g>
<!-- NAT -->
<g id="node3" class="node">
<title>NAT</title>
<polygon fill="none" stroke="#000000" points="416,-253.5 416,-289.5 560,-289.5 560,-253.5 416,-253.5"/>
<text text-anchor="middle" x="488" y="-267.8" font-family="Times,serif" font-size="14.00" fill="#000000">NAT</text>
</g>
<!-- MANGLE&#45;&gt;NAT -->
<g id="edge2" class="edge">
<title>MANGLE&#45;&gt;NAT</title>
<path fill="none" stroke="#000000" d="M488,-337.2733C488,-326.3758 488,-312.2946 488,-299.9587"/>
<polygon fill="#000000" stroke="#000000" points="491.5001,-299.6911 488,-289.6912 484.5001,-299.6912 491.5001,-299.6911"/>
</g>
<!-- Routing Decision -->
<g id="node18" class="node">
<title>Routing Decision</title>
<polygon fill="none" stroke="#000000" points="416,-169.5 416,-205.5 560,-205.5 560,-169.5 416,-169.5"/>
<text text-anchor="middle" x="488" y="-183.8" font-family="Times,serif" font-size="14.00" fill="#000000">Routing Decision</text>
</g>
<!-- NAT&#45;&gt;Routing Decision -->
<g id="edge10" class="edge">
<title>NAT&#45;&gt;Routing Decision</title>
<path fill="none" stroke="#000000" d="M488,-253.2733C488,-242.3758 488,-228.2946 488,-215.9587"/>
<polygon fill="#000000" stroke="#000000" points="491.5001,-215.6911 488,-205.6912 484.5001,-215.6912 491.5001,-215.6911"/>
</g>
<!-- input_filter -->
<g id="node4" class="node">
<title>input_filter</title>
<polygon fill="none" stroke="#000000" points="416,-85.5 416,-121.5 560,-121.5 560,-85.5 416,-85.5"/>
<text text-anchor="middle" x="488" y="-99.8" font-family="Times,serif" font-size="14.00" fill="#000000">FILTER</text>
</g>
<!-- local_process -->
<g id="node13" class="node">
<title>local_process</title>
<polygon fill="none" stroke="#000000" points="462,-.5 462,-38.5 642,-38.5 642,-.5 462,-.5"/>
<text text-anchor="middle" x="488.5" y="-15.8" font-family="Times,serif" font-size="14.00" fill="#000000">RECV</text>
<polyline fill="none" stroke="#000000" points="515,-.5 515,-38.5 "/>
<text text-anchor="middle" x="552.5" y="-23.3" font-family="Times,serif" font-size="14.00" fill="#000000">LOCAL</text>
<text text-anchor="middle" x="552.5" y="-8.3" font-family="Times,serif" font-size="14.00" fill="#000000">PROCESS</text>
<polyline fill="none" stroke="#000000" points="590,-.5 590,-38.5 "/>
<text text-anchor="middle" x="616" y="-15.8" font-family="Times,serif" font-size="14.00" fill="#000000">SEND</text>
</g>
<!-- input_filter&#45;&gt;local_process -->
<g id="edge13" class="edge">
<title>input_filter&#45;&gt;local_process:f0</title>
<path fill="none" stroke="#000000" d="M488,-77.0047C488,-68.3179 488,-58.4026 488,-48.7194"/>
<polygon fill="#000000" stroke="#000000" points="491.5001,-48.5 488,-38.5 484.5001,-48.5 491.5001,-48.5"/>
</g>
<!-- forward_filter -->
<g id="node5" class="node">
<title>forward_filter</title>
<polygon fill="none" stroke="#000000" points="216,-589.5 216,-625.5 360,-625.5 360,-589.5 216,-589.5"/>
<text text-anchor="middle" x="288" y="-603.8" font-family="Times,serif" font-size="14.00" fill="#000000">FILTER</text>
</g>
<!-- forward_conntrack -->
<g id="node6" class="node">
<title>forward_conntrack</title>
<polygon fill="none" stroke="#000000" points="216,-505.5 216,-541.5 360,-541.5 360,-505.5 216,-505.5"/>
<text text-anchor="middle" x="288" y="-519.8" font-family="Times,serif" font-size="14.00" fill="#000000">CONNTRACK</text>
</g>
<!-- forward_filter&#45;&gt;forward_conntrack -->
<g id="edge3" class="edge">
<title>forward_filter&#45;&gt;forward_conntrack</title>
<path fill="none" stroke="#000000" d="M288,-589.2733C288,-578.3758 288,-564.2946 288,-551.9587"/>
<polygon fill="#000000" stroke="#000000" points="291.5001,-551.6911 288,-541.6912 284.5001,-551.6912 291.5001,-551.6911"/>
</g>
<!-- post_nat -->
<g id="node11" class="node">
<title>post_nat</title>
<polygon fill="none" stroke="#000000" points="216,-421.5 216,-457.5 360,-457.5 360,-421.5 216,-421.5"/>
<text text-anchor="middle" x="288" y="-435.8" font-family="Times,serif" font-size="14.00" fill="#000000">NAT</text>
</g>
<!-- forward_conntrack&#45;&gt;post_nat -->
<g id="edge16" class="edge">
<title>forward_conntrack&#45;&gt;post_nat</title>
<path fill="none" stroke="#000000" d="M288,-497C288,-494.9998 288,-492.9996 288,-490.9993"/>
<polygon fill="#000000" stroke="#000000" points="291.5005,-498.9989 288,-488.9991 284.5005,-498.9993 291.5005,-498.9989"/>
</g>
<!-- output_conntrack -->
<g id="node7" class="node">
<title>output_conntrack</title>
<polygon fill="none" stroke="#000000" points="16,-589.5 16,-625.5 160,-625.5 160,-589.5 16,-589.5"/>
<text text-anchor="middle" x="88" y="-603.8" font-family="Times,serif" font-size="14.00" fill="#000000">CONNTRACK</text>
</g>
<!-- output_mangle -->
<g id="node8" class="node">
<title>output_mangle</title>
<polygon fill="none" stroke="#000000" points="16,-505.5 16,-541.5 160,-541.5 160,-505.5 16,-505.5"/>
<text text-anchor="middle" x="88" y="-519.8" font-family="Times,serif" font-size="14.00" fill="#000000">MANGLE</text>
</g>
<!-- output_conntrack&#45;&gt;output_mangle -->
<g id="edge4" class="edge">
<title>output_conntrack&#45;&gt;output_mangle</title>
<path fill="none" stroke="#000000" d="M88,-589.2733C88,-578.3758 88,-564.2946 88,-551.9587"/>
<polygon fill="#000000" stroke="#000000" points="91.5001,-551.6911 88,-541.6912 84.5001,-551.6912 91.5001,-551.6911"/>
</g>
<!-- output_nat -->
<g id="node9" class="node">
<title>output_nat</title>
<polygon fill="none" stroke="#000000" points="16,-421.5 16,-457.5 160,-457.5 160,-421.5 16,-421.5"/>
<text text-anchor="middle" x="88" y="-435.8" font-family="Times,serif" font-size="14.00" fill="#000000">NAT</text>
</g>
<!-- output_mangle&#45;&gt;output_nat -->
<g id="edge5" class="edge">
<title>output_mangle&#45;&gt;output_nat</title>
<path fill="none" stroke="#000000" d="M88,-505.2733C88,-494.3758 88,-480.2946 88,-467.9587"/>
<polygon fill="#000000" stroke="#000000" points="91.5001,-467.6911 88,-457.6912 84.5001,-467.6912 91.5001,-467.6911"/>
</g>
<!-- output_filter -->
<g id="node10" class="node">
<title>output_filter</title>
<polygon fill="none" stroke="#000000" points="16,-337.5 16,-373.5 160,-373.5 160,-337.5 16,-337.5"/>
<text text-anchor="middle" x="88" y="-351.8" font-family="Times,serif" font-size="14.00" fill="#000000">FILTER</text>
</g>
<!-- output_nat&#45;&gt;output_filter -->
<g id="edge6" class="edge">
<title>output_nat&#45;&gt;output_filter</title>
<path fill="none" stroke="#000000" d="M88,-421.2733C88,-410.3758 88,-396.2946 88,-383.9587"/>
<polygon fill="#000000" stroke="#000000" points="91.5001,-383.6911 88,-373.6912 84.5001,-383.6912 91.5001,-383.6911"/>
</g>
<!-- output_filter&#45;&gt;post_nat -->
<g id="edge15" class="edge">
<title>output_filter:s&#45;&gt;post_nat</title>
<path fill="none" stroke="#000000" d="M167.9958,-340.8407C182.3757,-347.9421 186.6155,-357.0937 200.3001,-369.7736"/>
<polygon fill="#000000" stroke="#000000" points="198.1392,-372.5315 208.0024,-376.4002 202.7045,-367.2251 198.1392,-372.5315"/>
</g>
<!-- post_conntrack -->
<g id="node12" class="node">
<title>post_conntrack</title>
<polygon fill="none" stroke="#000000" points="216,-337.5 216,-373.5 360,-373.5 360,-337.5 216,-337.5"/>
<text text-anchor="middle" x="288" y="-351.8" font-family="Times,serif" font-size="14.00" fill="#000000">CONNTRACK</text>
</g>
<!-- post_nat&#45;&gt;post_conntrack -->
<g id="edge7" class="edge">
<title>post_nat&#45;&gt;post_conntrack</title>
<path fill="none" stroke="#000000" d="M288,-421.2733C288,-410.3758 288,-396.2946 288,-383.9587"/>
<polygon fill="#000000" stroke="#000000" points="291.5001,-383.6911 288,-373.6912 284.5001,-383.6912 291.5001,-383.6911"/>
</g>
<!-- NETWORK2 -->
<g id="node14" class="node">
<title>NETWORK2</title>
<polygon fill="none" stroke="#000000" points="216,-253.5 216,-289.5 360,-289.5 360,-253.5 216,-253.5"/>
<text text-anchor="middle" x="288" y="-267.8" font-family="Times,serif" font-size="14.00" fill="#000000">NETWORK</text>
</g>
<!-- post_conntrack&#45;&gt;NETWORK2 -->
<g id="edge17" class="edge">
<title>post_conntrack&#45;&gt;NETWORK2</title>
<path fill="none" stroke="#000000" d="M288,-329.0032C288,-319.761 288,-309.3537 288,-299.9587"/>
<polygon fill="#000000" stroke="#000000" points="291.5001,-299.6911 288,-289.6912 284.5001,-299.6912 291.5001,-299.6911"/>
</g>
<!-- local_process&#45;&gt;output_conntrack -->
<g id="edge14" class="edge">
<title>local_process:f2&#45;&gt;output_conntrack</title>
<path fill="none" stroke="#000000" d="M616,-38.5C616,-86.3817 449.6244,-62.4719 404,-77 311.9227,-106.3199 266.1393,-92.5774 207,-169 178.645,-205.6417 188,-225.1684 188,-271.5 188,-439.5 188,-439.5 188,-439.5 188,-482.3929 192.031,-499.5974 173.0259,-534.8067"/>
<polygon fill="#000000" stroke="#000000" points="169.9007,-533.222 167.997,-543.6444 175.9847,-536.684 169.9007,-533.222"/>
</g>
<!-- outgoing -->
<g id="node17" class="node">
<title>outgoing</title>
<ellipse fill="none" stroke="#000000" cx="288" cy="-187.5" rx="72" ry="18"/>
<text text-anchor="middle" x="288" y="-183.8" font-family="Times,serif" font-size="14.00" fill="#000000">outgoing traffic</text>
</g>
<!-- NETWORK2&#45;&gt;outgoing -->
<g id="edge18" class="edge">
<title>NETWORK2&#45;&gt;outgoing</title>
<path fill="none" stroke="#000000" d="M288,-253.2733C288,-242.3758 288,-228.2946 288,-215.9587"/>
<polygon fill="#000000" stroke="#000000" points="291.5001,-215.6911 288,-205.6912 284.5001,-215.6912 291.5001,-215.6911"/>
</g>
<!-- NETWORK -->
<g id="node15" class="node">
<title>NETWORK</title>
<polygon fill="none" stroke="#000000" points="416,-505.5 416,-541.5 560,-541.5 560,-505.5 416,-505.5"/>
<text text-anchor="middle" x="488" y="-519.8" font-family="Times,serif" font-size="14.00" fill="#000000">NETWORK</text>
</g>
<!-- NETWORK&#45;&gt;CONNTRACK -->
<g id="edge9" class="edge">
<title>NETWORK&#45;&gt;CONNTRACK</title>
<path fill="none" stroke="#000000" d="M488,-505.2733C488,-503.3491 488,-501.3256 488,-499.23"/>
<polygon fill="#000000" stroke="#000000" points="491.5001,-498.9991 488,-488.9991 484.5001,-498.9992 491.5001,-498.9991"/>
</g>
<!-- incoming -->
<g id="node16" class="node">
<title>incoming</title>
<ellipse fill="none" stroke="#000000" cx="488" cy="-607.5" rx="72" ry="18"/>
<text text-anchor="middle" x="488" y="-603.8" font-family="Times,serif" font-size="14.00" fill="#000000">incoming traffic</text>
</g>
<!-- incoming&#45;&gt;NETWORK -->
<g id="edge8" class="edge">
<title>incoming&#45;&gt;NETWORK</title>
<path fill="none" stroke="#000000" d="M488,-589.2733C488,-578.3758 488,-564.2946 488,-551.9587"/>
<polygon fill="#000000" stroke="#000000" points="491.5001,-551.6911 488,-541.6912 484.5001,-551.6912 491.5001,-551.6911"/>
</g>
<!-- Routing Decision&#45;&gt;input_filter -->
<g id="edge11" class="edge">
<title>Routing Decision&#45;&gt;input_filter</title>
<path fill="none" stroke="#000000" d="M488,-169.2733C488,-167.3491 488,-165.3256 488,-163.23"/>
<polygon fill="#000000" stroke="#000000" points="491.5001,-162.9991 488,-152.9991 484.5001,-162.9992 491.5001,-162.9991"/>
</g>
<!-- Routing Decision&#45;&gt;forward_filter -->
<g id="edge12" class="edge">
<title>Routing Decision:w&#45;&gt;forward_filter</title>
<path fill="none" stroke="#000000" d="M416,-187.5C340.3034,-187.5 388,-279.8034 388,-355.5 388,-439.5 388,-439.5 388,-439.5 388,-482.3929 392.031,-499.5974 373.0259,-534.8067"/>
<polygon fill="#000000" stroke="#000000" points="369.9007,-533.222 367.997,-543.6444 375.9847,-536.684 369.9007,-533.222"/>
</g>
</g>
</svg>
