<?xml version="1.0" encoding="UTF-8" standalone="no"?>
<!DOCTYPE svg PUBLIC "-//W3C//DTD SVG 1.1//EN"
 "http://www.w3.org/Graphics/SVG/1.1/DTD/svg11.dtd">
<!-- Generated by graphviz version 2.40.1 (20161225.0304)
 -->
<!-- Title: G Pages: 1 -->
<svg width="536pt" height="426pt"
 viewBox="0.00 0.00 535.50 426.00" xmlns="http://www.w3.org/2000/svg" xmlns:xlink="http://www.w3.org/1999/xlink">
<g id="graph0" class="graph" transform="scale(1 1) rotate(0) translate(4 422)">
<title>G</title>
<polygon fill="#ffffff" stroke="transparent" points="-4,4 -4,-422 531.5,-422 531.5,4 -4,4"/>
<!-- r1 -->
<g id="node1" class="node">
<title>r1</title>
</g>
<!-- r2 -->
<g id="node2" class="node">
<title>r2</title>
</g>
<!-- r1&#45;&gt;r2 -->
<g id="edge1" class="edge">
<title>r1&#45;&gt;r2</title>
</g>
<!-- r3 -->
<g id="node3" class="node">
<title>r3</title>
</g>
<!-- r2&#45;&gt;r3 -->
<g id="edge2" class="edge">
<title>r2&#45;&gt;r3</title>
</g>
<!-- r4 -->
<g id="node4" class="node">
<title>r4</title>
</g>
<!-- r3&#45;&gt;r4 -->
<g id="edge3" class="edge">
<title>r3&#45;&gt;r4</title>
</g>
<!-- internet -->
<g id="node5" class="node">
<title>internet</title>
<image xlink:href="icons/globe.png" width="54px" height="54px" preserveAspectRatio="xMinYMin meet" x="0" y="-261.5"/>
<text text-anchor="middle" x="27" y="-202.3" font-family="Times,serif" font-size="14.00" fill="#000000">Internet</text>
</g>
<!-- machine4 -->
<g id="node8" class="node">
<title>machine4</title>
<polygon fill="none" stroke="#000000" points="124.5,-146.5 124.5,-230.5 233.5,-230.5 233.5,-146.5 124.5,-146.5"/>
<text text-anchor="middle" x="179" y="-215.3" font-family="Times,serif" font-size="14.00" fill="#000000">101.102.103.104</text>
<polyline fill="none" stroke="#000000" points="124.5,-207.5 233.5,-207.5 "/>
<text text-anchor="middle" x="179" y="-192.3" font-family="Times,serif" font-size="14.00" fill="#000000">Firewall</text>
<text text-anchor="middle" x="179" y="-177.3" font-family="Times,serif" font-size="14.00" fill="#000000">router</text>
<polyline fill="none" stroke="#000000" points="124.5,-169.5 233.5,-169.5 "/>
<text text-anchor="middle" x="179" y="-154.3" font-family="Times,serif" font-size="14.00" fill="#000000">192.168.0.1</text>
</g>
<!-- internet&#45;&gt;machine4 -->
<g id="edge4" class="edge">
<title>internet&#45;&gt;machine4:w</title>
<path fill="none" stroke="#000000" stroke-width="2" d="M54.356,-229.3379C78.2841,-224.9989 111.2272,-219.5 124.5,-219.5"/>
</g>
<!-- internet&#45;&gt;machine4 -->
<g id="edge12" class="edge">
<title>internet&#45;&gt;machine4:f1</title>
<path fill="none" stroke="#000000" d="M54.4067,-213.6534C70.6342,-203.0989 92.2863,-191.9341 114.3511,-189.1547"/>
<polygon fill="#000000" stroke="#000000" points="114.7461,-192.6366 124.5,-188.5 114.2954,-185.6511 114.7461,-192.6366"/>
<text text-anchor="middle" x="103" y="-196.3" font-family="Times,serif" font-size="14.00" fill="#000000">2</text>
</g>
<!-- machine1 -->
<g id="node12" class="node">
<title>machine1</title>
<polygon fill="none" stroke="#000000" points="438.5,-216.5 438.5,-262.5 527.5,-262.5 527.5,-216.5 438.5,-216.5"/>
<text text-anchor="middle" x="483" y="-247.3" font-family="Times,serif" font-size="14.00" fill="#000000">Machine1</text>
<polyline fill="none" stroke="#000000" points="438.5,-239.5 527.5,-239.5 "/>
<text text-anchor="middle" x="483" y="-224.3" font-family="Times,serif" font-size="14.00" fill="#000000">192.168.0.10</text>
</g>
<!-- internet&#45;&gt;machine1 -->
<g id="edge14" class="edge">
<title>internet&#45;&gt;machine1:nw</title>
<path fill="none" stroke="#000000" d="M54.1332,-248.3192C126.1188,-282.8824 323.7508,-363.7807 430.9415,-269.5875"/>
<polygon fill="#000000" stroke="#000000" points="433.5994,-271.8933 438.5,-262.5 428.8112,-266.7871 433.5994,-271.8933"/>
<text text-anchor="middle" x="255" y="-314.3" font-family="Times,serif" font-size="14.00" fill="#000000">6</text>
</g>
<!-- i1 -->
<g id="node6" class="node">
<title>i1</title>
</g>
<!-- i2 -->
<g id="node7" class="node">
<title>i2</title>
</g>
<!-- machine4&#45;&gt;internet -->
<g id="edge9" class="edge">
<title>machine4:sw&#45;&gt;internet</title>
<path fill="none" stroke="#000000" d="M124.5,-169.5C105.3075,-150.3075 79.6377,-168.7746 59.455,-190.8606"/>
<polygon fill="#000000" stroke="#000000" points="56.7779,-188.6052 52.8381,-198.4402 62.0512,-193.2087 56.7779,-188.6052"/>
<text text-anchor="middle" x="103" y="-166.3" font-family="Times,serif" font-size="14.00" fill="#000000">1</text>
</g>
<!-- LAN -->
<g id="node11" class="node">
<title>LAN</title>
<polygon fill="none" stroke="#000000" points="281.5,-105.5 281.5,-151.5 380.5,-151.5 380.5,-105.5 281.5,-105.5"/>
<text text-anchor="middle" x="331" y="-136.3" font-family="Times,serif" font-size="14.00" fill="#000000">LAN</text>
<polyline fill="none" stroke="#000000" points="281.5,-128.5 380.5,-128.5 "/>
<text text-anchor="middle" x="331" y="-113.3" font-family="Times,serif" font-size="14.00" fill="#000000">192.168.0.0/24</text>
</g>
<!-- machine4&#45;&gt;LAN -->
<g id="edge5" class="edge">
<title>machine4:e&#45;&gt;LAN:w</title>
<path fill="none" stroke="#000000" stroke-width="2" d="M233.5,-157.5C258.4246,-157.5 256.5754,-128.5 281.5,-128.5"/>
</g>
<!-- machine4&#45;&gt;machine1 -->
<g id="edge10" class="edge">
<title>machine4:f1&#45;&gt;machine1:sw</title>
<path fill="none" stroke="#000000" d="M233.5,-188.5C323.9042,-188.5 368.724,-174.2319 431.1949,-232.4419"/>
<polygon fill="#000000" stroke="#000000" points="428.8764,-235.0686 438.5,-239.5 433.7403,-230.0345 428.8764,-235.0686"/>
<text text-anchor="middle" x="331" y="-202.3" font-family="Times,serif" font-size="14.00" fill="#000000">3</text>
</g>
<!-- f1 -->
<g id="node9" class="node">
<title>f1</title>
</g>
<!-- f2 -->
<g id="node10" class="node">
<title>f2</title>
</g>
<!-- LAN&#45;&gt;machine1 -->
<g id="edge6" class="edge">
<title>LAN:ne&#45;&gt;machine1:f1</title>
<path fill="none" stroke="#000000" stroke-width="2" d="M380.5,-151.5C391.8529,-162.8529 397.2693,-163.1262 407.5,-175.5 424.6449,-196.2365 411.5937,-227.5 438.5,-227.5"/>
</g>
<!-- machine2 -->
<g id="node13" class="node">
<title>machine2</title>
<polygon fill="none" stroke="#000000" points="438.5,-120.5 438.5,-166.5 527.5,-166.5 527.5,-120.5 438.5,-120.5"/>
<text text-anchor="middle" x="483" y="-151.3" font-family="Times,serif" font-size="14.00" fill="#000000">Machine2</text>
<polyline fill="none" stroke="#000000" points="438.5,-143.5 527.5,-143.5 "/>
<text text-anchor="middle" x="483" y="-128.3" font-family="Times,serif" font-size="14.00" fill="#000000">192.168.0.11</text>
</g>
<!-- LAN&#45;&gt;machine2 -->
<g id="edge7" class="edge">
<title>LAN:e&#45;&gt;machine2:f1</title>
<path fill="none" stroke="#000000" stroke-width="2" d="M380.5,-128.5C406.3122,-128.5 412.6878,-131.5 438.5,-131.5"/>
</g>
<!-- machine3 -->
<g id="node14" class="node">
<title>machine3</title>
<polygon fill="none" stroke="#000000" points="438.5,-55.5 438.5,-101.5 527.5,-101.5 527.5,-55.5 438.5,-55.5"/>
<text text-anchor="middle" x="483" y="-86.3" font-family="Times,serif" font-size="14.00" fill="#000000">Machine3</text>
<polyline fill="none" stroke="#000000" points="438.5,-78.5 527.5,-78.5 "/>
<text text-anchor="middle" x="483" y="-63.3" font-family="Times,serif" font-size="14.00" fill="#000000">192.168.0.12</text>
</g>
<!-- LAN&#45;&gt;machine3 -->
<g id="edge8" class="edge">
<title>LAN:se&#45;&gt;machine3:f1</title>
<path fill="none" stroke="#000000" stroke-width="2" d="M380.5,-105.5C402.4652,-83.5348 407.4365,-66.5 438.5,-66.5"/>
</g>
<!-- machine1&#45;&gt;internet -->
<g id="edge11" class="edge">
<title>machine1:w&#45;&gt;internet</title>
<path fill="none" stroke="#000000" d="M438.5,-251.5C300.4957,-251.5 136.6793,-241.8368 64.4167,-237.0814"/>
<polygon fill="#000000" stroke="#000000" points="64.6437,-233.5888 54.4333,-236.4171 64.1789,-240.5734 64.6437,-233.5888"/>
<text text-anchor="middle" x="255" y="-250.3" font-family="Times,serif" font-size="14.00" fill="#000000">5</text>
</g>
<!-- machine1&#45;&gt;machine4 -->
<g id="edge13" class="edge">
<title>machine1:sw&#45;&gt;machine4:ne</title>
<path fill="none" stroke="#000000" d="M438.5,-239.5C408.1896,-209.1896 285.2314,-235.7586 241.8924,-213.4469"/>
<polygon fill="#000000" stroke="#000000" points="243.6828,-210.4259 233.5,-207.5 239.6357,-216.1374 243.6828,-210.4259"/>
<text text-anchor="middle" x="331" y="-227.3" font-family="Times,serif" font-size="14.00" fill="#000000">4</text>
</g>
<!-- n1 -->
<g id="node15" class="node">
<title>n1</title>
</g>
<!-- n2 -->
<g id="node16" class="node">
<title>n2</title>
</g>
</g>
</svg>
