<?xml version="1.0" encoding="UTF-8" standalone="no"?>
<!DOCTYPE svg PUBLIC "-//W3C//DTD SVG 1.1//EN"
 "http://www.w3.org/Graphics/SVG/1.1/DTD/svg11.dtd">
<!-- Generated by graphviz version 2.26.3 (20100126.1600)
 -->
<!-- Title: G Pages: 1 -->
<svg width="752pt" height="194pt"
 viewBox="0.00 0.00 752.00 194.00" xmlns="http://www.w3.org/2000/svg" xmlns:xlink="http://www.w3.org/1999/xlink">
<g id="graph1" class="graph" transform="scale(1 1) rotate(0) translate(4 190)">
<title>G</title>
<polygon fill="white" stroke="white" points="-4,5 -4,-190 749,-190 749,5 -4,5"/>
<!-- some_host1 -->
<g id="node1" class="node"><title>some_host1</title>
<polygon fill="none" stroke="black" points="0,-136 0,-186 138,-186 138,-136 0,-136"/>
<text text-anchor="middle" x="69" y="-169.4" font-family="Times Roman,serif" font-size="14.00">Some Host 1</text>
<polyline fill="none" stroke="black" points="0,-161 138,-161 "/>
<text text-anchor="middle" x="69" y="-144.4" font-family="Times Roman,serif" font-size="14.00">201.202.203.204</text>
</g>
<!-- internet -->
<g id="node6" class="node"><title>internet</title>
<image xlink:href="icons/globe.png" width="54px" height="54px" preserveAspectRatio="xMinYMin meet" x="240" y="-120"/>
<text text-anchor="middle" x="267" y="-61.4" font-family="Times Roman,serif" font-size="14.00">Internet</text>
</g>
<!-- some_host1&#45;&gt;internet -->
<g id="edge2" class="edge"><title>some_host1&#45;&gt;internet</title>
<path fill="none" stroke="green" d="M138.251,-137.217C173.268,-125.191 213.758,-111.285 239.839,-102.328"/>
</g>
<!-- some_host2 -->
<g id="node2" class="node"><title>some_host2</title>
<polygon fill="none" stroke="black" points="0,-68 0,-118 138,-118 138,-68 0,-68"/>
<text text-anchor="middle" x="69" y="-101.4" font-family="Times Roman,serif" font-size="14.00">Some Host 2</text>
<polyline fill="none" stroke="black" points="0,-93 138,-93 "/>
<text text-anchor="middle" x="69" y="-76.4" font-family="Times Roman,serif" font-size="14.00">201.202.203.205</text>
</g>
<!-- some_host2&#45;&gt;internet -->
<g id="edge4" class="edge"><title>some_host2&#45;&gt;internet</title>
<path fill="none" stroke="blue" d="M138.251,-93C173.268,-93 213.758,-93 239.839,-93"/>
</g>
<!-- some_host3 -->
<g id="node3" class="node"><title>some_host3</title>
<polygon fill="none" stroke="black" points="0,-0 0,-50 138,-50 138,-0 0,-0"/>
<text text-anchor="middle" x="69" y="-33.4" font-family="Times Roman,serif" font-size="14.00">Some Host 3</text>
<polyline fill="none" stroke="black" points="0,-25 138,-25 "/>
<text text-anchor="middle" x="69" y="-8.4" font-family="Times Roman,serif" font-size="14.00">201.202.203.206</text>
</g>
<!-- some_host3&#45;&gt;internet -->
<g id="edge6" class="edge"><title>some_host3&#45;&gt;internet</title>
<path fill="none" stroke="red" d="M138.251,-48.7831C173.268,-60.8091 213.758,-74.715 239.839,-83.6719"/>
</g>
<!-- machine1 -->
<g id="node4" class="node"><title>machine1</title>
<polygon fill="none" stroke="black" points="582.5,-6 582.5,-106 743.5,-106 743.5,-6 582.5,-6"/>
<text text-anchor="middle" x="663" y="-89.4" font-family="Times Roman,serif" font-size="14.00">Machine1</text>
<polyline fill="none" stroke="black" points="582.5,-81 743.5,-81 "/>
<text text-anchor="middle" x="663" y="-64.4" font-family="Times Roman,serif" font-size="14.00">192.168.0.10:10022</text>
<polyline fill="none" stroke="black" points="582.5,-56 743.5,-56 "/>
<text text-anchor="middle" x="663" y="-39.4" font-family="Times Roman,serif" font-size="14.00">192.168.0.10:20022</text>
<polyline fill="none" stroke="black" points="582.5,-31 743.5,-31 "/>
<text text-anchor="middle" x="663" y="-14.4" font-family="Times Roman,serif" font-size="14.00">192.168.0.10:30022</text>
</g>
<!-- machine4 -->
<g id="node5" class="node"><title>machine4</title>
<polygon fill="none" stroke="black" points="384.5,-30.5 384.5,-105.5 545.5,-105.5 545.5,-30.5 384.5,-30.5"/>
<text text-anchor="middle" x="465" y="-88.9" font-family="Times Roman,serif" font-size="14.00">101.102.103.104:22</text>
<polyline fill="none" stroke="black" points="384.5,-80.5 545.5,-80.5 "/>
<text text-anchor="middle" x="465" y="-63.9" font-family="Times Roman,serif" font-size="14.00">firewall</text>
<polyline fill="none" stroke="black" points="384.5,-55.5 545.5,-55.5 "/>
<text text-anchor="middle" x="465" y="-38.9" font-family="Times Roman,serif" font-size="14.00">192.168.0.1</text>
</g>
<!-- machine4&#45;&gt;machine1 -->
<g id="edge14" class="edge"><title>machine4:f2&#45;&gt;machine1:f1</title>
<path fill="none" stroke="green" d="M546,-43C565.737,-43 562.263,-69 582,-69"/>
</g>
<!-- machine4&#45;&gt;machine1 -->
<g id="edge16" class="edge"><title>machine4:f2&#45;&gt;machine1:f2</title>
<path fill="none" stroke="blue" d="M546,-43C562,-43 566,-43 582,-43"/>
</g>
<!-- machine4&#45;&gt;machine1 -->
<g id="edge18" class="edge"><title>machine4:f2&#45;&gt;machine1:f3</title>
<path fill="none" stroke="red" d="M546,-43C565.48,-43 562.52,-18 582,-18"/>
</g>
<!-- internet&#45;&gt;machine4 -->
<g id="edge8" class="edge"><title>internet&#45;&gt;machine4:f0</title>
<path fill="none" stroke="red" d="M294.423,-79.9359C318.133,-78.0281 353.328,-82.3828 384,-93"/>
</g>
<!-- internet&#45;&gt;machine4 -->
<g id="edge10" class="edge"><title>internet&#45;&gt;machine4:f0</title>
<path fill="none" stroke="blue" d="M294.423,-93C318.041,-93 353.053,-93 383.64,-93"/>
</g>
<!-- internet&#45;&gt;machine4 -->
<g id="edge12" class="edge"><title>internet&#45;&gt;machine4:f0</title>
<path fill="none" stroke="green" d="M294.423,-106.064C318.041,-107.964 353.053,-103.651 383.64,-93.1241"/>
</g>
</g>
</svg>
