<?xml version="1.0" encoding="UTF-8" standalone="no"?>
<!DOCTYPE svg PUBLIC "-//W3C//DTD SVG 1.1//EN"
 "http://www.w3.org/Graphics/SVG/1.1/DTD/svg11.dtd">
<!-- Generated by graphviz version 2.26.3 (20100126.1600)
 -->
<!-- Title: G Pages: 1 -->
<svg width="564pt" height="224pt"
 viewBox="0.00 0.00 563.50 224.00" xmlns="http://www.w3.org/2000/svg" xmlns:xlink="http://www.w3.org/1999/xlink">
<g id="graph1" class="graph" transform="scale(1 1) rotate(0) translate(4 220)">
<title>G</title>
<polygon fill="white" stroke="white" points="-4,5 -4,-220 560.5,-220 560.5,5 -4,5"/>
<!-- machine1 -->
<g id="node1" class="node"><title>machine1</title>
<polygon fill="none" stroke="black" points="71,-97.5 71,-172.5 196,-172.5 196,-97.5 71,-97.5"/>
<text text-anchor="middle" x="133.5" y="-155.9" font-family="Times Roman,serif" font-size="14.00">127.0.0.1:3306</text>
<polyline fill="none" stroke="black" points="71,-147.5 196,-147.5 "/>
<text text-anchor="middle" x="133.5" y="-130.9" font-family="Times Roman,serif" font-size="14.00">Machine1</text>
<polyline fill="none" stroke="black" points="71,-122.5 196,-122.5 "/>
<text text-anchor="middle" x="133.5" y="-105.9" font-family="Times Roman,serif" font-size="14.00">ssh</text>
</g>
<!-- machine1&#45;&gt;machine1 -->
<g id="edge4" class="edge"><title>machine1:f2&#45;&gt;machine1:f0</title>
<path fill="none" stroke="red" d="M70.6658,-105.014C34.1168,-105.932 0,-113.949 0,-135 0,-154.077 28.0198,-162.45 60.4766,-164.535"/>
<polygon fill="red" stroke="red" points="60.521,-168.041 70.6658,-164.986 60.8301,-161.048 60.521,-168.041"/>
</g>
<!-- internet -->
<g id="node3" class="node"><title>internet</title>
<image xlink:href="icons/globe.png" width="54px" height="54px" preserveAspectRatio="xMinYMin meet" x="248.5" y="-117"/>
<text text-anchor="middle" x="275.5" y="-113.4" font-family="Times Roman,serif" font-size="14.00">Internet</text>
</g>
<!-- machine1&#45;&gt;internet -->
<g id="edge6" class="edge"><title>machine1:f2&#45;&gt;internet</title>
<path fill="none" stroke="black" d="M206.316,-107.543C216.993,-106.605 228.097,-104.204 237.997,-101.435"/>
<path fill="none" stroke="red" d="M206.494,-109.535C217.416,-108.56 228.519,-106.159 238.535,-103.361"/>
<path fill="none" stroke="black" d="M206.671,-111.527C217.839,-110.515 228.942,-108.114 239.074,-105.287"/>
<polygon fill="red" stroke="red" points="206.327,-106.039 196.5,-110 206.652,-113.031 206.327,-106.039"/>
<polygon fill="black" stroke="black" points="239.576,-106.703 248.142,-100.469 237.557,-100 239.576,-106.703"/>
</g>
<!-- mysql -->
<g id="node4" class="node"><title>mysql</title>
<image xlink:href="icons/database.png" width="54px" height="54px" preserveAspectRatio="xMinYMin meet" x="248.5" y="-207"/>
<text text-anchor="middle" x="275.5" y="-148.4" font-family="Times Roman,serif" font-size="14.00">mysql</text>
</g>
<!-- machine1&#45;&gt;mysql -->
<g id="edge2" class="edge"><title>machine1:f0&#45;&gt;mysql</title>
<path fill="none" stroke="black" d="M196.5,-160C214.043,-160 233.127,-164.692 248.142,-169.531"/>
</g>
<!-- machine2 -->
<g id="node2" class="node"><title>machine2</title>
<polygon fill="none" stroke="black" points="350.5,-16.5 350.5,-91.5 484.5,-91.5 484.5,-16.5 350.5,-16.5"/>
<text text-anchor="middle" x="417.5" y="-74.9" font-family="Times Roman,serif" font-size="14.00">192.168.0.10:22</text>
<polyline fill="none" stroke="black" points="350.5,-66.5 484.5,-66.5 "/>
<text text-anchor="middle" x="417.5" y="-49.9" font-family="Times Roman,serif" font-size="14.00">machine2</text>
<polyline fill="none" stroke="black" points="350.5,-41.5 484.5,-41.5 "/>
<text text-anchor="middle" x="417.5" y="-24.9" font-family="Times Roman,serif" font-size="14.00">127.0.0.1:13306</text>
</g>
<!-- machine2&#45;&gt;machine2 -->
<g id="edge11" class="edge"><title>machine2:f2:e&#45;&gt;machine2:f0:e</title>
<path fill="none" stroke="red" d="M484.5,-29C508.167,-20 555.5,-20 555.5,-54 555.5,-83.75 519.26,-87.4688 494.346,-81.9043"/>
<polygon fill="red" stroke="red" points="495.082,-78.4724 484.5,-79 493.101,-85.1863 495.082,-78.4724"/>
</g>
<!-- internet&#45;&gt;machine2 -->
<g id="edge7" class="edge"><title>internet&#45;&gt;machine2:f0</title>
<path fill="none" stroke="black" d="M312.579,-80.3592C321.337,-78.9948 330.753,-77.8482 340.104,-77.311"/>
<path fill="none" stroke="red" d="M312.887,-82.3354C321.579,-80.9801 330.994,-79.8335 340.217,-79.3078"/>
<path fill="none" stroke="black" d="M313.195,-84.3115C321.82,-82.9654 331.236,-81.8188 340.331,-81.3045"/>
<polygon fill="red" stroke="red" points="312.062,-78.9253 302.788,-84.0493 313.233,-85.8267 312.062,-78.9253"/>
<polygon fill="black" stroke="black" points="340.609,-82.7977 350.5,-79 340.4,-75.8008 340.609,-82.7977"/>
</g>
<!-- sql client -->
<g id="node8" class="node"><title>sql client</title>
<polygon fill="none" stroke="black" points="237,-0 237,-36 314,-36 314,-0 237,-0"/>
<text text-anchor="middle" x="275.5" y="-13.9" font-family="Times Roman,serif" font-size="14.00">sql client</text>
</g>
<!-- sql client&#45;&gt;machine2 -->
<g id="edge9" class="edge"><title>sql client&#45;&gt;machine2:f2</title>
<path fill="none" stroke="red" d="M314.268,-25.8773C322.607,-27.1445 331.557,-28.2033 340.33,-28.6986"/>
<polygon fill="red" stroke="red" points="340.401,-32.2022 350.5,-29 340.608,-25.2052 340.401,-32.2022"/>
</g>
</g>
</svg>
