<?xml version="1.0" encoding="UTF-8" standalone="no"?>
<!DOCTYPE svg PUBLIC "-//W3C//DTD SVG 1.1//EN"
 "http://www.w3.org/Graphics/SVG/1.1/DTD/svg11.dtd">
<!-- Generated by graphviz version 2.40.1 (20161225.0304)
 -->
<!-- Title: G Pages: 1 -->
<svg width="1042pt" height="139pt"
 viewBox="0.00 0.00 1042.00 138.50" xmlns="http://www.w3.org/2000/svg" xmlns:xlink="http://www.w3.org/1999/xlink">
<g id="graph0" class="graph" transform="scale(1 1) rotate(0) translate(4 134.5)">
<title>G</title>
<polygon fill="#ffffff" stroke="transparent" points="-4,4 -4,-134.5 1038,-134.5 1038,4 -4,4"/>
<!-- ROUTE1 -->
<g id="node1" class="node">
<title>ROUTE1</title>
<polygon fill="none" stroke="#000000" points="316.5,-94 316.5,-130 370.5,-130 370.5,-94 316.5,-94"/>
<text text-anchor="middle" x="343.5" y="-108.3" font-family="Times,serif" font-size="14.00" fill="#000000">Route</text>
</g>
<!-- NF_IP_LOCAL_IN -->
<g id="node2" class="node">
<title>NF_IP_LOCAL_IN</title>
<polygon fill="none" stroke="#000000" points="281,-39 281,-75 406,-75 406,-39 281,-39"/>
<text text-anchor="middle" x="343.5" y="-53.3" font-family="Times,serif" font-size="14.00" fill="#000000">NF_IP_LOCAL_IN</text>
</g>
<!-- NF_IP_FORWARD -->
<g id="node9" class="node">
<title>NF_IP_FORWARD</title>
<polygon fill="none" stroke="#000000" points="442,-92 442,-128 570,-128 570,-92 442,-92"/>
<text text-anchor="middle" x="506" y="-106.3" font-family="Times,serif" font-size="14.00" fill="#000000">NF_IP_FORWARD</text>
</g>
<!-- ROUTE1&#45;&gt;NF_IP_FORWARD -->
<g id="edge3" class="edge">
<title>ROUTE1&#45;&gt;NF_IP_FORWARD</title>
<path fill="none" stroke="#000000" d="M370.6988,-111.6652C387.4685,-111.4588 409.8603,-111.1833 431.5942,-110.9158"/>
<polygon fill="#000000" stroke="#000000" points="431.8897,-114.4125 441.8459,-110.7896 431.8035,-107.413 431.8897,-114.4125"/>
</g>
<!-- Local Process -->
<g id="node7" class="node">
<title>Local Process</title>
<polygon fill="none" stroke="#000000" points="460,-.5 460,-69.5 552,-69.5 552,-.5 460,-.5"/>
<text text-anchor="middle" x="506" y="-54.3" font-family="Times,serif" font-size="14.00" fill="#000000">RECV</text>
<polyline fill="none" stroke="#000000" points="460,-46.5 552,-46.5 "/>
<text text-anchor="middle" x="506" y="-31.3" font-family="Times,serif" font-size="14.00" fill="#000000">Local Process</text>
<polyline fill="none" stroke="#000000" points="460,-23.5 552,-23.5 "/>
<text text-anchor="middle" x="506" y="-8.3" font-family="Times,serif" font-size="14.00" fill="#000000">SEND</text>
</g>
<!-- NF_IP_LOCAL_IN&#45;&gt;Local Process -->
<g id="edge8" class="edge">
<title>NF_IP_LOCAL_IN&#45;&gt;Local Process:f0</title>
<path fill="none" stroke="#000000" d="M406.076,-57.7346C420.1217,-57.8563 435.1506,-57.954 449.6018,-57.9875"/>
<polygon fill="#000000" stroke="#000000" points="449.9958,-61.4879 460,-58 450.0042,-54.4879 449.9958,-61.4879"/>
</g>
<!-- NF_IP_LOCAL_OUT -->
<g id="node3" class="node">
<title>NF_IP_LOCAL_OUT</title>
<polygon fill="none" stroke="#000000" points="606,-70 606,-106 745,-106 745,-70 606,-70"/>
<text text-anchor="middle" x="675.5" y="-84.3" font-family="Times,serif" font-size="14.00" fill="#000000">NF_IP_LOCAL_OUT</text>
</g>
<!-- ROUTE2 -->
<g id="node4" class="node">
<title>ROUTE2</title>
<polygon fill="none" stroke="#000000" points="648.5,-15 648.5,-51 702.5,-51 702.5,-15 648.5,-15"/>
<text text-anchor="middle" x="675.5" y="-29.3" font-family="Times,serif" font-size="14.00" fill="#000000">Route</text>
</g>
<!-- NF_IP_POSTROUTING -->
<g id="node10" class="node">
<title>NF_IP_POSTROUTING</title>
<polygon fill="none" stroke="#000000" points="781,-15 781,-51 934,-51 934,-15 781,-15"/>
<text text-anchor="middle" x="857.5" y="-29.3" font-family="Times,serif" font-size="14.00" fill="#000000">NF_IP_POSTROUTING</text>
</g>
<!-- ROUTE2&#45;&gt;NF_IP_POSTROUTING -->
<g id="edge5" class="edge">
<title>ROUTE2&#45;&gt;NF_IP_POSTROUTING</title>
<path fill="none" stroke="#000000" d="M702.7472,-33C720.9628,-33 746.0273,-33 770.6816,-33"/>
<polygon fill="#000000" stroke="#000000" points="770.8298,-36.5001 780.8297,-33 770.8297,-29.5001 770.8298,-36.5001"/>
</g>
<!-- Network1 -->
<g id="node5" class="node">
<title>Network1</title>
<polygon fill="none" stroke="#000000" points="0,-94 0,-130 64,-130 64,-94 0,-94"/>
<text text-anchor="middle" x="32" y="-108.3" font-family="Times,serif" font-size="14.00" fill="#000000">Network</text>
</g>
<!-- NF_IP_PREROUTING -->
<g id="node8" class="node">
<title>NF_IP_PREROUTING</title>
<polygon fill="none" stroke="#000000" points="100,-94 100,-130 245,-130 245,-94 100,-94"/>
<text text-anchor="middle" x="172.5" y="-108.3" font-family="Times,serif" font-size="14.00" fill="#000000">NF_IP_PREROUTING</text>
</g>
<!-- Network1&#45;&gt;NF_IP_PREROUTING -->
<g id="edge1" class="edge">
<title>Network1&#45;&gt;NF_IP_PREROUTING</title>
<path fill="none" stroke="#000000" d="M64.2335,-112C72.0035,-112 80.6614,-112 89.602,-112"/>
<polygon fill="#000000" stroke="#000000" points="89.784,-115.5001 99.7839,-112 89.7839,-108.5001 89.784,-115.5001"/>
</g>
<!-- Network2 -->
<g id="node6" class="node">
<title>Network2</title>
<polygon fill="none" stroke="#000000" points="970,-15 970,-51 1034,-51 1034,-15 970,-15"/>
<text text-anchor="middle" x="1002" y="-29.3" font-family="Times,serif" font-size="14.00" fill="#000000">Network</text>
</g>
<!-- Local Process&#45;&gt;NF_IP_LOCAL_OUT -->
<g id="edge9" class="edge">
<title>Local Process:f1&#45;&gt;NF_IP_LOCAL_OUT</title>
<path fill="none" stroke="#000000" d="M552,-12C584.1109,-12 578.7058,-43.0845 606,-60 609.1133,-61.9294 612.3824,-63.7732 615.7355,-65.5267"/>
<polygon fill="#000000" stroke="#000000" points="614.2389,-68.6909 624.7581,-69.9547 617.3229,-62.4069 614.2389,-68.6909"/>
</g>
<!-- NF_IP_PREROUTING&#45;&gt;ROUTE1 -->
<g id="edge2" class="edge">
<title>NF_IP_PREROUTING&#45;&gt;ROUTE1</title>
<path fill="none" stroke="#000000" d="M245.0194,-112C266.1733,-112 288.4126,-112 306.394,-112"/>
<polygon fill="#000000" stroke="#000000" points="306.4488,-115.5001 316.4488,-112 306.4488,-108.5001 306.4488,-115.5001"/>
</g>
<!-- NF_IP_FORWARD&#45;&gt;ROUTE2 -->
<g id="edge4" class="edge">
<title>NF_IP_FORWARD&#45;&gt;ROUTE2</title>
<path fill="none" stroke="#000000" d="M544.0095,-91.8563C552.5855,-87.6884 561.6275,-83.2355 570,-79 586.1435,-70.8332 589.5409,-67.5104 606,-60 616.5491,-55.1864 628.2252,-50.4356 638.948,-46.2931"/>
<polygon fill="#000000" stroke="#000000" points="640.3634,-49.4995 648.4678,-42.6753 637.8767,-42.956 640.3634,-49.4995"/>
</g>
<!-- NF_IP_POSTROUTING&#45;&gt;Network2 -->
<g id="edge6" class="edge">
<title>NF_IP_POSTROUTING&#45;&gt;Network2</title>
<path fill="none" stroke="#000000" d="M934.4039,-33C943.1206,-33 951.7467,-33 959.7716,-33"/>
<polygon fill="#000000" stroke="#000000" points="959.9322,-36.5001 969.9322,-33 959.9321,-29.5001 959.9322,-36.5001"/>
</g>
</g>
</svg>
