<?xml version="1.0" encoding="UTF-8" standalone="no"?>
<!DOCTYPE svg PUBLIC "-//W3C//DTD SVG 1.1//EN"
 "http://www.w3.org/Graphics/SVG/1.1/DTD/svg11.dtd">
<!-- Generated by graphviz version 2.26.3 (20100126.1600)
 -->
<!-- Title: G Pages: 1 -->
<svg width="830pt" height="268pt"
 viewBox="0.00 0.00 830.00 268.00" xmlns="http://www.w3.org/2000/svg" xmlns:xlink="http://www.w3.org/1999/xlink">
<g id="graph1" class="graph" transform="scale(1 1) rotate(0) translate(4 264)">
<title>G</title>
<polygon fill="white" stroke="white" points="-4,5 -4,-264 827,-264 827,5 -4,5"/>
<!-- mymachine -->
<g id="node1" class="node"><title>mymachine</title>
<polygon fill="none" stroke="black" points="86,-168.5 86,-243.5 220,-243.5 220,-168.5 86,-168.5"/>
<text text-anchor="middle" x="153" y="-226.9" font-family="Times Roman,serif" font-size="14.00">127.0.0.1:13306</text>
<polyline fill="none" stroke="black" points="86,-218.5 220,-218.5 "/>
<text text-anchor="middle" x="153" y="-201.9" font-family="Times Roman,serif" font-size="14.00">My machine</text>
<polyline fill="none" stroke="black" points="86,-193.5 220,-193.5 "/>
<text text-anchor="middle" x="153" y="-176.9" font-family="Times Roman,serif" font-size="14.00">ssh</text>
</g>
<!-- mymachine&#45;&gt;mymachine -->
<g id="edge4" class="edge"><title>mymachine:f0&#45;&gt;mymachine:f2</title>
<path fill="none" stroke="red" d="M85.7547,-236.06C42.1165,-235.656 0,-227.848 0,-206 0,-185.859 35.7928,-177.649 75.5742,-176.174"/>
<polygon fill="red" stroke="red" points="75.8376,-179.669 85.7547,-175.94 75.6772,-172.67 75.8376,-179.669"/>
</g>
<!-- internet -->
<g id="node4" class="node"><title>internet</title>
<image xlink:href="icons/globe.png" width="54px" height="54px" preserveAspectRatio="xMinYMin meet" x="298" y="-197"/>
<text text-anchor="middle" x="325" y="-138.4" font-family="Times Roman,serif" font-size="14.00">Internet</text>
</g>
<!-- mymachine&#45;&gt;internet -->
<g id="edge6" class="edge"><title>mymachine:f2&#45;&gt;internet</title>
<path fill="none" stroke="black" d="M220,-179C242.43,-179.01 267.657,-176.451 287.651,-173.809"/>
<path fill="none" stroke="red" d="M220,-181C242.632,-181 267.859,-178.441 287.913,-175.791"/>
<path fill="none" stroke="black" d="M220,-183C242.834,-182.99 268.061,-180.431 288.175,-177.774"/>
<polygon fill="black" stroke="black" points="288.462,-179.249 297.887,-174.411 287.502,-172.315 288.462,-179.249"/>
</g>
<!-- sql client -->
<g id="node7" class="node"><title>sql client</title>
<polygon fill="none" stroke="black" points="286.5,-224 286.5,-260 363.5,-260 363.5,-224 286.5,-224"/>
<text text-anchor="middle" x="325" y="-237.9" font-family="Times Roman,serif" font-size="14.00">sql client</text>
</g>
<!-- mymachine&#45;&gt;sql client -->
<g id="edge2" class="edge"><title>mymachine:f0&#45;&gt;sql client</title>
<path fill="none" stroke="red" d="M230.198,-231.16C249.334,-231.74 269.452,-233.808 286.207,-235.985"/>
<polygon fill="red" stroke="red" points="230.054,-227.658 220,-231 229.944,-234.657 230.054,-227.658"/>
</g>
<!-- machine1 -->
<g id="node2" class="node"><title>machine1</title>
<polygon fill="none" stroke="black" points="602,-31.5 602,-106.5 736,-106.5 736,-31.5 602,-31.5"/>
<text text-anchor="middle" x="669" y="-89.9" font-family="Times Roman,serif" font-size="14.00">192.168.0.10:22</text>
<polyline fill="none" stroke="black" points="602,-81.5 736,-81.5 "/>
<text text-anchor="middle" x="669" y="-64.9" font-family="Times Roman,serif" font-size="14.00">Machine1</text>
<polyline fill="none" stroke="black" points="602,-56.5 736,-56.5 "/>
<text text-anchor="middle" x="669" y="-39.9" font-family="Times Roman,serif" font-size="14.00">127.0.0.1:3306</text>
</g>
<!-- machine1&#45;&gt;machine1 -->
<g id="edge13" class="edge"><title>machine1:f1:e&#45;&gt;machine1:f2:e</title>
<path fill="none" stroke="red" d="M736,-69C764.667,-78 822,-78 822,-56.5 822,-37.2676 776.123,-35.2392 745.926,-41.4673"/>
<polygon fill="red" stroke="red" points="744.824,-38.1363 736,-44 746.555,-44.919 744.824,-38.1363"/>
</g>
<!-- router -->
<g id="node3" class="node"><title>router</title>
<polygon fill="none" stroke="black" points="428,-90 428,-182 566,-182 566,-90 428,-90"/>
<text text-anchor="middle" x="497" y="-165.4" font-family="Times Roman,serif" font-size="14.00">101.102.103.104</text>
<polyline fill="none" stroke="black" points="428,-157 566,-157 "/>
<text text-anchor="middle" x="497" y="-140.4" font-family="Times Roman,serif" font-size="14.00">Firewall</text>
<text text-anchor="middle" x="497" y="-123.4" font-family="Times Roman,serif" font-size="14.00">router</text>
<polyline fill="none" stroke="black" points="428,-115 566,-115 "/>
<text text-anchor="middle" x="497" y="-98.4" font-family="Times Roman,serif" font-size="14.00">192.168.0.1</text>
</g>
<!-- router&#45;&gt;machine1 -->
<g id="edge9" class="edge"><title>router:f2&#45;&gt;machine1:f0</title>
<path fill="none" stroke="black" d="M566,-100C577.046,-100.547 581.903,-95.9528 591.542,-93.242"/>
<path fill="none" stroke="red" d="M566,-102C578.421,-102 583.278,-97.4058 592.035,-95.1804"/>
<path fill="none" stroke="black" d="M566,-104C579.795,-103.453 584.652,-98.8587 592.527,-97.1188"/>
<polygon fill="black" stroke="black" points="592.481,-98.6521 602,-94 591.658,-91.7007 592.481,-98.6521"/>
</g>
<!-- internet&#45;&gt;router -->
<g id="edge7" class="edge"><title>internet&#45;&gt;router:f0</title>
<path fill="none" stroke="black" d="M352.108,-168C370.201,-168 394.821,-168 417.888,-168"/>
<path fill="none" stroke="red" d="M352.108,-170C370.201,-170 394.821,-170 417.888,-170"/>
<path fill="none" stroke="black" d="M352.108,-172C370.201,-172 394.821,-172 417.888,-172"/>
<polygon fill="black" stroke="black" points="418,-173.5 428,-170 418,-166.5 418,-173.5"/>
</g>
<!-- mysql -->
<g id="node5" class="node"><title>mysql</title>
<image xlink:href="icons/database.png" width="54px" height="54px" preserveAspectRatio="xMinYMin meet" x="470" y="-63"/>
<text text-anchor="middle" x="497" y="-4.4" font-family="Times Roman,serif" font-size="14.00">mysql</text>
</g>
<!-- mysql&#45;&gt;machine1 -->
<g id="edge11" class="edge"><title>mysql&#45;&gt;machine1:f2</title>
<path fill="none" stroke="black" d="M524.151,-39.2078C545.326,-41.4335 575.491,-44 602,-44"/>
</g>
</g>
</svg>
