<?xml version="1.0" encoding="UTF-8" standalone="no"?>
<!DOCTYPE svg PUBLIC "-//W3C//DTD SVG 1.1//EN"
 "http://www.w3.org/Graphics/SVG/1.1/DTD/svg11.dtd">
<!-- Generated by graphviz version 2.26.3 (20100126.1600)
 -->
<!-- Title: G Pages: 1 -->
<svg width="696pt" height="239pt"
 viewBox="0.00 0.00 696.00 239.00" xmlns="http://www.w3.org/2000/svg" xmlns:xlink="http://www.w3.org/1999/xlink">
<g id="graph1" class="graph" transform="scale(1 1) rotate(0) translate(4 235)">
<title>G</title>
<polygon fill="white" stroke="white" points="-4,5 -4,-235 693,-235 693,5 -4,5"/>
<!-- some_host1 -->
<g id="node1" class="node"><title>some_host1</title>
<polygon fill="none" stroke="black" points="0,-179 0,-231 138,-231 138,-179 0,-179"/>
<text text-anchor="middle" x="69" y="-214.4" font-family="Times Roman,serif" font-size="14.00">Some Host 1</text>
<polyline fill="none" stroke="black" points="0,-205 138,-205 "/>
<text text-anchor="middle" x="69" y="-188.4" font-family="Times Roman,serif" font-size="14.00">201.202.203.204</text>
</g>
<!-- internet -->
<g id="node8" class="node"><title>internet</title>
<image xlink:href="icons/globe.png" width="54px" height="54px" preserveAspectRatio="xMinYMin meet" x="226" y="-162"/>
<text text-anchor="middle" x="253" y="-104.4" font-family="Times Roman,serif" font-size="14.00">Internet</text>
</g>
<!-- some_host1&#45;&gt;internet -->
<g id="edge2" class="edge"><title>some_host1&#45;&gt;internet</title>
<path fill="none" stroke="green" d="M137.515,-178.935C168.167,-167.273 202.548,-154.194 225.764,-145.362"/>
</g>
<!-- some_host2 -->
<g id="node2" class="node"><title>some_host2</title>
<polygon fill="none" stroke="black" points="0,-109 0,-161 138,-161 138,-109 0,-109"/>
<text text-anchor="middle" x="69" y="-144.4" font-family="Times Roman,serif" font-size="14.00">Some Host 2</text>
<polyline fill="none" stroke="black" points="0,-135 138,-135 "/>
<text text-anchor="middle" x="69" y="-118.4" font-family="Times Roman,serif" font-size="14.00">201.202.203.205</text>
</g>
<!-- some_host2&#45;&gt;internet -->
<g id="edge4" class="edge"><title>some_host2&#45;&gt;internet</title>
<path fill="none" stroke="blue" d="M138.038,-135C168.631,-135 202.841,-135 225.927,-135"/>
</g>
<!-- some_host3 -->
<g id="node3" class="node"><title>some_host3</title>
<polygon fill="none" stroke="black" points="0,-39 0,-91 138,-91 138,-39 0,-39"/>
<text text-anchor="middle" x="69" y="-74.4" font-family="Times Roman,serif" font-size="14.00">Some Host 3</text>
<polyline fill="none" stroke="black" points="0,-65 138,-65 "/>
<text text-anchor="middle" x="69" y="-48.4" font-family="Times Roman,serif" font-size="14.00">201.202.203.206</text>
</g>
<!-- some_host3&#45;&gt;internet -->
<g id="edge6" class="edge"><title>some_host3&#45;&gt;internet</title>
<path fill="none" stroke="red" d="M137.515,-91.0654C168.167,-102.727 202.548,-115.806 225.764,-124.638"/>
</g>
<!-- machine1 -->
<g id="node4" class="node"><title>machine1</title>
<polygon fill="none" stroke="black" points="554,-140 554,-192 688,-192 688,-140 554,-140"/>
<text text-anchor="middle" x="621" y="-175.4" font-family="Times Roman,serif" font-size="14.00">Machine1</text>
<polyline fill="none" stroke="black" points="554,-166 688,-166 "/>
<text text-anchor="middle" x="621" y="-149.4" font-family="Times Roman,serif" font-size="14.00">192.168.0.10:22</text>
</g>
<!-- machine2 -->
<g id="node5" class="node"><title>machine2</title>
<polygon fill="none" stroke="black" points="554,-70 554,-122 688,-122 688,-70 554,-70"/>
<text text-anchor="middle" x="621" y="-105.4" font-family="Times Roman,serif" font-size="14.00">Machine2</text>
<polyline fill="none" stroke="black" points="554,-96 688,-96 "/>
<text text-anchor="middle" x="621" y="-79.4" font-family="Times Roman,serif" font-size="14.00">192.168.0.11:22</text>
</g>
<!-- machine3 -->
<g id="node6" class="node"><title>machine3</title>
<polygon fill="none" stroke="black" points="554,-0 554,-52 688,-52 688,-0 554,-0"/>
<text text-anchor="middle" x="621" y="-35.4" font-family="Times Roman,serif" font-size="14.00">Machine3</text>
<polyline fill="none" stroke="black" points="554,-26 688,-26 "/>
<text text-anchor="middle" x="621" y="-9.4" font-family="Times Roman,serif" font-size="14.00">192.168.0.12:22</text>
</g>
<!-- machine4 -->
<g id="node7" class="node"><title>machine4</title>
<polygon fill="none" stroke="black" points="356.5,-70 356.5,-148 517.5,-148 517.5,-70 356.5,-70"/>
<text text-anchor="middle" x="437" y="-131.4" font-family="Times Roman,serif" font-size="14.00">101.102.103.104:22</text>
<polyline fill="none" stroke="black" points="356.5,-122 517.5,-122 "/>
<text text-anchor="middle" x="437" y="-105.4" font-family="Times Roman,serif" font-size="14.00">firewall</text>
<polyline fill="none" stroke="black" points="356.5,-96 517.5,-96 "/>
<text text-anchor="middle" x="437" y="-79.4" font-family="Times Roman,serif" font-size="14.00">192.168.0.1</text>
</g>
<!-- machine4&#45;&gt;machine1 -->
<g id="edge14" class="edge"><title>machine4:f2&#45;&gt;machine1:f1</title>
<path fill="none" stroke="green" d="M518,-83C552.984,-83 519.016,-153 554,-153"/>
</g>
<!-- machine4&#45;&gt;machine2 -->
<g id="edge16" class="edge"><title>machine4:f2&#45;&gt;machine2:f1</title>
<path fill="none" stroke="blue" d="M518,-83C534,-83 538,-83 554,-83"/>
</g>
<!-- machine4&#45;&gt;machine3 -->
<g id="edge18" class="edge"><title>machine4:f2&#45;&gt;machine3:f1</title>
<path fill="none" stroke="red" d="M518,-83C552.984,-83 519.016,-13 554,-13"/>
</g>
<!-- internet&#45;&gt;machine4 -->
<g id="edge8" class="edge"><title>internet&#45;&gt;machine4:f0</title>
<path fill="none" stroke="red" d="M280.108,-121.711C300.879,-120.445 330.25,-124.875 356,-135"/>
</g>
<!-- internet&#45;&gt;machine4 -->
<g id="edge10" class="edge"><title>internet&#45;&gt;machine4:f0</title>
<path fill="none" stroke="blue" d="M280.108,-135C300.798,-135 330.021,-135 355.698,-135"/>
</g>
<!-- internet&#45;&gt;machine4 -->
<g id="edge12" class="edge"><title>internet&#45;&gt;machine4:f0</title>
<path fill="none" stroke="green" d="M280.108,-148.289C300.798,-149.55 330.021,-145.16 355.698,-135.118"/>
</g>
</g>
</svg>
