<?xml version="1.0" encoding="UTF-8" standalone="no"?>
<!DOCTYPE svg PUBLIC "-//W3C//DTD SVG 1.0//EN"
 "http://www.w3.org/TR/2001/REC-SVG-20010904/DTD/svg10.dtd" [
 <!ATTLIST svg xmlns:xlink CDATA #FIXED "http://www.w3.org/1999/xlink">
]>
<!-- Generated by Graphviz version 2.20.2 (Tue Mar &#160;2 21:46:26 UTC 2010)
     For user: (joost) Joost Helberg,,, -->
<!-- Title: G Pages: 1 -->
<svg width="892pt" height="112pt"
 viewBox="0.00 0.00 892.00 112.00" xmlns="http://www.w3.org/2000/svg" xmlns:xlink="http://www.w3.org/1999/xlink">
<g id="graph0" class="graph" transform="scale(1 1) rotate(0) translate(4 108)">
<title>G</title>
<polygon style="fill:white;stroke:white;" points="-4,4 -4,-108 888,-108 888,4 -4,4"/>
<!-- linkname -->
<g id="node1" class="node"><title>linkname</title>
<polygon style="fill:none;stroke:black;" points="30,-0 30,-50 114,-50 114,-0 30,-0"/>
<text text-anchor="middle" x="72" y="-32.9" style="font-family:Times New Roman;font-size:14.00;">Linkname</text>
<polyline style="fill:none;stroke:black;" points="30,-25 114,-25 "/>
<text text-anchor="middle" x="72" y="-7.9" style="font-family:Times New Roman;font-size:14.00;">libfoo.so</text>
</g>
<!-- soname -->
<g id="node2" class="node"><title>soname</title>
<polygon style="fill:none;stroke:black;" points="389,-0 389,-50 475,-50 475,-0 389,-0"/>
<text text-anchor="middle" x="432" y="-32.9" style="font-family:Times New Roman;font-size:14.00;">Soname</text>
<polyline style="fill:none;stroke:black;" points="389,-25 475,-25 "/>
<text text-anchor="middle" x="432" y="-7.9" style="font-family:Times New Roman;font-size:14.00;">libfoo.so.1</text>
</g>
<!-- linkname&#45;&gt;soname -->
<g id="edge2" class="edge"><title>linkname&#45;&gt;soname</title>
<path style="fill:none;stroke:black;" d="M114,-25C180,-25 306,-25 379,-25"/>
<polygon style="fill:black;stroke:black;" points="379,-28.5001 389,-25 379,-21.5001 379,-28.5001"/>
<text text-anchor="middle" x="217" y="-46.4" style="font-family:Times New Roman;font-size:14.00;">symlink,</text>
<text text-anchor="middle" x="217" y="-29.4" style="font-family:Times New Roman;font-size:14.00;">set up manually</text>
</g>
<!-- realname -->
<g id="node3" class="node"><title>realname</title>
<polygon style="fill:none;stroke:black;" points="752,-0 752,-50 865,-50 865,-0 752,-0"/>
<text text-anchor="middle" x="808" y="-32.9" style="font-family:Times New Roman;font-size:14.00;">Real name</text>
<polyline style="fill:none;stroke:black;" points="752,-25 865,-25 "/>
<text text-anchor="middle" x="808" y="-7.9" style="font-family:Times New Roman;font-size:14.00;">libfoo.so.1.0.4</text>
</g>
<!-- soname&#45;&gt;realname -->
<g id="edge4" class="edge"><title>soname&#45;&gt;realname</title>
<path style="fill:none;stroke:black;" d="M475,-25C540,-25 665,-25 742,-25"/>
<polygon style="fill:black;stroke:black;" points="742,-28.5001 752,-25 742,-21.5001 742,-28.5001"/>
<text text-anchor="middle" x="653" y="-46.4" style="font-family:Times New Roman;font-size:14.00;">symlink,</text>
<text text-anchor="middle" x="653" y="-29.4" style="font-family:Times New Roman;font-size:14.00;">set up by ldconfig</text>
</g>
<!-- Linker uses.. -->
<g id="node6" class="node"><title>Linker uses..</title>
<ellipse style="fill:none;stroke:black;" cx="72" cy="-86" rx="71.0724" ry="18"/>
<text text-anchor="middle" x="72" y="-81.9" style="font-family:Times New Roman;font-size:14.00;">Linker uses..</text>
</g>
<!-- Executable asks loader for.. -->
<g id="node8" class="node"><title>Executable asks loader for..</title>
<ellipse style="fill:none;stroke:black;" cx="432" cy="-86" rx="141.756" ry="18"/>
<text text-anchor="middle" x="432" y="-81.9" style="font-family:Times New Roman;font-size:14.00;">Executable asks loader for..</text>
</g>
<!-- Loader finds.. -->
<g id="node10" class="node"><title>Loader finds..</title>
<ellipse style="fill:none;stroke:black;" cx="808" cy="-86" rx="75.2406" ry="18"/>
<text text-anchor="middle" x="808" y="-81.9" style="font-family:Times New Roman;font-size:14.00;">Loader finds..</text>
</g>
</g>
</svg>
