<?xml version="1.0" encoding="UTF-8" standalone="no"?>
<!DOCTYPE svg PUBLIC "-//W3C//DTD SVG 1.1//EN"
 "http://www.w3.org/Graphics/SVG/1.1/DTD/svg11.dtd">
<!-- Generated by graphviz version 2.26.3 (20100126.1600)
 -->
<!-- Title: G Pages: 1 -->
<svg width="852pt" height="158pt"
 viewBox="0.00 0.00 852.00 158.00" xmlns="http://www.w3.org/2000/svg" xmlns:xlink="http://www.w3.org/1999/xlink">
<g id="graph1" class="graph" transform="scale(1 1) rotate(0) translate(4 154)">
<title>G</title>
<polygon fill="white" stroke="white" points="-4,5 -4,-154 849,-154 849,5 -4,5"/>
<!-- linkname -->
<g id="node1" class="node"><title>linkname</title>
<polygon fill="none" stroke="black" points="32,-26 32,-78 116,-78 116,-26 32,-26"/>
<text text-anchor="middle" x="74" y="-61.4" font-family="Times Roman,serif" font-size="14.00">Linkname</text>
<polyline fill="none" stroke="black" points="32,-52 116,-52 "/>
<text text-anchor="middle" x="74" y="-35.4" font-family="Times Roman,serif" font-size="14.00">libfoo.so</text>
</g>
<!-- soname -->
<g id="node2" class="node"><title>soname</title>
<polygon fill="none" stroke="black" points="339,-26 339,-78 425,-78 425,-26 339,-26"/>
<text text-anchor="middle" x="382" y="-61.4" font-family="Times Roman,serif" font-size="14.00">Soname</text>
<polyline fill="none" stroke="black" points="339,-52 425,-52 "/>
<text text-anchor="middle" x="382" y="-35.4" font-family="Times Roman,serif" font-size="14.00">libfoo.so.1</text>
</g>
<!-- linkname&#45;&gt;soname -->
<g id="edge2" class="edge"><title>linkname&#45;&gt;soname</title>
<path fill="none" stroke="black" d="M116.18,-52C171.469,-52 268.478,-52 328.764,-52"/>
<polygon fill="black" stroke="black" points="328.843,-55.5001 338.843,-52 328.843,-48.5001 328.843,-55.5001"/>
<text text-anchor="middle" x="193" y="-57.4" font-family="Times Roman,serif" font-size="14.00">symlink</text>
</g>
<!-- realname -->
<g id="node3" class="node"><title>realname</title>
<polygon fill="none" stroke="black" points="709.5,-0 709.5,-78 822.5,-78 822.5,-0 709.5,-0"/>
<text text-anchor="middle" x="766" y="-61.4" font-family="Times Roman,serif" font-size="14.00">Real name</text>
<polyline fill="none" stroke="black" points="709.5,-52 822.5,-52 "/>
<text text-anchor="middle" x="766" y="-35.4" font-family="Times Roman,serif" font-size="14.00">libfoo.so.1.2.0</text>
<polyline fill="none" stroke="black" points="709.5,-26 822.5,-26 "/>
<text text-anchor="middle" x="766" y="-9.4" font-family="Times Roman,serif" font-size="14.00">libfoo.so.1.0.4</text>
</g>
<!-- soname&#45;&gt;realname -->
<g id="edge4" class="edge"><title>soname:f0&#45;&gt;realname:f0</title>
<path fill="none" stroke="black" d="M425,-39C547.771,-39 580.981,-39 698.854,-39"/>
<polygon fill="black" stroke="black" points="699,-42.5001 709,-39 699,-35.5001 699,-42.5001"/>
<text text-anchor="middle" x="607" y="-63.4" font-family="Times Roman,serif" font-size="14.00">symlink</text>
<text text-anchor="middle" x="607" y="-45.4" font-family="Times Roman,serif" font-size="14.00"> set up by ldconfig</text>
</g>
<!-- Linker uses.. -->
<g id="node6" class="node"><title>Linker uses..</title>
<ellipse fill="none" stroke="black" cx="74" cy="-132" rx="73.0388" ry="18.3848"/>
<text text-anchor="middle" x="74" y="-128.4" font-family="Times Roman,serif" font-size="14.00">Linker uses..</text>
</g>
<!-- Linker uses..&#45;&gt;linkname -->
<g id="edge6" class="edge"><title>Linker uses..&#45;&gt;linkname</title>
<path fill="none" stroke="black" d="M74,-113.943C74,-105.392 74,-96.8403 74,-88.2888"/>
<polygon fill="black" stroke="black" points="77.5001,-88.25 74,-78.25 70.5001,-88.25 77.5001,-88.25"/>
</g>
<!-- Executable asks loader for.. -->
<g id="node8" class="node"><title>Executable asks loader for..</title>
<ellipse fill="none" stroke="black" cx="382" cy="-132" rx="144.25" ry="18.3848"/>
<text text-anchor="middle" x="382" y="-128.4" font-family="Times Roman,serif" font-size="14.00">Executable asks loader for..</text>
</g>
<!-- Executable asks loader for..&#45;&gt;soname -->
<g id="edge8" class="edge"><title>Executable asks loader for..&#45;&gt;soname</title>
<path fill="none" stroke="black" d="M382,-113.943C382,-105.392 382,-96.8403 382,-88.2888"/>
<polygon fill="black" stroke="black" points="385.5,-88.25 382,-78.25 378.5,-88.25 385.5,-88.25"/>
</g>
<!-- Loader finds.. -->
<g id="node10" class="node"><title>Loader finds..</title>
<ellipse fill="none" stroke="black" cx="766" cy="-132" rx="77.7817" ry="18.3848"/>
<text text-anchor="middle" x="766" y="-128.4" font-family="Times Roman,serif" font-size="14.00">Loader finds..</text>
</g>
<!-- Loader finds..&#45;&gt;realname -->
<g id="edge10" class="edge"><title>Loader finds..&#45;&gt;realname</title>
<path fill="none" stroke="black" d="M766,-113.938C766,-105.384 766,-96.8301 766,-88.2761"/>
<polygon fill="black" stroke="black" points="769.5,-88.2343 766,-78.2344 762.5,-88.2344 769.5,-88.2343"/>
</g>
</g>
</svg>
