<?xml version="1.0" encoding="UTF-8" standalone="no"?>
<!DOCTYPE svg PUBLIC "-//W3C//DTD SVG 1.0//EN"
 "http://www.w3.org/TR/2001/REC-SVG-20010904/DTD/svg10.dtd" [
 <!ATTLIST svg xmlns:xlink CDATA #FIXED "http://www.w3.org/1999/xlink">
]>
<!-- Generated by Graphviz version 2.20.2 (Tue Mar &#160;2 21:46:26 UTC 2010)
     For user: (joost) Joost Helberg,,, -->
<!-- Title: G Pages: 1 -->
<svg width="256pt" height="651pt"
 viewBox="0.00 0.00 256.00 651.00" xmlns="http://www.w3.org/2000/svg" xmlns:xlink="http://www.w3.org/1999/xlink">
<g id="graph0" class="graph" transform="scale(1 1) rotate(0) translate(4 647)">
<title>G</title>
<polygon style="fill:white;stroke:white;" points="-4,4 -4,-647 252,-647 252,4 -4,4"/>
<g id="cluster2" class="cluster"><title>cluster_0</title>
<polygon style="fill:none;stroke:black;" points="8,-16 8,-635 240,-635 240,-16 8,-16"/>
<text text-anchor="middle" x="203" y="-618.9" style="font-family:Times New Roman;font-size:14.00;">/dev/hda</text>
</g>
<g id="cluster3" class="cluster"><title>cluster_1</title>
<polygon style="fill:none;stroke:black;" points="37,-537 37,-602 211,-602 211,-537 37,-537"/>
<text text-anchor="middle" x="169" y="-585.9" style="font-family:Times New Roman;font-size:14.00;">/dev/hda1</text>
</g>
<g id="cluster4" class="cluster"><title>cluster_2</title>
<polygon style="fill:none;stroke:black;" points="37,-464 37,-529 211,-529 211,-464 37,-464"/>
<text text-anchor="middle" x="169" y="-512.9" style="font-family:Times New Roman;font-size:14.00;">/dev/hda2</text>
</g>
<g id="cluster5" class="cluster"><title>cluster_3</title>
<polygon style="fill:none;stroke:black;" points="16,-131 16,-456 232,-456 232,-131 16,-131"/>
<text text-anchor="middle" x="190" y="-439.9" style="font-family:Times New Roman;font-size:14.00;">/dev/hda3</text>
</g>
<g id="cluster6" class="cluster"><title>cluster_3a</title>
<polygon style="fill:none;stroke:black;" points="24,-375 24,-423 224,-423 224,-375 24,-375"/>
</g>
<g id="cluster7" class="cluster"><title>cluster_3b</title>
<polygon style="fill:none;stroke:black;" points="37,-302 37,-367 211,-367 211,-302 37,-302"/>
<text text-anchor="middle" x="169" y="-350.9" style="font-family:Times New Roman;font-size:14.00;">/dev/hda5</text>
</g>
<g id="cluster8" class="cluster"><title>cluster_3c</title>
<polygon style="fill:none;stroke:black;" points="24,-246 24,-294 224,-294 224,-246 24,-246"/>
</g>
<g id="cluster9" class="cluster"><title>cluster_3d</title>
<polygon style="fill:none;stroke:black;" points="37,-173 37,-238 211,-238 211,-173 37,-173"/>
<text text-anchor="middle" x="169" y="-221.9" style="font-family:Times New Roman;font-size:14.00;">/dev/hda6</text>
</g>
<g id="cluster10" class="cluster"><title>cluster_4</title>
<polygon style="fill:none;stroke:black;" points="37,-58 37,-123 211,-123 211,-58 37,-58"/>
<text text-anchor="middle" x="169" y="-106.9" style="font-family:Times New Roman;font-size:14.00;">/dev/hda4</text>
</g>
<!-- Partition table -->
<g id="node2" class="node"><title>Partition table</title>
<text text-anchor="middle" x="124" y="-31.9" style="font-family:Times New Roman;font-size:14.00;">Partition table</text>
</g>
<!-- Partition 1 -->
<g id="node4" class="node"><title>Partition 1</title>
<text text-anchor="middle" x="124" y="-552.9" style="font-family:Times New Roman;font-size:14.00;">Partition 1</text>
</g>
<!-- Partition 2 -->
<g id="node6" class="node"><title>Partition 2</title>
<text text-anchor="middle" x="124" y="-479.9" style="font-family:Times New Roman;font-size:14.00;">Partition 2</text>
</g>
<!-- Extended Partition -->
<g id="node8" class="node"><title>Extended Partition</title>
<text text-anchor="middle" x="124" y="-146.9" style="font-family:Times New Roman;font-size:14.00;">Extended Partition</text>
</g>
<!-- Extended partition table1 -->
<g id="node10" class="node"><title>Extended partition table1</title>
<text text-anchor="middle" x="124" y="-390.9" style="font-family:Times New Roman;font-size:14.00;">Extended partition table</text>
</g>
<!-- Partition 3 -->
<g id="node12" class="node"><title>Partition 3</title>
<text text-anchor="middle" x="124" y="-317.9" style="font-family:Times New Roman;font-size:14.00;">Partition 3</text>
</g>
<!-- Extended partition table -->
<g id="node14" class="node"><title>Extended partition table</title>
<text text-anchor="middle" x="124" y="-261.9" style="font-family:Times New Roman;font-size:14.00;">Extended partition table</text>
</g>
<!-- Partition 4 -->
<g id="node16" class="node"><title>Partition 4</title>
<text text-anchor="middle" x="124" y="-188.9" style="font-family:Times New Roman;font-size:14.00;">Partition 4</text>
</g>
<!-- Partition 5 -->
<g id="node18" class="node"><title>Partition 5</title>
<text text-anchor="middle" x="124" y="-73.9" style="font-family:Times New Roman;font-size:14.00;">Partition 5</text>
</g>
</g>
</svg>
