<?xml version="1.0" encoding="UTF-8" standalone="no"?>
<!DOCTYPE svg PUBLIC "-//W3C//DTD SVG 1.0//EN"
 "http://www.w3.org/TR/2001/REC-SVG-20010904/DTD/svg10.dtd" [
 <!ATTLIST svg xmlns:xlink CDATA #FIXED "http://www.w3.org/1999/xlink">
]>
<!-- Generated by Graphviz version 2.20.2 (Tue Mar &#160;2 21:46:26 UTC 2010)
     For user: (joost) Joost Helberg,,, -->
<!-- Title: G Pages: 1 -->
<svg width="768pt" height="136pt"
 viewBox="0.00 0.00 768.00 136.00" xmlns="http://www.w3.org/2000/svg" xmlns:xlink="http://www.w3.org/1999/xlink">
<g id="graph0" class="graph" transform="scale(1 1) rotate(0) translate(4 132)">
<title>G</title>
<polygon style="fill:white;stroke:white;" points="-4,4 -4,-132 764,-132 764,4 -4,4"/>
<!-- linkname -->
<g id="node1" class="node"><title>linkname</title>
<polygon style="fill:none;stroke:black;" points="30,-12 30,-62 114,-62 114,-12 30,-12"/>
<text text-anchor="middle" x="72" y="-44.9" style="font-family:Times New Roman;font-size:14.00;">Linkname</text>
<polyline style="fill:none;stroke:black;" points="30,-37 114,-37 "/>
<text text-anchor="middle" x="72" y="-19.9" style="font-family:Times New Roman;font-size:14.00;">libfoo.so</text>
</g>
<!-- soname -->
<g id="node2" class="node"><title>soname</title>
<polygon style="fill:none;stroke:black;" points="320,1 320,-74 433,-74 433,1 320,1"/>
<text text-anchor="middle" x="376" y="-56.9" style="font-family:Times New Roman;font-size:14.00;">Soname</text>
<polyline style="fill:none;stroke:black;" points="320,-49 433,-49 "/>
<text text-anchor="middle" x="376" y="-31.9" style="font-family:Times New Roman;font-size:14.00;">libfoo.so.1</text>
<polyline style="fill:none;stroke:black;" points="320,-24 433,-24 "/>
<text text-anchor="middle" x="376" y="-6.9" style="font-family:Times New Roman;font-size:14.00;">libfoo.so.1.0.2</text>
</g>
<!-- linkname&#45;&gt;soname -->
<g id="edge2" class="edge"><title>linkname&#45;&gt;soname</title>
<path style="fill:none;stroke:black;" d="M114,-37C165,-37 250,-37 310,-37"/>
<polygon style="fill:black;stroke:black;" points="310,-40.5001 320,-37 310,-33.5001 310,-40.5001"/>
<text text-anchor="middle" x="189" y="-40.9" style="font-family:Times New Roman;font-size:14.00;">symlink</text>
</g>
<!-- realname -->
<g id="node3" class="node"><title>realname</title>
<polygon style="fill:none;stroke:black;" points="628,1 628,-74 741,-74 741,1 628,1"/>
<text text-anchor="middle" x="684" y="-56.9" style="font-family:Times New Roman;font-size:14.00;">Real name</text>
<polyline style="fill:none;stroke:black;" points="628,-49 741,-49 "/>
<text text-anchor="middle" x="684" y="-31.9" style="font-family:Times New Roman;font-size:14.00;">libfoo.so.1.0.4</text>
<polyline style="fill:none;stroke:black;" points="628,-24 741,-24 "/>
<text text-anchor="middle" x="684" y="-6.9" style="font-family:Times New Roman;font-size:14.00;">libfoo.so.1.0.2</text>
</g>
<!-- soname&#45;&gt;realname -->
<g id="edge4" class="edge"><title>soname&#45;&gt;realname</title>
<path style="fill:none;stroke:black;" d="M433,-37C486,-37 563,-37 618,-37"/>
<polygon style="fill:black;stroke:black;" points="618,-40.5001 628,-37 618,-33.5001 618,-40.5001"/>
<text text-anchor="middle" x="563" y="-40.9" style="font-family:Times New Roman;font-size:14.00;">symlink</text>
</g>
<!-- soname&#45;&gt;realname -->
<g id="edge6" class="edge"><title>soname&#45;&gt;realname</title>
<path style="fill:none;stroke:black;stroke-dasharray:1,5;" d="M433,-12C486,-12 563,-12 618,-12"/>
<polygon style="fill:black;stroke:black;" points="618,-15.5001 628,-12 618,-8.5001 618,-15.5001"/>
</g>
<!-- Linker uses.. -->
<g id="node7" class="node"><title>Linker uses..</title>
<ellipse style="fill:none;stroke:black;" cx="72" cy="-98" rx="71.0724" ry="18"/>
<text text-anchor="middle" x="72" y="-93.9" style="font-family:Times New Roman;font-size:14.00;">Linker uses..</text>
</g>
<!-- Executable asks loader for.. -->
<g id="node9" class="node"><title>Executable asks loader for..</title>
<ellipse style="fill:none;stroke:black;" cx="376" cy="-110" rx="141.756" ry="18"/>
<text text-anchor="middle" x="376" y="-105.9" style="font-family:Times New Roman;font-size:14.00;">Executable asks loader for..</text>
</g>
<!-- Loader finds.. -->
<g id="node11" class="node"><title>Loader finds..</title>
<ellipse style="fill:none;stroke:black;" cx="684" cy="-110" rx="75.2406" ry="18"/>
<text text-anchor="middle" x="684" y="-105.9" style="font-family:Times New Roman;font-size:14.00;">Loader finds..</text>
</g>
</g>
</svg>
