<?xml version="1.0" encoding="UTF-8" standalone="no"?>
<!DOCTYPE svg PUBLIC "-//W3C//DTD SVG 1.1//EN"
 "http://www.w3.org/Graphics/SVG/1.1/DTD/svg11.dtd">
<!-- Generated by graphviz version 2.40.1 (20161225.0304)
 -->
<!-- Title: G Pages: 1 -->
<svg width="469pt" height="260pt"
 viewBox="0.00 0.00 468.99 260.00" xmlns="http://www.w3.org/2000/svg" xmlns:xlink="http://www.w3.org/1999/xlink">
<g id="graph0" class="graph" transform="scale(1 1) rotate(0) translate(4 256)">
<title>G</title>
<polygon fill="#ffffff" stroke="transparent" points="-4,4 -4,-256 464.9908,-256 464.9908,4 -4,4"/>
<g id="clust1" class="cluster">
<title>cluster_0</title>
<polygon fill="none" stroke="#000000" points="8,-60 8,-215 329,-215 329,-60 8,-60"/>
<text text-anchor="middle" x="168.5" y="-199.8" font-family="Times,serif" font-size="14.00" fill="#000000">Volume Group</text>
</g>
<!-- disk -->
<g id="node1" class="node">
<title>disk</title>
<polygon fill="none" stroke="#000000" points="16,-68.5 16,-183.5 321,-183.5 321,-68.5 16,-68.5"/>
<text text-anchor="middle" x="92" y="-168.3" font-family="Times,serif" font-size="14.00" fill="#000000">filesystem</text>
<polyline fill="none" stroke="#000000" points="168,-160.5 168,-183.5 "/>
<text text-anchor="middle" x="244.5" y="-168.3" font-family="Times,serif" font-size="14.00" fill="#000000">filesystem</text>
<polyline fill="none" stroke="#000000" points="16,-160.5 321,-160.5 "/>
<text text-anchor="middle" x="92" y="-145.3" font-family="Times,serif" font-size="14.00" fill="#000000">logical volume</text>
<polyline fill="none" stroke="#000000" points="168,-137.5 168,-160.5 "/>
<text text-anchor="middle" x="244.5" y="-145.3" font-family="Times,serif" font-size="14.00" fill="#000000">logical volume</text>
<polyline fill="none" stroke="#000000" points="16,-137.5 321,-137.5 "/>
<text text-anchor="middle" x="26.5" y="-122.3" font-family="Times,serif" font-size="14.00" fill="#000000"> </text>
<polyline fill="none" stroke="#000000" points="37,-114.5 37,-137.5 "/>
<text text-anchor="middle" x="47.5" y="-122.3" font-family="Times,serif" font-size="14.00" fill="#000000"> </text>
<polyline fill="none" stroke="#000000" points="58,-114.5 58,-137.5 "/>
<text text-anchor="middle" x="68.5" y="-122.3" font-family="Times,serif" font-size="14.00" fill="#000000"> </text>
<polyline fill="none" stroke="#000000" points="79,-114.5 79,-137.5 "/>
<text text-anchor="middle" x="89.5" y="-122.3" font-family="Times,serif" font-size="14.00" fill="#000000"> </text>
<polyline fill="none" stroke="#000000" points="100,-114.5 100,-137.5 "/>
<text text-anchor="middle" x="168.5" y="-122.3" font-family="Times,serif" font-size="14.00" fill="#000000">physical extends</text>
<polyline fill="none" stroke="#000000" points="237,-114.5 237,-137.5 "/>
<text text-anchor="middle" x="247.5" y="-122.3" font-family="Times,serif" font-size="14.00" fill="#000000"> </text>
<polyline fill="none" stroke="#000000" points="258,-114.5 258,-137.5 "/>
<text text-anchor="middle" x="268.5" y="-122.3" font-family="Times,serif" font-size="14.00" fill="#000000"> </text>
<polyline fill="none" stroke="#000000" points="279,-114.5 279,-137.5 "/>
<text text-anchor="middle" x="289.5" y="-122.3" font-family="Times,serif" font-size="14.00" fill="#000000"> </text>
<polyline fill="none" stroke="#000000" points="300,-114.5 300,-137.5 "/>
<text text-anchor="middle" x="310.5" y="-122.3" font-family="Times,serif" font-size="14.00" fill="#000000"> </text>
<polyline fill="none" stroke="#000000" points="16,-114.5 321,-114.5 "/>
<text text-anchor="middle" x="168.5" y="-99.3" font-family="Times,serif" font-size="14.00" fill="#000000">physical volume</text>
<polyline fill="none" stroke="#000000" points="16,-91.5 321,-91.5 "/>
<text text-anchor="middle" x="168.5" y="-76.3" font-family="Times,serif" font-size="14.00" fill="#000000">partition</text>
</g>
<!-- mkfs -->
<g id="node2" class="node">
<title>mkfs</title>
<ellipse fill="none" stroke="#000000" cx="408.9954" cy="-234" rx="33.5952" ry="18"/>
<text text-anchor="middle" x="408.9954" y="-230.3" font-family="Times,serif" font-size="14.00" fill="#000000">mkfs</text>
</g>
<!-- disk&#45;&#45;mkfs -->
<g id="edge1" class="edge">
<title>disk:f0&#45;&#45;mkfs</title>
<path fill="none" stroke="#000000" d="M321.5,-172C343.6566,-172 339.079,-193.9711 357,-207 364.9802,-212.8018 374.3779,-218.0833 382.9732,-222.4058"/>
</g>
<!-- lvcreate -->
<g id="node3" class="node">
<title>lvcreate</title>
<ellipse fill="none" stroke="#000000" cx="408.9954" cy="-180" rx="48.9926" ry="18"/>
<text text-anchor="middle" x="408.9954" y="-176.3" font-family="Times,serif" font-size="14.00" fill="#000000">lvcreate</text>
</g>
<!-- disk&#45;&#45;lvcreate -->
<g id="edge2" class="edge">
<title>disk:f1&#45;&#45;lvcreate</title>
<path fill="none" stroke="#000000" d="M321.5,-149C342.45,-149 364.6854,-156.9941 381.4983,-164.8633"/>
</g>
<!-- vgcreate -->
<g id="node4" class="node">
<title>vgcreate</title>
<ellipse fill="none" stroke="#000000" cx="408.9954" cy="-126" rx="51.9908" ry="18"/>
<text text-anchor="middle" x="408.9954" y="-122.3" font-family="Times,serif" font-size="14.00" fill="#000000">vgcreate</text>
</g>
<!-- disk&#45;&#45;vgcreate -->
<g id="edge3" class="edge">
<title>disk:f2&#45;&#45;vgcreate</title>
<path fill="none" stroke="#000000" d="M321.5,-126C332.8926,-126 345.1197,-126 356.7144,-126"/>
</g>
<!-- pvcreate -->
<g id="node5" class="node">
<title>pvcreate</title>
<ellipse fill="none" stroke="#000000" cx="408.9954" cy="-72" rx="51.9908" ry="18"/>
<text text-anchor="middle" x="408.9954" y="-68.3" font-family="Times,serif" font-size="14.00" fill="#000000">pvcreate</text>
</g>
<!-- disk&#45;&#45;pvcreate -->
<g id="edge4" class="edge">
<title>disk:f3&#45;&#45;pvcreate</title>
<path fill="none" stroke="#000000" d="M321.5,-103C342.2889,-103 364.3434,-95.1284 381.1093,-87.3184"/>
</g>
<!-- fdisk -->
<g id="node6" class="node">
<title>fdisk</title>
<ellipse fill="none" stroke="#000000" cx="408.9954" cy="-18" rx="33.5952" ry="18"/>
<text text-anchor="middle" x="408.9954" y="-14.3" font-family="Times,serif" font-size="14.00" fill="#000000">fdisk</text>
</g>
<!-- disk&#45;&#45;fdisk -->
<g id="edge5" class="edge">
<title>disk:f4&#45;&#45;fdisk</title>
<path fill="none" stroke="#000000" d="M321.5,-80C343.6566,-80 339.079,-58.0289 357,-45 364.9802,-39.1982 374.3779,-33.9167 382.9732,-29.5942"/>
</g>
</g>
</svg>
