<?xml version="1.0" encoding="UTF-8" standalone="no"?>
<!DOCTYPE svg PUBLIC "-//W3C//DTD SVG 1.1//EN"
 "http://www.w3.org/Graphics/SVG/1.1/DTD/svg11.dtd">
<!-- Generated by graphviz version 2.40.1 (20161225.0304)
 -->
<!-- Title: G Pages: 1 -->
<svg width="307pt" height="287pt"
 viewBox="0.00 0.00 307.00 287.00" xmlns="http://www.w3.org/2000/svg" xmlns:xlink="http://www.w3.org/1999/xlink">
<g id="graph0" class="graph" transform="scale(1 1) rotate(0) translate(4 283)">
<title>G</title>
<polygon fill="#ffffff" stroke="transparent" points="-4,4 -4,-283 303,-283 303,4 -4,4"/>
<text text-anchor="middle" x="149.5" y="-7.8" font-family="Times,serif" font-size="14.00" fill="#000000">Relations between Apache and SSL related projects</text>
<!-- SSLeay -->
<g id="node1" class="node">
<title>SSLeay</title>
<polygon fill="none" stroke="#000000" points="81.75,-242.5 81.75,-278.5 140.75,-278.5 140.75,-242.5 81.75,-242.5"/>
<text text-anchor="middle" x="111.25" y="-256.8" font-family="Times,serif" font-size="14.00" fill="#000000">SSLeay</text>
</g>
<!-- OpenSSL -->
<g id="node2" class="node">
<title>OpenSSL</title>
<polygon fill="none" stroke="#000000" points="76.75,-169.5 76.75,-205.5 145.75,-205.5 145.75,-169.5 76.75,-169.5"/>
<text text-anchor="middle" x="111.25" y="-183.8" font-family="Times,serif" font-size="14.00" fill="#000000">OpenSSL</text>
</g>
<!-- SSLeay&#45;&gt;OpenSSL -->
<g id="edge1" class="edge">
<title>SSLeay&#45;&gt;OpenSSL</title>
<path fill="none" stroke="#000000" d="M111.25,-242.4551C111.25,-234.3828 111.25,-224.6764 111.25,-215.6817"/>
<polygon fill="#000000" stroke="#000000" points="114.7501,-215.5903 111.25,-205.5904 107.7501,-215.5904 114.7501,-215.5903"/>
</g>
<!-- Apache&#45;SSL -->
<g id="node3" class="node">
<title>Apache&#45;SSL</title>
<polygon fill="none" stroke="#000000" points="109.25,-96.5 109.25,-132.5 195.25,-132.5 195.25,-96.5 109.25,-96.5"/>
<text text-anchor="middle" x="152.25" y="-110.8" font-family="Times,serif" font-size="14.00" fill="#000000">Apache&#45;SSL</text>
</g>
<!-- OpenSSL&#45;&gt;Apache&#45;SSL -->
<g id="edge2" class="edge">
<title>OpenSSL&#45;&gt;Apache&#45;SSL</title>
<path fill="none" stroke="#000000" d="M121.3848,-169.4551C126.1157,-161.0319 131.8459,-150.8292 137.0785,-141.5128"/>
<polygon fill="#000000" stroke="#000000" points="140.2443,-143.0233 142.0897,-132.5904 134.141,-139.5954 140.2443,-143.0233"/>
</g>
<!-- mod_ssl -->
<g id="node4" class="node">
<title>mod_ssl</title>
<polygon fill="none" stroke="#000000" points="121.25,-23.5 121.25,-59.5 183.25,-59.5 183.25,-23.5 121.25,-23.5"/>
<text text-anchor="middle" x="152.25" y="-37.8" font-family="Times,serif" font-size="14.00" fill="#000000">mod_ssl</text>
</g>
<!-- Apache&#45;SSL&#45;&gt;mod_ssl -->
<g id="edge3" class="edge">
<title>Apache&#45;SSL&#45;&gt;mod_ssl</title>
<path fill="none" stroke="#000000" d="M152.25,-96.4551C152.25,-88.3828 152.25,-78.6764 152.25,-69.6817"/>
<polygon fill="#000000" stroke="#000000" points="155.7501,-69.5903 152.25,-59.5904 148.7501,-69.5904 155.7501,-69.5903"/>
</g>
<!-- Apache -->
<g id="node5" class="node">
<title>Apache</title>
<polygon fill="none" stroke="#000000" points="164.25,-169.5 164.25,-205.5 222.25,-205.5 222.25,-169.5 164.25,-169.5"/>
<text text-anchor="middle" x="193.25" y="-183.8" font-family="Times,serif" font-size="14.00" fill="#000000">Apache</text>
</g>
<!-- Apache&#45;&gt;Apache&#45;SSL -->
<g id="edge4" class="edge">
<title>Apache&#45;&gt;Apache&#45;SSL</title>
<path fill="none" stroke="#000000" d="M183.1152,-169.4551C178.3843,-161.0319 172.6541,-150.8292 167.4215,-141.5128"/>
<polygon fill="#000000" stroke="#000000" points="170.359,-139.5954 162.4103,-132.5904 164.2557,-143.0233 170.359,-139.5954"/>
</g>
</g>
</svg>
