<?xml version="1.0" encoding="UTF-8" standalone="no"?>
<!DOCTYPE svg PUBLIC "-//W3C//DTD SVG 1.1//EN"
 "http://www.w3.org/Graphics/SVG/1.1/DTD/svg11.dtd">
<!-- Generated by graphviz version 2.40.1 (20161225.0304)
 -->
<!-- Title: G Pages: 1 -->
<svg width="689pt" height="770pt"
 viewBox="0.00 0.00 688.89 770.00" xmlns="http://www.w3.org/2000/svg" xmlns:xlink="http://www.w3.org/1999/xlink">
<g id="graph0" class="graph" transform="scale(1 1) rotate(0) translate(4 766)">
<title>G</title>
<polygon fill="#ffffff" stroke="transparent" points="-4,4 -4,-766 684.8939,-766 684.8939,4 -4,4"/>
<!-- floor1 -->
<g id="node1" class="node">
<title>floor1</title>
<polygon fill="none" stroke="#000000" points="0,-715.5 0,-761.5 144,-761.5 144,-715.5 0,-715.5"/>
<text text-anchor="middle" x="72" y="-746.3" font-family="Times,serif" font-size="14.00" fill="#000000">Floor 1</text>
<polyline fill="none" stroke="#000000" points="0,-738.5 144,-738.5 "/>
<text text-anchor="middle" x="72" y="-723.3" font-family="Times,serif" font-size="14.00" fill="#000000">LPRT&#45;01</text>
</g>
<!-- salesrouter -->
<g id="node13" class="node">
<title>salesrouter</title>
<polygon fill="none" stroke="#000000" points="180,-621.5 180,-659.5 396,-659.5 396,-621.5 180,-621.5"/>
<text text-anchor="middle" x="288" y="-644.3" font-family="Times,serif" font-size="14.00" fill="#000000">Sales router</text>
<text text-anchor="middle" x="288" y="-629.3" font-family="Times,serif" font-size="14.00" fill="#000000">and DHCP relay</text>
</g>
<!-- floor1&#45;&gt;salesrouter -->
<g id="edge1" class="edge">
<title>floor1&#45;&gt;salesrouter</title>
<path fill="none" stroke="#000000" d="M123.944,-715.4993C130.6967,-712.4842 137.5168,-709.4263 144,-706.5 178.716,-690.8302 218.0167,-672.7976 246.78,-659.5453"/>
</g>
<!-- floor2 -->
<g id="node2" class="node">
<title>floor2</title>
<polygon fill="none" stroke="#000000" points="0,-650.5 0,-696.5 144,-696.5 144,-650.5 0,-650.5"/>
<text text-anchor="middle" x="72" y="-681.3" font-family="Times,serif" font-size="14.00" fill="#000000">Floor 2</text>
<polyline fill="none" stroke="#000000" points="0,-673.5 144,-673.5 "/>
<text text-anchor="middle" x="72" y="-658.3" font-family="Times,serif" font-size="14.00" fill="#000000">LPRT&#45;02 CLPRT&#45;12</text>
</g>
<!-- floor2&#45;&gt;salesrouter -->
<g id="edge2" class="edge">
<title>floor2&#45;&gt;salesrouter</title>
<path fill="none" stroke="#000000" d="M144.2252,-662.4656C155.6309,-660.7231 167.6367,-658.8888 179.6484,-657.0537"/>
</g>
<!-- floor3 -->
<g id="node3" class="node">
<title>floor3</title>
<polygon fill="none" stroke="#000000" points="0,-585.5 0,-631.5 144,-631.5 144,-585.5 0,-585.5"/>
<text text-anchor="middle" x="72" y="-616.3" font-family="Times,serif" font-size="14.00" fill="#000000">Floor 3</text>
<polyline fill="none" stroke="#000000" points="0,-608.5 144,-608.5 "/>
<text text-anchor="middle" x="72" y="-593.3" font-family="Times,serif" font-size="14.00" fill="#000000">LPRT&#45;03</text>
</g>
<!-- floor3&#45;&gt;salesrouter -->
<g id="edge3" class="edge">
<title>floor3&#45;&gt;salesrouter</title>
<path fill="none" stroke="#000000" d="M144.2252,-619.2C155.6309,-620.8898 167.6367,-622.6684 179.6484,-624.4479"/>
</g>
<!-- floor4 -->
<g id="node4" class="node">
<title>floor4</title>
<polygon fill="none" stroke="#000000" points="0,-520.5 0,-566.5 144,-566.5 144,-520.5 0,-520.5"/>
<text text-anchor="middle" x="72" y="-551.3" font-family="Times,serif" font-size="14.00" fill="#000000">Floor 4</text>
<polyline fill="none" stroke="#000000" points="0,-543.5 144,-543.5 "/>
<text text-anchor="middle" x="72" y="-528.3" font-family="Times,serif" font-size="14.00" fill="#000000">LPRT&#45;04</text>
</g>
<!-- adminrouter -->
<g id="node14" class="node">
<title>adminrouter</title>
<polygon fill="none" stroke="#000000" points="180,-426.5 180,-464.5 396,-464.5 396,-426.5 180,-426.5"/>
<text text-anchor="middle" x="288" y="-449.3" font-family="Times,serif" font-size="14.00" fill="#000000">Administration router</text>
<text text-anchor="middle" x="288" y="-434.3" font-family="Times,serif" font-size="14.00" fill="#000000">and DHCP relay</text>
</g>
<!-- floor4&#45;&gt;adminrouter -->
<g id="edge4" class="edge">
<title>floor4&#45;&gt;adminrouter</title>
<path fill="none" stroke="#000000" d="M122.9155,-520.3995C160.3329,-503.423 210.579,-480.6262 245.774,-464.6581"/>
</g>
<!-- floor5 -->
<g id="node5" class="node">
<title>floor5</title>
<polygon fill="none" stroke="#000000" points="0,-455.5 0,-501.5 144,-501.5 144,-455.5 0,-455.5"/>
<text text-anchor="middle" x="72" y="-486.3" font-family="Times,serif" font-size="14.00" fill="#000000">Floor 5</text>
<polyline fill="none" stroke="#000000" points="0,-478.5 144,-478.5 "/>
<text text-anchor="middle" x="72" y="-463.3" font-family="Times,serif" font-size="14.00" fill="#000000">LPRT&#45;05 CLPRT&#45;5</text>
</g>
<!-- floor5&#45;&gt;adminrouter -->
<g id="edge5" class="edge">
<title>floor5&#45;&gt;adminrouter</title>
<path fill="none" stroke="#000000" d="M144.2252,-467.4656C155.6309,-465.7231 167.6367,-463.8888 179.6484,-462.0537"/>
</g>
<!-- floor6 -->
<g id="node6" class="node">
<title>floor6</title>
<polygon fill="none" stroke="#000000" points="0,-390.5 0,-436.5 144,-436.5 144,-390.5 0,-390.5"/>
<text text-anchor="middle" x="72" y="-421.3" font-family="Times,serif" font-size="14.00" fill="#000000">Floor 6</text>
<polyline fill="none" stroke="#000000" points="0,-413.5 144,-413.5 "/>
<text text-anchor="middle" x="72" y="-398.3" font-family="Times,serif" font-size="14.00" fill="#000000">LPRT&#45;06</text>
</g>
<!-- floor6&#45;&gt;adminrouter -->
<g id="edge6" class="edge">
<title>floor6&#45;&gt;adminrouter</title>
<path fill="none" stroke="#000000" d="M144.2252,-424.2C155.6309,-425.8898 167.6367,-427.6684 179.6484,-429.4479"/>
</g>
<!-- floor7 -->
<g id="node7" class="node">
<title>floor7</title>
<polygon fill="none" stroke="#000000" points="0,-325.5 0,-371.5 144,-371.5 144,-325.5 0,-325.5"/>
<text text-anchor="middle" x="72" y="-356.3" font-family="Times,serif" font-size="14.00" fill="#000000">Floor 7</text>
<polyline fill="none" stroke="#000000" points="0,-348.5 144,-348.5 "/>
<text text-anchor="middle" x="72" y="-333.3" font-family="Times,serif" font-size="14.00" fill="#000000">LPRT&#45;07</text>
</g>
<!-- engrouter -->
<g id="node15" class="node">
<title>engrouter</title>
<polygon fill="none" stroke="#000000" points="180,-296.5 180,-334.5 396,-334.5 396,-296.5 180,-296.5"/>
<text text-anchor="middle" x="288" y="-319.3" font-family="Times,serif" font-size="14.00" fill="#000000">Engineering router</text>
<text text-anchor="middle" x="288" y="-304.3" font-family="Times,serif" font-size="14.00" fill="#000000">and DHCP relay</text>
</g>
<!-- floor7&#45;&gt;engrouter -->
<g id="edge7" class="edge">
<title>floor7&#45;&gt;engrouter</title>
<path fill="none" stroke="#000000" d="M144.2252,-337.4656C155.6309,-335.7231 167.6367,-333.8888 179.6484,-332.0537"/>
</g>
<!-- floor8 -->
<g id="node8" class="node">
<title>floor8</title>
<polygon fill="none" stroke="#000000" points="0,-260.5 0,-306.5 144,-306.5 144,-260.5 0,-260.5"/>
<text text-anchor="middle" x="72" y="-291.3" font-family="Times,serif" font-size="14.00" fill="#000000">Floor 8</text>
<polyline fill="none" stroke="#000000" points="0,-283.5 144,-283.5 "/>
<text text-anchor="middle" x="72" y="-268.3" font-family="Times,serif" font-size="14.00" fill="#000000">LPRT&#45;08 CLPRT&#45;8</text>
</g>
<!-- floor8&#45;&gt;engrouter -->
<g id="edge8" class="edge">
<title>floor8&#45;&gt;engrouter</title>
<path fill="none" stroke="#000000" d="M144.2252,-294.2C155.6309,-295.8898 167.6367,-297.6684 179.6484,-299.4479"/>
</g>
<!-- floor9 -->
<g id="node9" class="node">
<title>floor9</title>
<polygon fill="none" stroke="#000000" points="0,-195.5 0,-241.5 144,-241.5 144,-195.5 0,-195.5"/>
<text text-anchor="middle" x="72" y="-226.3" font-family="Times,serif" font-size="14.00" fill="#000000">Floor 9</text>
<polyline fill="none" stroke="#000000" points="0,-218.5 144,-218.5 "/>
<text text-anchor="middle" x="72" y="-203.3" font-family="Times,serif" font-size="14.00" fill="#000000">LPRT&#45;09</text>
</g>
<!-- floor9&#45;&gt;engrouter -->
<g id="edge9" class="edge">
<title>floor9&#45;&gt;engrouter</title>
<path fill="none" stroke="#000000" d="M123.928,-241.5362C130.6833,-244.5456 137.5084,-247.5923 144,-250.5 178.2946,-265.861 217.1237,-283.3964 245.8123,-296.3797"/>
</g>
<!-- floor10 -->
<g id="node10" class="node">
<title>floor10</title>
<polygon fill="none" stroke="#000000" points="0,-130.5 0,-176.5 144,-176.5 144,-130.5 0,-130.5"/>
<text text-anchor="middle" x="72" y="-161.3" font-family="Times,serif" font-size="14.00" fill="#000000">Floor 10</text>
<polyline fill="none" stroke="#000000" points="0,-153.5 144,-153.5 "/>
<text text-anchor="middle" x="72" y="-138.3" font-family="Times,serif" font-size="14.00" fill="#000000">LPRT&#45;10</text>
</g>
<!-- mngmtrouter -->
<g id="node16" class="node">
<title>mngmtrouter</title>
<polygon fill="none" stroke="#000000" points="180,-102.5 180,-140.5 396,-140.5 396,-102.5 180,-102.5"/>
<text text-anchor="middle" x="288" y="-125.3" font-family="Times,serif" font-size="14.00" fill="#000000">Management router</text>
<text text-anchor="middle" x="288" y="-110.3" font-family="Times,serif" font-size="14.00" fill="#000000">and DHCP relay</text>
</g>
<!-- floor10&#45;&gt;mngmtrouter -->
<g id="edge10" class="edge">
<title>floor10&#45;&gt;mngmtrouter</title>
<path fill="none" stroke="#000000" d="M144.2252,-142.8C155.6309,-141.1102 167.6367,-139.3316 179.6484,-137.5521"/>
</g>
<!-- floor11 -->
<g id="node11" class="node">
<title>floor11</title>
<polygon fill="none" stroke="#000000" points="0,-65.5 0,-111.5 144,-111.5 144,-65.5 0,-65.5"/>
<text text-anchor="middle" x="72" y="-96.3" font-family="Times,serif" font-size="14.00" fill="#000000">Floor 11</text>
<polyline fill="none" stroke="#000000" points="0,-88.5 144,-88.5 "/>
<text text-anchor="middle" x="72" y="-73.3" font-family="Times,serif" font-size="14.00" fill="#000000">LPRT&#45;11 CLPRT&#45;11</text>
</g>
<!-- floor11&#45;&gt;mngmtrouter -->
<g id="edge11" class="edge">
<title>floor11&#45;&gt;mngmtrouter</title>
<path fill="none" stroke="#000000" d="M144.2252,-99.5344C155.6309,-101.2769 167.6367,-103.1112 179.6484,-104.9463"/>
</g>
<!-- floor12 -->
<g id="node12" class="node">
<title>floor12</title>
<polygon fill="none" stroke="#000000" points="0,-.5 0,-46.5 144,-46.5 144,-.5 0,-.5"/>
<text text-anchor="middle" x="72" y="-31.3" font-family="Times,serif" font-size="14.00" fill="#000000">Floor 12</text>
<polyline fill="none" stroke="#000000" points="0,-23.5 144,-23.5 "/>
<text text-anchor="middle" x="72" y="-8.3" font-family="Times,serif" font-size="14.00" fill="#000000">LPRT&#45;12</text>
</g>
<!-- floor12&#45;&gt;mngmtrouter -->
<g id="edge12" class="edge">
<title>floor12&#45;&gt;mngmtrouter</title>
<path fill="none" stroke="#000000" d="M123.944,-46.5007C130.6967,-49.5158 137.5168,-52.5737 144,-55.5 178.716,-71.1698 218.0167,-89.2024 246.78,-102.4547"/>
</g>
<!-- LAN -->
<g id="node18" class="node">
<title>LAN</title>
<polygon fill="none" stroke="#000000" points="432,-362.5 432,-398.5 486,-398.5 486,-362.5 432,-362.5"/>
<text text-anchor="middle" x="459" y="-376.8" font-family="Times,serif" font-size="14.00" fill="#000000">LAN</text>
</g>
<!-- salesrouter&#45;&gt;LAN -->
<g id="edge13" class="edge">
<title>salesrouter&#45;&gt;LAN</title>
<path fill="none" stroke="#000000" d="M300.574,-621.3816C332.4286,-572.9478 415.9757,-445.9171 447.0939,-398.6028"/>
</g>
<!-- adminrouter&#45;&gt;LAN -->
<g id="edge14" class="edge">
<title>adminrouter&#45;&gt;LAN</title>
<path fill="none" stroke="#000000" d="M338.3808,-426.3494C368.9211,-414.7405 406.6971,-400.3812 431.7509,-390.8578"/>
</g>
<!-- engrouter&#45;&gt;LAN -->
<g id="edge15" class="edge">
<title>engrouter&#45;&gt;LAN</title>
<path fill="none" stroke="#000000" d="M338.3808,-334.6506C368.9211,-346.2595 406.6971,-360.6188 431.7509,-370.1422"/>
</g>
<!-- mngmtrouter&#45;&gt;LAN -->
<g id="edge16" class="edge">
<title>mngmtrouter&#45;&gt;LAN</title>
<path fill="none" stroke="#000000" d="M300.574,-140.5449C332.4286,-188.7924 415.9757,-315.3345 447.0939,-362.4668"/>
</g>
<!-- internet -->
<g id="node17" class="node">
<title>internet</title>
<image xlink:href="icons/globe.png" width="54px" height="54px" preserveAspectRatio="xMinYMin meet" x="626.894" y="-543.5"/>
<text text-anchor="middle" x="653.8939" y="-484.3" font-family="Times,serif" font-size="14.00" fill="#000000">Internet</text>
</g>
<!-- firewall -->
<g id="node19" class="node">
<title>firewall</title>
<polygon fill="none" stroke="#000000" points="526.9469,-498.5 526.9469,-534.5 585.9469,-534.5 585.9469,-498.5 526.9469,-498.5"/>
<text text-anchor="middle" x="556.4469" y="-512.8" font-family="Times,serif" font-size="14.00" fill="#000000">firewall</text>
</g>
<!-- LAN&#45;&gt;firewall -->
<g id="edge17" class="edge">
<title>LAN&#45;&gt;firewall</title>
<path fill="none" stroke="#000000" d="M467.0535,-398.5932C477.6237,-421.1368 497.7149,-460.1414 522,-488.5 524.9075,-491.8952 528.2657,-495.1892 531.7211,-498.2535"/>
</g>
<!-- DHCP -->
<g id="node20" class="node">
<title>DHCP</title>
<ellipse fill="none" stroke="#000000" cx="556.4469" cy="-461.5" rx="34.394" ry="18"/>
<text text-anchor="middle" x="556.4469" y="-457.8" font-family="Times,serif" font-size="14.00" fill="#000000">DHCP</text>
</g>
<!-- LAN&#45;&gt;DHCP -->
<g id="edge19" class="edge">
<title>LAN&#45;&gt;DHCP</title>
<path fill="none" stroke="#000000" d="M479.8053,-398.7323C491.9904,-409.3097 507.7404,-422.8097 522,-434.5 526.8185,-438.4503 532.0844,-442.6401 537.0167,-446.5108"/>
</g>
<!-- DNS -->
<g id="node21" class="node">
<title>DNS</title>
<ellipse fill="none" stroke="#000000" cx="556.4469" cy="-407.5" rx="28.6953" ry="18"/>
<text text-anchor="middle" x="556.4469" y="-403.8" font-family="Times,serif" font-size="14.00" fill="#000000">DNS</text>
</g>
<!-- LAN&#45;&gt;DNS -->
<g id="edge20" class="edge">
<title>LAN&#45;&gt;DNS</title>
<path fill="none" stroke="#000000" d="M486.1444,-388.021C499.8855,-391.8283 516.4961,-396.4307 530.1205,-400.2056"/>
</g>
<!-- SMTP -->
<g id="node22" class="node">
<title>SMTP</title>
<ellipse fill="none" stroke="#000000" cx="556.4469" cy="-353.5" rx="34.394" ry="18"/>
<text text-anchor="middle" x="556.4469" y="-349.8" font-family="Times,serif" font-size="14.00" fill="#000000">SMTP</text>
</g>
<!-- LAN&#45;&gt;SMTP -->
<g id="edge21" class="edge">
<title>LAN&#45;&gt;SMTP</title>
<path fill="none" stroke="#000000" d="M486.1444,-372.979C498.4213,-369.5774 512.9888,-365.5411 525.6706,-362.0273"/>
</g>
<!-- POP3 -->
<g id="node23" class="node">
<title>POP3</title>
<ellipse fill="none" stroke="#000000" cx="556.4469" cy="-299.5" rx="31.3957" ry="18"/>
<text text-anchor="middle" x="556.4469" y="-295.8" font-family="Times,serif" font-size="14.00" fill="#000000">POP3</text>
</g>
<!-- LAN&#45;&gt;POP3 -->
<g id="edge22" class="edge">
<title>LAN&#45;&gt;POP3</title>
<path fill="none" stroke="#000000" d="M479.8053,-362.2677C491.9904,-351.6903 507.7404,-338.1903 522,-326.5 527.0535,-322.357 532.5992,-317.9505 537.736,-313.9252"/>
</g>
<!-- NTP -->
<g id="node24" class="node">
<title>NTP</title>
<ellipse fill="none" stroke="#000000" cx="556.4469" cy="-245.5" rx="27.0966" ry="18"/>
<text text-anchor="middle" x="556.4469" y="-241.8" font-family="Times,serif" font-size="14.00" fill="#000000">NTP</text>
</g>
<!-- LAN&#45;&gt;NTP -->
<g id="edge23" class="edge">
<title>LAN&#45;&gt;NTP</title>
<path fill="none" stroke="#000000" d="M466.9726,-362.3369C477.4594,-339.7212 497.4645,-300.6422 522,-272.5 526.3942,-267.4599 531.8378,-262.6944 537.0901,-258.6103"/>
</g>
<!-- firewall&#45;&gt;internet -->
<g id="edge18" class="edge">
<title>firewall&#45;&gt;internet</title>
<path fill="none" stroke="#000000" d="M585.9487,-516.5C598.9448,-516.5 614.1139,-516.5 626.8182,-516.5"/>
</g>
</g>
</svg>
