<?xml version="1.0" encoding="UTF-8" standalone="no"?>
<!DOCTYPE svg PUBLIC "-//W3C//DTD SVG 1.0//EN"
 "http://www.w3.org/TR/2001/REC-SVG-20010904/DTD/svg10.dtd" [
 <!ATTLIST svg xmlns:xlink CDATA #FIXED "http://www.w3.org/1999/xlink">
]>
<!-- Generated by Graphviz version 2.20.2 (Tue Mar &#160;2 21:46:26 UTC 2010)
     For user: (joost) Joost Helberg,,, -->
<!-- Title: G Pages: 1 -->
<svg width="495pt" height="620pt"
 viewBox="0.00 0.00 495.00 620.00" xmlns="http://www.w3.org/2000/svg" xmlns:xlink="http://www.w3.org/1999/xlink">
<g id="graph0" class="graph" transform="scale(1 1) rotate(0) translate(4 616)">
<title>G</title>
<polygon style="fill:white;stroke:white;" points="-4,4 -4,-616 491,-616 491,4 -4,4"/>
<!-- sanity1 -->
<g id="node1" class="node"><title>sanity1</title>
<polygon style="fill:none;stroke:black;" points="150,-504 150,-540 294,-540 294,-504 150,-504"/>
<text text-anchor="middle" x="222" y="-523.4" style="font-family:Times New Roman;font-size:14.00;">sanity</text>
</g>
<!-- INPUT -->
<g id="node7" class="node"><title>INPUT</title>
<polygon style="fill:none;stroke:black;" points="150,-432 150,-468 294,-468 294,-432 150,-432"/>
<text text-anchor="middle" x="222" y="-451.4" style="font-family:Times New Roman;font-size:14.00;">INPUT</text>
</g>
<!-- sanity1&#45;&gt;INPUT -->
<g id="edge4" class="edge"><title>sanity1&#45;&gt;INPUT</title>
<path style="fill:none;stroke:black;" d="M222,-504C222,-496 222,-487 222,-478"/>
<polygon style="fill:black;stroke:black;" points="225.5,-478 222,-468 218.5,-478 225.5,-478"/>
</g>
<!-- DENY2 -->
<g id="node24" class="node"><title>DENY2</title>
<text text-anchor="middle" x="384" y="-517.9" style="font-family:Times New Roman;font-size:14.00;">DENY</text>
</g>
<!-- sanity1&#45;&gt;DENY2 -->
<g id="edge34" class="edge"><title>sanity1&#45;&gt;DENY2</title>
<path style="fill:none;stroke:black;" d="M294,-522C297,-522 299,-522 302,-522"/>
<polygon style="fill:black;stroke:black;" points="302,-525.5 312,-522 302,-518.5 302,-525.5"/>
</g>
<!-- sanity2 -->
<g id="node2" class="node"><title>sanity2</title>
<polygon style="fill:none;stroke:black;" points="100,-216 100,-252 244,-252 244,-216 100,-216"/>
<text text-anchor="middle" x="172" y="-235.4" style="font-family:Times New Roman;font-size:14.00;">sanity</text>
</g>
<!-- FORWARD -->
<g id="node14" class="node"><title>FORWARD</title>
<polygon style="fill:none;stroke:black;" points="100,-144 100,-180 244,-180 244,-144 100,-144"/>
<text text-anchor="middle" x="172" y="-163.4" style="font-family:Times New Roman;font-size:14.00;">FORWARD</text>
</g>
<!-- sanity2&#45;&gt;FORWARD -->
<g id="edge12" class="edge"><title>sanity2&#45;&gt;FORWARD</title>
<path style="fill:none;stroke:black;" d="M172,-216C172,-208 172,-199 172,-190"/>
<polygon style="fill:black;stroke:black;" points="175.5,-190 172,-180 168.5,-190 175.5,-190"/>
</g>
<!-- DENY4 -->
<g id="node26" class="node"><title>DENY4</title>
<text text-anchor="middle" x="372" y="-229.9" style="font-family:Times New Roman;font-size:14.00;">DENY</text>
</g>
<!-- sanity2&#45;&gt;DENY4 -->
<g id="edge38" class="edge"><title>sanity2&#45;&gt;DENY4</title>
<path style="fill:none;stroke:black;" d="M244,-234C260,-234 274,-234 290,-234"/>
<polygon style="fill:black;stroke:black;" points="290,-237.5 300,-234 290,-230.5 290,-237.5"/>
</g>
<!-- sanity3 -->
<g id="node3" class="node"><title>sanity3</title>
<polygon style="fill:none;stroke:black;" points="181,-72 181,-108 325,-108 325,-72 181,-72"/>
<text text-anchor="middle" x="253" y="-91.4" style="font-family:Times New Roman;font-size:14.00;">sanity</text>
</g>
<!-- OUTPUT -->
<g id="node17" class="node"><title>OUTPUT</title>
<polygon style="fill:none;stroke:black;" points="181,-0 181,-36 325,-36 325,-0 181,-0"/>
<text text-anchor="middle" x="253" y="-19.4" style="font-family:Times New Roman;font-size:14.00;">OUTPUT</text>
</g>
<!-- sanity3&#45;&gt;OUTPUT -->
<g id="edge16" class="edge"><title>sanity3&#45;&gt;OUTPUT</title>
<path style="fill:none;stroke:black;" d="M253,-72C253,-64 253,-55 253,-46"/>
<polygon style="fill:black;stroke:black;" points="256.5,-46 253,-36 249.5,-46 256.5,-46"/>
</g>
<!-- DENY6 -->
<g id="node28" class="node"><title>DENY6</title>
<text text-anchor="middle" x="415" y="-85.9" style="font-family:Times New Roman;font-size:14.00;">DENY</text>
</g>
<!-- sanity3&#45;&gt;DENY6 -->
<g id="edge42" class="edge"><title>sanity3&#45;&gt;DENY6</title>
<path style="fill:none;stroke:black;" d="M325,-90C328,-90 330,-90 333,-90"/>
<polygon style="fill:black;stroke:black;" points="333,-93.5001 343,-90 333,-86.5001 333,-93.5001"/>
</g>
<!-- checksum -->
<g id="node4" class="node"><title>checksum</title>
<polygon style="fill:none;stroke:black;" points="150,-576 150,-612 294,-612 294,-576 150,-576"/>
<text text-anchor="middle" x="222" y="-595.4" style="font-family:Times New Roman;font-size:14.00;">checksum</text>
</g>
<!-- checksum&#45;&gt;sanity1 -->
<g id="edge2" class="edge"><title>checksum&#45;&gt;sanity1</title>
<path style="fill:none;stroke:black;" d="M222,-576C222,-568 222,-559 222,-550"/>
<polygon style="fill:black;stroke:black;" points="225.5,-550 222,-540 218.5,-550 225.5,-550"/>
</g>
<!-- DENY1 -->
<g id="node23" class="node"><title>DENY1</title>
<text text-anchor="middle" x="384" y="-589.9" style="font-family:Times New Roman;font-size:14.00;">DENY</text>
</g>
<!-- checksum&#45;&gt;DENY1 -->
<g id="edge32" class="edge"><title>checksum&#45;&gt;DENY1</title>
<path style="fill:none;stroke:black;" d="M294,-594C297,-594 299,-594 302,-594"/>
<polygon style="fill:black;stroke:black;" points="302,-597.5 312,-594 302,-590.5 302,-597.5"/>
</g>
<!-- demasquerade -->
<g id="node9" class="node"><title>demasquerade</title>
<polygon style="fill:none;stroke:black;" points="150,-360 150,-396 294,-396 294,-360 150,-360"/>
<text text-anchor="middle" x="222" y="-379.4" style="font-family:Times New Roman;font-size:14.00;">demasquerade</text>
</g>
<!-- INPUT&#45;&gt;demasquerade -->
<g id="edge6" class="edge"><title>INPUT&#45;&gt;demasquerade</title>
<path style="fill:none;stroke:black;" d="M222,-432C222,-424 222,-415 222,-406"/>
<polygon style="fill:black;stroke:black;" points="225.5,-406 222,-396 218.5,-406 225.5,-406"/>
</g>
<!-- DENY3 -->
<g id="node25" class="node"><title>DENY3</title>
<text text-anchor="middle" x="384" y="-445.9" style="font-family:Times New Roman;font-size:14.00;">DENY or REJECT</text>
</g>
<!-- INPUT&#45;&gt;DENY3 -->
<g id="edge36" class="edge"><title>INPUT&#45;&gt;DENY3</title>
<path style="fill:none;stroke:black;" d="M294,-450C297,-450 299,-450 302,-450"/>
<polygon style="fill:black;stroke:black;" points="302,-453.5 312,-450 302,-446.5 302,-453.5"/>
</g>
<!-- demasquerade&#45;&gt;sanity3 -->
<g id="edge18" class="edge"><title>demasquerade&#45;&gt;sanity3</title>
<path style="fill:none;stroke:black;" d="M236,-360C242,-350 250,-337 253,-324 272,-252 264,-163 257,-118"/>
<polygon style="fill:black;stroke:black;" points="260.478,-117.602 256,-108 253.512,-118.299 260.478,-117.602"/>
</g>
<!-- routing decision -->
<g id="node11" class="node"><title>routing decision</title>
<polygon style="fill:none;stroke:black;" points="100,-288 100,-324 244,-324 244,-288 100,-288"/>
<text text-anchor="middle" x="172" y="-307.4" style="font-family:Times New Roman;font-size:14.00;">routing decision</text>
</g>
<!-- demasquerade&#45;&gt;routing decision -->
<g id="edge8" class="edge"><title>demasquerade&#45;&gt;routing decision</title>
<path style="fill:none;stroke:black;" d="M209,-360C204,-352 197,-342 191,-332"/>
<polygon style="fill:black;stroke:black;" points="193.8,-329.9 185,-324 188.2,-334.1 193.8,-329.9"/>
</g>
<!-- routing decision&#45;&gt;sanity2 -->
<g id="edge10" class="edge"><title>routing decision&#45;&gt;sanity2</title>
<path style="fill:none;stroke:black;" d="M172,-288C172,-280 172,-271 172,-262"/>
<polygon style="fill:black;stroke:black;" points="175.5,-262 172,-252 168.5,-262 175.5,-262"/>
</g>
<!-- local process -->
<g id="node20" class="node"><title>local process</title>
<polygon style="fill:none;stroke:black;" points="0,-72 0,-108 144,-108 144,-72 0,-72"/>
<text text-anchor="middle" x="72" y="-91.4" style="font-family:Times New Roman;font-size:14.00;">local process</text>
</g>
<!-- routing decision&#45;&gt;local process -->
<g id="edge21" class="edge"><title>routing decision&#45;&gt;local process</title>
<path style="fill:none;stroke:black;" d="M132,-288C117,-279 101,-267 91,-252 67,-210 66,-153 69,-118"/>
<polygon style="fill:black;stroke:black;" points="72.4875,-118.299 70,-108 65.5222,-117.602 72.4875,-118.299"/>
</g>
<!-- FORWARD&#45;&gt;sanity3 -->
<g id="edge14" class="edge"><title>FORWARD&#45;&gt;sanity3</title>
<path style="fill:none;stroke:black;" d="M192,-144C202,-135 214,-124 225,-115"/>
<polygon style="fill:black;stroke:black;" points="227.779,-117.219 233,-108 223.169,-111.951 227.779,-117.219"/>
</g>
<!-- DENY5 -->
<g id="node27" class="node"><title>DENY5</title>
<text text-anchor="middle" x="372" y="-157.9" style="font-family:Times New Roman;font-size:14.00;">DENY or REJECT</text>
</g>
<!-- FORWARD&#45;&gt;DENY5 -->
<g id="edge40" class="edge"><title>FORWARD&#45;&gt;DENY5</title>
<path style="fill:none;stroke:black;" d="M244,-162C260,-162 274,-162 290,-162"/>
<polygon style="fill:black;stroke:black;" points="290,-165.5 300,-162 290,-158.5 290,-165.5"/>
</g>
<!-- DENY7 -->
<g id="node29" class="node"><title>DENY7</title>
<text text-anchor="middle" x="415" y="-13.9" style="font-family:Times New Roman;font-size:14.00;">DENY or REJECT</text>
</g>
<!-- OUTPUT&#45;&gt;DENY7 -->
<g id="edge44" class="edge"><title>OUTPUT&#45;&gt;DENY7</title>
<path style="fill:none;stroke:black;" d="M325,-18C328,-18 330,-18 333,-18"/>
<polygon style="fill:black;stroke:black;" points="333,-21.5001 343,-18 333,-14.5001 333,-21.5001"/>
</g>
<!-- local process&#45;&gt;sanity3 -->
<g id="edge23" class="edge"><title>local process&#45;&gt;sanity3</title>
<path style="fill:none;stroke:black;" d="M144,-90C153,-90 162,-90 171,-90"/>
<polygon style="fill:black;stroke:black;" points="171,-93.5001 181,-90 171,-86.5001 171,-93.5001"/>
</g>
</g>
</svg>
