<?xml version="1.0" encoding="UTF-8" standalone="no"?>
<!DOCTYPE svg PUBLIC "-//W3C//DTD SVG 1.1//EN"
 "http://www.w3.org/Graphics/SVG/1.1/DTD/svg11.dtd">
<!-- Generated by graphviz version 2.40.1 (20161225.0304)
 -->
<!-- Title: G Pages: 1 -->
<svg width="647pt" height="185pt"
 viewBox="0.00 0.00 647.00 185.00" xmlns="http://www.w3.org/2000/svg" xmlns:xlink="http://www.w3.org/1999/xlink">
<g id="graph0" class="graph" transform="scale(1 1) rotate(0) translate(4 181)">
<title>G</title>
<polygon fill="#ffffff" stroke="transparent" points="-4,4 -4,-181 643,-181 643,4 -4,4"/>
<!-- some_host -->
<g id="node1" class="node">
<title>some_host</title>
<polygon fill="none" stroke="#000000" points="0,-115.5 0,-161.5 109,-161.5 109,-115.5 0,-115.5"/>
<text text-anchor="middle" x="54.5" y="-146.3" font-family="Times,serif" font-size="14.00" fill="#000000">Some Host</text>
<polyline fill="none" stroke="#000000" points="0,-138.5 109,-138.5 "/>
<text text-anchor="middle" x="54.5" y="-123.3" font-family="Times,serif" font-size="14.00" fill="#000000">201.202.203.204</text>
</g>
<!-- internet -->
<g id="node7" class="node">
<title>internet</title>
<image xlink:href="icons/globe.png" width="54px" height="54px" preserveAspectRatio="xMinYMin meet" x="162.5" y="-165.5"/>
<text text-anchor="middle" x="189.5" y="-106.3" font-family="Times,serif" font-size="14.00" fill="#000000">Internet</text>
</g>
<!-- some_host&#45;&gt;internet -->
<g id="edge1" class="edge">
<title>some_host&#45;&gt;internet</title>
<path fill="none" stroke="#000000" d="M109.0205,-138.5C127.3152,-138.5 146.9318,-138.5 162.2176,-138.5"/>
</g>
<!-- machine1 -->
<g id="node2" class="node">
<title>machine1</title>
<polygon fill="none" stroke="#000000" points="550,-130.5 550,-176.5 639,-176.5 639,-130.5 550,-130.5"/>
<text text-anchor="middle" x="594.5" y="-161.3" font-family="Times,serif" font-size="14.00" fill="#000000">Machine1</text>
<polyline fill="none" stroke="#000000" points="550,-153.5 639,-153.5 "/>
<text text-anchor="middle" x="594.5" y="-138.3" font-family="Times,serif" font-size="14.00" fill="#000000">192.168.0.10</text>
</g>
<!-- machine2 -->
<g id="node3" class="node">
<title>machine2</title>
<polygon fill="none" stroke="#000000" points="550,-65.5 550,-111.5 639,-111.5 639,-65.5 550,-65.5"/>
<text text-anchor="middle" x="594.5" y="-96.3" font-family="Times,serif" font-size="14.00" fill="#000000">Machine2</text>
<polyline fill="none" stroke="#000000" points="550,-88.5 639,-88.5 "/>
<text text-anchor="middle" x="594.5" y="-73.3" font-family="Times,serif" font-size="14.00" fill="#000000">192.168.0.11</text>
</g>
<!-- machine3 -->
<g id="node4" class="node">
<title>machine3</title>
<polygon fill="none" stroke="#000000" points="550,-.5 550,-46.5 639,-46.5 639,-.5 550,-.5"/>
<text text-anchor="middle" x="594.5" y="-31.3" font-family="Times,serif" font-size="14.00" fill="#000000">Machine3</text>
<polyline fill="none" stroke="#000000" points="550,-23.5 639,-23.5 "/>
<text text-anchor="middle" x="594.5" y="-8.3" font-family="Times,serif" font-size="14.00" fill="#000000">192.168.0.12</text>
</g>
<!-- machine4 -->
<g id="node5" class="node">
<title>machine4</title>
<polygon fill="none" stroke="#000000" points="270,-65.5 270,-149.5 379,-149.5 379,-65.5 270,-65.5"/>
<text text-anchor="middle" x="324.5" y="-134.3" font-family="Times,serif" font-size="14.00" fill="#000000">101.102.103.104</text>
<polyline fill="none" stroke="#000000" points="270,-126.5 379,-126.5 "/>
<text text-anchor="middle" x="324.5" y="-111.3" font-family="Times,serif" font-size="14.00" fill="#000000">Machine 4</text>
<text text-anchor="middle" x="324.5" y="-96.3" font-family="Times,serif" font-size="14.00" fill="#000000">router</text>
<polyline fill="none" stroke="#000000" points="270,-88.5 379,-88.5 "/>
<text text-anchor="middle" x="324.5" y="-73.3" font-family="Times,serif" font-size="14.00" fill="#000000">192.168.0.1</text>
</g>
<!-- LAN -->
<g id="node6" class="node">
<title>LAN</title>
<polygon fill="none" stroke="#000000" points="415,-53.5 415,-99.5 504,-99.5 504,-53.5 415,-53.5"/>
<text text-anchor="middle" x="459.5" y="-84.3" font-family="Times,serif" font-size="14.00" fill="#000000">LAN</text>
<polyline fill="none" stroke="#000000" points="415,-76.5 504,-76.5 "/>
<text text-anchor="middle" x="459.5" y="-61.3" font-family="Times,serif" font-size="14.00" fill="#000000">192.168.0/24</text>
</g>
<!-- machine4&#45;&gt;LAN -->
<g id="edge3" class="edge">
<title>machine4:f2&#45;&gt;LAN</title>
<path fill="none" stroke="#000000" d="M379,-76.5C390.5998,-76.5 403.1399,-76.5 414.7911,-76.5"/>
</g>
<!-- LAN&#45;&gt;machine1 -->
<g id="edge4" class="edge">
<title>LAN&#45;&gt;machine1:f1</title>
<path fill="none" stroke="#000000" d="M477.2882,-99.5996C493.8578,-118.2825 520.4031,-141.5 550,-141.5"/>
</g>
<!-- LAN&#45;&gt;machine2 -->
<g id="edge5" class="edge">
<title>LAN&#45;&gt;machine2:f1</title>
<path fill="none" stroke="#000000" d="M504.1503,-76.5C518.7628,-76.5 535.0738,-76.5 550,-76.5"/>
</g>
<!-- LAN&#45;&gt;machine3 -->
<g id="edge6" class="edge">
<title>LAN&#45;&gt;machine3:f1</title>
<path fill="none" stroke="#000000" d="M477.2882,-53.4004C493.8578,-34.7175 520.4031,-11.5 550,-11.5"/>
</g>
<!-- internet&#45;&gt;machine4 -->
<g id="edge2" class="edge">
<title>internet&#45;&gt;machine4:f0</title>
<path fill="none" stroke="#000000" d="M216.701,-138.5C232.3004,-138.5 252.2509,-138.5 270,-138.5"/>
</g>
</g>
</svg>
