<?xml version="1.0" encoding="UTF-8" standalone="no"?>
<!DOCTYPE svg PUBLIC "-//W3C//DTD SVG 1.0//EN"
 "http://www.w3.org/TR/2001/REC-SVG-20010904/DTD/svg10.dtd" [
 <!ATTLIST svg xmlns:xlink CDATA #FIXED "http://www.w3.org/1999/xlink">
]>
<!-- Generated by Graphviz version 2.20.2 (Tue Mar &#160;2 21:46:26 UTC 2010)
     For user: (joost) Joost Helberg,,, -->
<!-- Title: G Pages: 1 -->
<svg width="768pt" height="112pt"
 viewBox="0.00 0.00 768.00 112.00" xmlns="http://www.w3.org/2000/svg" xmlns:xlink="http://www.w3.org/1999/xlink">
<g id="graph0" class="graph" transform="scale(1 1) rotate(0) translate(4 108)">
<title>G</title>
<polygon style="fill:white;stroke:white;" points="-4,4 -4,-108 764,-108 764,4 -4,4"/>
<!-- linkname -->
<g id="node1" class="node"><title>linkname</title>
<polygon style="fill:none;stroke:black;" points="30,-0 30,-50 114,-50 114,-0 30,-0"/>
<text text-anchor="middle" x="72" y="-32.9" style="font-family:Times New Roman;font-size:14.00;">Linkname</text>
<polyline style="fill:none;stroke:black;" points="30,-25 114,-25 "/>
<text text-anchor="middle" x="72" y="-7.9" style="font-family:Times New Roman;font-size:14.00;">libfoo.so</text>
</g>
<!-- soname -->
<g id="node2" class="node"><title>soname</title>
<polygon style="fill:none;stroke:black;" points="333,-0 333,-50 419,-50 419,-0 333,-0"/>
<text text-anchor="middle" x="376" y="-32.9" style="font-family:Times New Roman;font-size:14.00;">Soname</text>
<polyline style="fill:none;stroke:black;" points="333,-25 419,-25 "/>
<text text-anchor="middle" x="376" y="-7.9" style="font-family:Times New Roman;font-size:14.00;">libfoo.so.1</text>
</g>
<!-- linkname&#45;&gt;soname -->
<g id="edge2" class="edge"><title>linkname&#45;&gt;soname</title>
<path style="fill:none;stroke:black;" d="M114,-25C169,-25 263,-25 323,-25"/>
<polygon style="fill:black;stroke:black;" points="323,-28.5001 333,-25 323,-21.5001 323,-28.5001"/>
<text text-anchor="middle" x="189" y="-28.9" style="font-family:Times New Roman;font-size:14.00;">symlink</text>
</g>
<!-- realname -->
<g id="node3" class="node"><title>realname</title>
<polygon style="fill:none;stroke:black;" points="628,-0 628,-50 741,-50 741,-0 628,-0"/>
<text text-anchor="middle" x="684" y="-32.9" style="font-family:Times New Roman;font-size:14.00;">Real name</text>
<polyline style="fill:none;stroke:black;" points="628,-25 741,-25 "/>
<text text-anchor="middle" x="684" y="-7.9" style="font-family:Times New Roman;font-size:14.00;">libfoo.so.1.0.4</text>
</g>
<!-- soname&#45;&gt;realname -->
<g id="edge4" class="edge"><title>soname&#45;&gt;realname</title>
<path style="fill:none;stroke:black;" d="M419,-25C471,-25 558,-25 618,-25"/>
<polygon style="fill:black;stroke:black;" points="618,-28.5001 628,-25 618,-21.5001 618,-28.5001"/>
<text text-anchor="middle" x="563" y="-28.9" style="font-family:Times New Roman;font-size:14.00;">symlink</text>
</g>
<!-- Linker uses.. -->
<g id="node6" class="node"><title>Linker uses..</title>
<ellipse style="fill:none;stroke:black;" cx="72" cy="-86" rx="71.0724" ry="18"/>
<text text-anchor="middle" x="72" y="-81.9" style="font-family:Times New Roman;font-size:14.00;">Linker uses..</text>
</g>
<!-- Executable asks loader for.. -->
<g id="node8" class="node"><title>Executable asks loader for..</title>
<ellipse style="fill:none;stroke:black;" cx="376" cy="-86" rx="141.756" ry="18"/>
<text text-anchor="middle" x="376" y="-81.9" style="font-family:Times New Roman;font-size:14.00;">Executable asks loader for..</text>
</g>
<!-- Loader finds.. -->
<g id="node10" class="node"><title>Loader finds..</title>
<ellipse style="fill:none;stroke:black;" cx="684" cy="-86" rx="75.2406" ry="18"/>
<text text-anchor="middle" x="684" y="-81.9" style="font-family:Times New Roman;font-size:14.00;">Loader finds..</text>
</g>
</g>
</svg>
