<?xml version="1.0" encoding="UTF-8" standalone="no"?>
<!-- Created with Inkscape (http://www.inkscape.org/) -->
<svg id="svg2" xmlns:rdf="http://www.w3.org/1999/02/22-rdf-syntax-ns#" xmlns="http://www.w3.org/2000/svg" xml:space="preserve" height="562.5" viewBox="0 0 592.91248 562.5" width="592.91" version="1.1" xmlns:cc="http://creativecommons.org/ns#" xmlns:dc="http://purl.org/dc/elements/1.1/"><metadata id="metadata8"><rdf:RDF><cc:Work rdf:about=""><dc:format>image/svg+xml</dc:format><dc:type rdf:resource="http://purl.org/dc/dcmitype/StillImage"/><dc:title/></cc:Work></rdf:RDF></metadata><g id="g10" transform="matrix(1.25,0,0,-1.25,0,562.5)"><g id="g12" transform="scale(.1)"><path id="path14" d="m49.25 78.672h4619.8v4334.8h-4619.8v-4334.8z" fill="#fff"/><g fill="#206150"><path id="path16" d="m91.16 91.16h4560.9v4317.7h-4560.9v-4317.7zm4652.1-91.16h-4743.3v4500h4743.3v-4500"/><path id="path18" d="m1538 3640.7c0.02-41.38-33.51-74.95-74.9-74.98-41.38-0.02-74.95 33.51-74.98 74.9-0.02 41.36 33.47 74.92 74.83 74.98 41.36-0.07 74.9-33.54 75.05-74.9"/><path id="path20" d="m1342.7 3791.1h-150.58l-180.68-677.63h512.03l40.16 150.58h-359.84l138.91 527.05"/><path id="path22" d="m1267 2962.6c-249.34 0.01-451.46 202.14-451.46 451.48 0.004 249.33 202.14 451.45 451.47 451.45 249.34 0 451.46-202.13 451.46-451.46-0.01-249.34-202.14-451.47-451.47-451.47zm0 1054.3c-332.94 0-602.85-269.9-602.85-602.84-0.004-332.94 269.9-602.85 602.83-602.85 332.94 0 602.85 269.9 602.85 602.84v0.02c-0.01 332.93-269.91 602.82-602.83 602.83"/><path id="path24" d="m2205.1 3434.2c10.15-0.61 20.2 2.34 28.42 8.35 7.07 6.19 10.85 15.33 10.2 24.71 0 21.71-13.94 32.56-41.83 32.56h-31.04v-65.62h34.25zm11.3 101.21c19.71 0.84 38.98-6.02 53.72-19.15 13.73-12.65 21.27-30.67 20.66-49.33 0.68-18.76-6.98-36.85-20.92-49.42-15.31-13.09-35.03-19.85-55.15-18.89h-43.86v-98.85h-45.54v235.64h91.09"/><path id="path26" d="m2429.1 3460.4c5.63-0.03 11.19-1.3 16.27-3.71 6.71-3.38 12.97-7.57 18.64-12.48l-14.84-36.27c-8.11 7.3-18.21 11.99-29.01 13.5-6.95-0.2-13.63-2.73-18.98-7.17-6.45-5.04-11.59-11.55-15.01-18.98-3.64-7.34-5.57-15.42-5.65-23.61v-71.86h-41.49v157.54h41.49v-40.14h0.67c5.5 12.3 13.22 23.48 22.77 32.97 6.79 6.46 15.77 10.11 25.14 10.21"/><path id="path28" d="m2529 3379.2c-0.7-13.54 3.39-26.89 11.56-37.7 7.52-9.31 18.99-14.53 30.95-14.09 12.13-0.58 23.86 4.38 31.88 13.5 8.42 11.04 12.55 24.77 11.64 38.62 0.86 13.38-3.33 26.59-11.73 37.03-8.13 8.85-19.78 13.64-31.79 13.07-11.82 0.35-23.13-4.75-30.7-13.83-8.26-10.36-12.45-23.37-11.81-36.6zm42.85 81.13c15.51 0.21 30.84-3.32 44.7-10.29 12.9-6.42 23.68-16.44 31.03-28.84 7.41-12.74 11.2-27.27 10.96-42 0.34-14.96-3.3-29.75-10.54-42.84-7.28-12.5-18.07-22.59-31.03-29.02-13.96-7.15-29.44-10.8-45.12-10.62-15.66-0.21-31.13 3.44-45.04 10.62-12.86 6.48-23.55 16.56-30.78 29.02-7.24 13.09-10.88 27.87-10.54 42.84-0.27 14.84 3.58 29.47 11.13 42.25 7.41 12.31 18.18 22.25 31.03 28.67 13.7 6.91 28.86 10.41 44.2 10.21"/><path id="path30" d="m2775.4 3538.5c5.01-0.01 10-0.46 14.93-1.35 4.26-0.65 8.43-1.84 12.4-3.54v-33.73c-6.11 1.62-12.41 2.41-18.73 2.36-8.2 0.66-16.31-2.16-22.35-7.76-5.59-7.38-8.21-16.59-7.33-25.81v-11.3h26.98v-31.37h-26.98v-126.17h-41.5v126.17h-22.43v31.37h22.43v11.81c-0.98 18.44 5.15 36.55 17.12 50.6 11.68 12.6 28.3 19.44 45.46 18.72"/><path id="path32" d="m2927.4 3395.4c-0.48 9.86-4.15 19.3-10.46 26.9-6.22 6.63-15.04 10.17-24.12 9.7-9.31 0.43-18.4-2.91-25.22-9.28-6.96-7.5-11.2-17.12-12.06-27.32h71.86zm-36.27 64.94c20.71 1.01 40.82-7.13 54.99-22.27 14.32-17.2 21.56-39.21 20.24-61.56v-6.24h-111.49c0.89-12.45 6.54-24.08 15.77-32.47 10.33-8.09 23.25-12.14 36.35-11.39 9.76-0.02 19.45 1.72 28.59 5.15 10.11 3.94 19.66 9.19 28.42 15.6v-30.87c-19.75-13.44-43.25-20.29-67.13-19.56-22.47-0.89-44.37 7.17-60.89 22.43-16.03 15.63-24.62 37.35-23.62 59.71-0.85 21.7 7.02 42.84 21.85 58.7 14.89 15.32 35.58 23.59 56.92 22.77"/><path id="path34" d="m3067.3 3460.4c8.25 0.05 16.46-0.94 24.46-2.95 8.4-2.26 16.54-5.4 24.29-9.36v-33.23c-7.91 5.08-16.41 9.18-25.3 12.23-7.73 2.85-15.88 4.42-24.12 4.63-4.9 0.28-9.77-0.9-14-3.37-3.28-2.07-5.21-5.74-5.06-9.61 0.28-2.88 1.82-5.47 4.21-7.09 7.33-4.97 15.06-9.31 23.11-12.98 13.9-6.31 26.69-14.83 37.87-25.22 7.15-7.45 11.06-17.42 10.88-27.75 0.63-13.77-5.24-27.04-15.86-35.84-12.29-9.27-27.46-13.9-42.84-13.07-10.6-0.08-21.17 1.17-31.46 3.71-8.4 1.98-16.53 4.98-24.2 8.94v34.58c15.39-9.73 32.95-15.53 51.11-16.87 5.97-0.26 11.9 1.05 17.2 3.79 3.93 1.82 6.48 5.71 6.58 10.04 0.01 2.45-0.83 4.83-2.36 6.74-2.03 2.44-4.42 4.54-7.09 6.25-3.15 2.13-12.98 7.25-29.51 15.35-10.66 4.59-20.25 11.34-28.17 19.81-6.05 7.06-9.29 16.1-9.11 25.39-0.39 13.15 5.73 25.65 16.36 33.4 12.55 8.82 27.69 13.21 43.01 12.48"/><path id="path36" d="m3224.1 3460.4c8.25 0.05 16.47-0.94 24.46-2.95 8.4-2.26 16.55-5.4 24.29-9.36v-33.23c-7.91 5.08-16.41 9.18-25.3 12.23-7.73 2.85-15.88 4.42-24.12 4.63-4.9 0.28-9.76-0.9-14-3.37-3.28-2.07-5.21-5.74-5.06-9.61 0.28-2.88 1.83-5.47 4.22-7.09 7.32-4.97 15.05-9.31 23.1-12.98 13.9-6.31 26.69-14.83 37.87-25.22 7.15-7.45 11.07-17.42 10.88-27.75 0.63-13.77-5.24-27.04-15.85-35.84-12.3-9.27-27.47-13.9-42.85-13.07-10.6-0.08-21.16 1.17-31.45 3.71-8.41 1.98-16.54 4.98-24.21 8.94v34.58c15.4-9.73 32.95-15.53 51.11-16.87 5.97-0.26 11.9 1.05 17.2 3.79 3.93 1.82 6.48 5.71 6.58 10.04 0.01 2.45-0.82 4.83-2.36 6.74-2.03 2.44-4.42 4.54-7.08 6.25-3.15 2.13-12.99 7.25-29.52 15.35-10.66 4.59-20.24 11.34-28.17 19.81-6.04 7.06-9.29 16.1-9.11 25.39-0.39 13.15 5.73 25.65 16.36 33.4 12.56 8.82 27.69 13.21 43.01 12.48"/><path id="path38" d="m3372.6 3457.3v-157.54h-41.49v157.54h41.49zm-20.75 72.87c12.91-0.09 23.36-10.54 23.45-23.45 0-6.17-2.45-12.09-6.83-16.44-8.55-9.13-22.88-9.61-32.01-1.06-0.36 0.34-0.71 0.69-1.05 1.06-4.47 4.3-6.99 10.24-7 16.44-0.1 6.29 2.47 12.33 7.08 16.62 4.32 4.38 10.21 6.84 16.36 6.83"/><path id="path40" d="m3467.9 3379.2c-0.7-13.54 3.39-26.89 11.56-37.7 7.52-9.31 18.99-14.53 30.95-14.09 12.13-0.58 23.86 4.38 31.88 13.5 8.42 11.04 12.56 24.77 11.64 38.62 0.86 13.38-3.33 26.59-11.72 37.03-8.14 8.85-19.79 13.64-31.8 13.07-11.81 0.35-23.14-4.75-30.7-13.83-8.26-10.36-12.45-23.37-11.81-36.6zm42.85 81.13c15.51 0.21 30.84-3.32 44.7-10.29 12.91-6.42 23.68-16.44 31.03-28.84 7.41-12.74 11.2-27.27 10.96-42 0.34-14.96-3.3-29.75-10.54-42.84-7.28-12.5-18.07-22.59-31.03-29.02-13.96-7.15-29.44-10.8-45.12-10.62-15.66-0.21-31.13 3.44-45.04 10.62-12.86 6.48-23.55 16.56-30.78 29.02-7.24 13.09-10.88 27.88-10.54 42.84-0.27 14.84 3.58 29.47 11.13 42.25 7.42 12.31 18.18 22.25 31.04 28.67 13.69 6.91 28.85 10.41 44.19 10.21"/><path id="path42" d="m3739.2 3460.4c15.26 0.67 30.03-5.41 40.4-16.62 10.44-12.12 15.85-27.78 15.1-43.77v-100.19h-41.33v95.98c0.48 8.7-2.12 17.3-7.34 24.29-4.88 5.95-12.29 9.27-19.98 8.93-6.45-0.01-12.75-1.98-18.05-5.65-7.13-5.26-13.39-11.6-18.56-18.8v-104.75h-41.49v157.54h41.49v-22.09c6.42 8 14.44 14.57 23.53 19.31 8.19 3.91 17.16 5.9 26.23 5.82"/><path id="path44" d="m3883.5 3342c-0.22-5.18 1.77-10.21 5.48-13.83 3.65-3.48 8.54-5.37 13.58-5.23 10.36 0.54 20.13 5 27.33 12.48v41.5c-9.35-3.02-18.46-6.74-27.24-11.14-5.44-2.63-10.36-6.23-14.51-10.62-3.11-3.67-4.77-8.35-4.64-13.16zm25.3 118.41c16.48 1.11 32.85-3.44 46.39-12.91 10.76-8.77 16.71-22.14 16.02-36.01v-77.08c0-5.96 2.42-8.94 7.26-8.94 2.98 0.28 5.88 1.17 8.51 2.62 3.34 1.53 6.44 3.55 9.2 5.98v-23.95c-11.8-8.01-25.57-12.62-39.81-13.32-5.94-0.35-11.86 0.94-17.12 3.71-4.42 3.11-7.42 7.84-8.35 13.15-13.74-10.51-30.44-16.41-47.73-16.86-10.89-0.19-21.41 3.93-29.27 11.47-7.85 6.97-12.31 16.99-12.23 27.49-0.63 11.96 3.77 23.65 12.15 32.22 12.38 10.05 26.93 17.09 42.5 20.57l33.57 9.79v7.25c0 15.41-9.34 23.11-28 23.11-9.87-0.07-19.6-2.32-28.51-6.58-9.82-4.67-18.59-11.26-25.8-19.4v37.28c17.43 13.68 39.07 20.9 61.22 20.41"/><path id="path46" d="m4037.6 3299.8h41.488v235.64h-41.488v-235.64z"/><path id="path48" d="m2126.3 2931.4h45.539v235.64h-45.539v-235.64z"/><path id="path50" d="m2328.1 3092c15.26 0.67 30.03-5.41 40.4-16.62 10.44-12.12 15.85-27.78 15.1-43.77v-100.19h-41.33v95.98c0.48 8.7-2.12 17.3-7.34 24.29-4.88 5.96-12.29 9.27-19.99 8.94-6.44-0.02-12.74-1.99-18.04-5.65-7.13-5.27-13.39-11.61-18.56-18.81v-104.75h-41.49v157.54h41.49v-22.09c6.42 8 14.43 14.57 23.53 19.31 8.19 3.91 17.16 5.9 26.23 5.82"/><path id="path52" d="m2492.1 3092c8.25 0.05 16.47-0.94 24.46-2.95 8.41-2.26 16.55-5.4 24.29-9.36v-33.23c-7.91 5.08-16.4 9.18-25.3 12.23-7.73 2.85-15.88 4.42-24.12 4.63-4.9 0.28-9.76-0.9-14-3.37-3.28-2.07-5.21-5.74-5.06-9.61 0.28-2.87 1.83-5.47 4.22-7.09 7.32-4.97 15.05-9.31 23.11-12.99 13.9-6.3 26.68-14.82 37.86-25.21 7.16-7.45 11.07-17.42 10.88-27.75 0.63-13.77-5.24-27.04-15.85-35.84-12.3-9.27-27.47-13.9-42.85-13.07-10.6-0.08-21.16 1.17-31.45 3.71-8.41 1.98-16.54 4.98-24.21 8.94v34.58c15.4-9.73 32.95-15.52 51.11-16.87 5.97-0.26 11.9 1.05 17.2 3.79 3.93 1.82 6.48 5.71 6.58 10.04 0.01 2.45-0.82 4.83-2.36 6.75-2.03 2.43-4.42 4.53-7.08 6.24-3.15 2.13-12.99 7.25-29.52 15.35-10.65 4.59-20.24 11.34-28.17 19.82-6.04 7.06-9.28 16.09-9.11 25.38-0.39 13.15 5.74 25.65 16.36 33.4 12.56 8.82 27.69 13.21 43.01 12.48"/><path id="path54" d="m2640.9 3130.8h3.37v-41.83h53.98v-31.37h-53.98v-72.7c-0.27-6.36 2.04-12.57 6.41-17.2 4.68-4.55 11.04-6.93 17.54-6.58 11.83 0.64 23.32 4.24 33.4 10.46v-33.23c-13.2-6.23-27.57-9.62-42.17-9.95-15.24-0.91-30.21 4.31-41.57 14.5-10.26 10.44-15.68 24.69-14.93 39.3v75.4h-24.63v6.75l62.58 66.45"/><path id="path56" d="m2785.4 3089v-157.54h-41.5v157.54h41.5zm-20.75 72.87c12.91-0.09 23.35-10.54 23.45-23.45 0-6.17-2.46-12.09-6.84-16.44-8.54-9.13-22.87-9.61-32-1.06-0.36 0.34-0.72 0.69-1.06 1.06-4.46 4.3-6.99 10.24-7 16.44-0.09 6.29 2.48 12.33 7.09 16.62 4.31 4.38 10.21 6.84 16.36 6.83"/><path id="path58" d="m2888.7 3130.8h3.37v-41.83h53.98v-31.37h-53.98v-72.7c-0.27-6.36 2.04-12.57 6.41-17.2 4.68-4.55 11.04-6.93 17.54-6.58 11.84 0.64 23.32 4.24 33.4 10.46v-33.23c-13.2-6.23-27.57-9.62-42.17-9.95-15.24-0.91-30.21 4.31-41.57 14.5-10.26 10.44-15.68 24.69-14.93 39.3v75.4h-24.63v6.75l62.58 66.45"/><path id="path60" d="m3030.3 3089v-97.49c-0.6-8.49 2.16-16.88 7.68-23.36 5.33-5.43 12.72-8.34 20.32-8.01 7.18 0.06 14.18 2.3 20.07 6.41 6.66 4.56 12.01 10.78 15.52 18.04v104.41h41.49v-157.54h-41.49v21.42c-11.89-14.8-29.61-23.72-48.58-24.45-15.35-0.62-30.22 5.4-40.82 16.53-10.63 11.8-16.21 27.31-15.51 43.18v100.86h41.32"/><path id="path62" d="m3237.3 3130.8h3.38v-41.83h53.97v-31.37h-53.97v-72.7c-0.27-6.36 2.04-12.57 6.41-17.2 4.67-4.55 11.03-6.93 17.54-6.58 11.83 0.64 23.31 4.24 33.4 10.46v-33.23c-13.21-6.23-27.57-9.62-42.17-9.95-15.24-0.91-30.21 4.31-41.58 14.5-10.26 10.44-15.67 24.69-14.93 39.3v75.4h-24.62v6.75l62.57 66.45"/><path id="path64" d="m3445.7 3027.1c-0.48 9.86-4.15 19.31-10.46 26.9-6.22 6.63-15.04 10.18-24.12 9.7-9.31 0.43-18.4-2.91-25.21-9.28-6.96-7.5-11.21-17.12-12.06-27.32h71.85zm-36.26 64.94c20.7 1.01 40.81-7.13 54.98-22.27 14.32-17.2 21.56-39.21 20.24-61.56v-6.24h-111.49c0.89-12.45 6.54-24.08 15.77-32.47 10.33-8.09 23.25-12.14 36.35-11.39 9.76-0.02 19.45 1.72 28.59 5.15 10.11 3.94 19.67 9.19 28.42 15.6v-30.87c-19.75-13.44-43.25-20.28-67.13-19.56-22.47-0.89-44.37 7.18-60.89 22.43-16.02 15.63-24.61 37.35-23.61 59.71-0.86 21.7 7.01 42.84 21.84 58.7 14.89 15.32 35.58 23.6 56.93 22.77"/><path id="path66" d="m2170.8 3905.4v-200.05h114.36v-35.59h-159.9v235.64h45.54"/><path id="path68" d="m2371.3 3827.3v-157.54h-41.49v157.54h41.49zm-20.74 72.87c12.91-0.09 23.35-10.54 23.44-23.45 0.01-6.17-2.45-12.09-6.83-16.44-8.55-9.13-22.87-9.6-32-1.06-0.37 0.34-0.72 0.7-1.06 1.06-4.47 4.3-6.99 10.24-7 16.44-0.1 6.29 2.48 12.33 7.08 16.62 4.32 4.38 10.22 6.84 16.37 6.83"/><path id="path70" d="m2522.6 3830.3c15.26 0.67 30.03-5.41 40.4-16.62 10.44-12.12 15.85-27.79 15.1-43.77v-100.19h-41.33v95.98c0.48 8.7-2.11 17.3-7.34 24.28-4.88 5.97-12.28 9.28-19.98 8.95-6.45-0.02-12.75-1.99-18.05-5.66-7.13-5.26-13.39-11.61-18.55-18.8v-104.75h-41.5v157.54h41.5v-22.09c6.41 8 14.43 14.57 23.53 19.31 8.18 3.91 17.15 5.9 26.22 5.82"/><path id="path72" d="m2675.5 3827.3v-97.49c-0.6-8.49 2.15-16.88 7.67-23.36 5.33-5.43 12.72-8.35 20.33-8.02 7.18 0.07 14.18 2.31 20.07 6.41 6.66 4.57 12.01 10.79 15.52 18.06v104.4h41.49v-157.54h-41.49v21.42c-11.89-14.8-29.61-23.72-48.58-24.45-15.35-0.62-30.23 5.4-40.82 16.52-10.64 11.81-16.21 27.31-15.52 43.18v100.87h41.33"/><path id="path74" d="m2869.1 3827.3 39.3-49.42 37.78 49.42h49.76l-63.25-77.42 67.97-80.12h-49.76l-42.5 52.12-40.65-52.12h-48.41l65.27 80.12-65.27 77.42h49.76"/><path id="path76" d="m927.58 2448h2888.1v30.383h-2888.1v-30.383z"/><path id="path78" d="m822.23 1967.4v-664.69h375.59v-118.25h-525.16v782.94h149.57"/><path id="path80" d="m1590.7 1631.2c39.88 0 71 9.25 93.34 27.74 22.37 18.5 33.54 45.87 33.52 82.11 0 72.09-45.8 108.14-137.39 108.17h-101.93v-218.02h112.46zm37.11 336.27c72.37 0 131.18-21.2 176.44-63.61 45.22-42.38 67.84-97.03 67.86-163.93 0-67.6-22.9-122.34-68.69-164.21-45.77-41.83-106.15-62.75-181.15-62.77h-144.03v-328.42h-149.57v782.94h299.14"/><path id="path82" d="m2022.9 1184.5h149.57v782.94h-149.57v-782.94z"/><path id="path84" d="m2780.8 1977.5c43.47 0.06 86.8-5.02 129.08-15.13 47.22-12 92.94-29.29 136.27-51.56v-142.36c-41.61 24.95-85.94 45.07-132.12 59.97-41.04 12.42-83.7 18.65-126.58 18.49-51.73 0.78-102.88-11.05-149.02-34.46-43.06-21.82-78.93-55.58-103.31-97.24-49.02-86.95-49.13-193.18-0.28-280.22 24.28-41.38 60.08-74.78 103.04-96.12 46.43-23.11 97.72-34.73 149.57-33.91 41.25-0.19 82.27 6.05 121.59 18.5 50.6 17.72 99.46 40.04 145.97 66.69v-142.35c-43.9-23.99-90.35-42.98-138.49-56.61-48.19-11.93-97.71-17.58-147.35-16.81-75.84-1.32-150.88 15.6-218.82 49.32-63.12 31.79-115.72 81.12-151.51 142.07-36.64 61.39-55.7 131.67-55.12 203.16-1.12 74.7 18.54 148.24 56.78 212.41 37.27 62.22 91.45 112.56 156.22 145.16 69.52 34.74 146.38 52.23 224.08 51"/><path id="path86" d="m3198.8 1378.4h286.95v132.27h-286.95v-132.27z"/><path id="path88" d="m3803.1 1977.5c73.46 0 131.91-21.2 175.33-63.61 43.41-42.39 65.11-98.9 65.09-169.54 0-53.8-16.16-112.09-48.48-174.86-32.33-62.77-89.11-145.9-170.34-249.4h265.35v-135.62h-501.34v16.25c58.38 72.86 108.51 138.34 150.4 196.44 41.9 58.07 74.3 106.27 97.22 144.59 19.3 30.99 35.62 63.74 48.75 97.8 9.6 26.79 14.47 55.05 14.41 83.51 0.91 33.46-11.32 65.95-34.07 90.51-20.97 23.68-51.19 37.08-82.82 36.71-58.38 0-118.94-33.63-181.7-100.88v153.56c66.13 49.67 133.53 74.52 202.2 74.54"/><path id="path90" d="m724.46 944.24v-230.18h130.06v-40.957h-181.86v271.14h51.797"/><path id="path92" d="m900.99 673.1h51.797v271.14h-51.797v-271.14z"/><path id="path94" d="m1068.3 944.24 159.22-189.23v189.23h50.65v-271.14h-44.51l-160.18 192.34v-192.34h-50.65v271.14h45.47"/><path id="path96" d="m1396.8 944.24v-157.79c-0.58-13.258 1.88-26.469 7.2-38.621 5.28-10.078 13.46-18.328 23.5-23.68 11.61-6.398 24.72-9.617 37.98-9.316 13.98-0.434 27.85 2.609 40.38 8.828 10.43 5.262 18.93 13.68 24.27 24.07 5.73 13.309 8.35 27.739 7.67 42.211v154.3h51.8v-161.09c0-36.488-10.81-64.527-32.42-84.136-21.61-19.602-52.17-29.403-91.7-29.403-22.26-0.539-44.35 4.039-64.55 13.391-17.56 8.309-32.13 21.832-41.73 38.719-9.92 18.23-14.89 38.742-14.39 59.492v163.03h51.99"/><path id="path98" d="m1702.8 944.24 73.85-91.801 72.71 91.801h64.46l-104.94-130.81 114.72-140.33h-65.61l-81.34 101.32-81.34-101.32h-65.22l113.57 140.33-106.09 130.81h65.23"/><path id="path100" d="m2258.4 944.24v-40.953h-121.43v-71.23h116.25v-40.95h-116.25v-77.05h124.12v-40.95h-175.92v271.13h173.23"/><path id="path102" d="m2364.7 944.24 159.23-189.23v189.23h50.64v-271.14h-44.5l-160.19 192.34v-192.34h-50.64v271.14h45.46"/><path id="path104" d="m2783.9 947.73c33.98-0.218 67.49-7.839 98.22-22.32v-47.941c-29.5 15.929-62.39 24.511-95.91 25.043-18.1 0.328-36-3.731-52.18-11.84-14.92-7.59-27.24-19.442-35.4-34.063-8.45-15.148-12.79-32.238-12.56-49.589-1.03-25.2 8.95-49.598 27.33-66.86 19.82-17.469 45.65-26.558 72.04-25.328 7.88-0.031 15.75 0.688 23.5 2.137 9.14 1.929 18.09 4.652 26.76 8.152v45.027h-44.31v40.954h96.11v-111.79c-14.48-9.93-30.53-17.309-47.48-21.84-18.76-5.278-38.16-7.918-57.65-7.86-26.66-0.367-53.01 5.692-76.83 17.661-22.22 11.089-40.85 28.25-53.72 49.492-12.9 21.429-19.58 46.027-19.28 71.039-0.31 25.34 6.43 50.269 19.47 72 13 21.488 31.83 38.847 54.29 50.078 24.06 12.101 50.68 18.223 77.6 17.851"/><path id="path106" d="m2953.7 673.1h51.801v271.14h-51.801v-271.14z"/><path id="path108" d="m3121.1 944.24 159.23-189.23v189.23h50.64v-271.14h-44.5l-160.19 192.34v-192.34h-50.64v271.14h45.46"/><path id="path110" d="m3572.9 944.24v-40.953h-121.44v-71.23h116.26v-40.95h-116.26v-77.05h124.12v-40.95h-175.91v271.13h173.23"/><path id="path112" d="m3807 944.24v-40.953h-121.43v-71.23h116.25v-40.95h-116.25v-77.05h124.12v-40.95h-175.92v271.13h173.23"/><path id="path114" d="m3952.6 828.56c11.55-0.668 22.94 3 31.94 10.293 7.88 7.168 12.13 17.5 11.6 28.136 0.79 10.582-3.48 20.91-11.51 27.852-9.57 6.719-21.14 9.969-32.8 9.219h-32.23v-75.5h33zm11.7 115.68c22.46 0.957 44.45-6.601 61.58-21.16 15.77-13.891 24.49-34.113 23.78-55.121 0.32-14.32-3.8-28.391-11.79-40.27-8.83-12.199-20.98-21.601-35.01-27.07 8.76-4.82 16.51-11.281 22.83-19.019 9.54-12.692 17.82-26.282 24.74-40.571 16.38-32.871 28.53-55.511 36.45-67.929h-57.74c-3.96 5.949-9.33 15.457-16.12 28.527-9.82 20.012-20.71 39.48-32.61 58.332-5.25 8.301-12.02 15.539-19.95 21.348-6.56 4.25-14.24 6.441-22.06 6.3h-18.8v-114.51h-51.8v271.14h96.5"/></g></g></g></svg>
